<?xml version="1.0" encoding="UTF-8" standalone="no"?>
<!-- Created with Inkscape (http://www.inkscape.org/) -->

<svg
   xmlns:dc="http://purl.org/dc/elements/1.1/"
   xmlns:cc="http://creativecommons.org/ns#"
   xmlns:rdf="http://www.w3.org/1999/02/22-rdf-syntax-ns#"
   xmlns:svg="http://www.w3.org/2000/svg"
   xmlns="http://www.w3.org/2000/svg"
   xmlns:sodipodi="http://sodipodi.sourceforge.net/DTD/sodipodi-0.dtd"
   xmlns:inkscape="http://www.inkscape.org/namespaces/inkscape"
   width="210mm"
   height="297mm"
   viewBox="0 0 210 297"
   version="1.1"
   id="svg8"
   inkscape:version="0.92.1 r15371"
   sodipodi:docname="comunicationSetup.svg">
  <defs
     id="defs2" />
  <sodipodi:namedview
     id="base"
     pagecolor="#ffffff"
     bordercolor="#666666"
     borderopacity="1.0"
     inkscape:pageopacity="0.0"
     inkscape:pageshadow="2"
     inkscape:zoom="1.979899"
     inkscape:cx="382.30287"
     inkscape:cy="793.78582"
     inkscape:document-units="mm"
     inkscape:current-layer="layer1"
     showgrid="false"
     inkscape:snap-others="false"
     inkscape:window-width="1576"
     inkscape:window-height="854"
     inkscape:window-x="12"
     inkscape:window-y="12"
     inkscape:window-maximized="0" />
  <metadata
     id="metadata5">
    <rdf:RDF>
      <cc:Work
         rdf:about="">
        <dc:format>image/svg+xml</dc:format>
        <dc:type
           rdf:resource="http://purl.org/dc/dcmitype/StillImage" />
        <dc:title></dc:title>
      </cc:Work>
    </rdf:RDF>
  </metadata>
  <g
     inkscape:label="Layer 1"
     inkscape:groupmode="layer"
     id="layer1">
    <path
       style="fill:#ffffff;fill-opacity:1;stroke:#000000;stroke-width:0.69999999;stroke-miterlimit:4;stroke-dasharray:none;stroke-opacity:0.30046949"
       id="path10"
       sodipodi:type="arc"
       sodipodi:cx="96.478416"
       sodipodi:cy="97.712013"
       sodipodi:rx="40.726936"
       sodipodi:ry="13.51259"
       sodipodi:start="0"
       sodipodi:end="3.1415927"
       d="m 137.20535,97.712013 a 40.726936,13.51259 0 0 1 -20.36347,11.702247 40.726936,13.51259 0 0 1 -40.726933,0 A 40.726936,13.51259 0 0 1 55.75148,97.712013 l 40.726936,0 z" />
    <g
       id="g867"
       transform="matrix(0.32036785,0,0,0.31491333,102.30142,67.328702)"
       style="stroke-width:3.1483283">
      <path
         inkscape:connector-curvature="0"
         id="path863"
         d="m 27.592992,124.71799 3.182359,2.03543 h 12.031906 l -4.234898,-2.03543 z"
         style="fill:#ffffff;fill-opacity:1;stroke:#000000;stroke-width:0.83299518px;stroke-linecap:butt;stroke-linejoin:miter;stroke-opacity:1" />
      <path
         sodipodi:nodetypes="ccccccc"
         inkscape:connector-curvature="0"
         id="path865"
         d="m 27.264275,124.5927 v 1.02696 l 3.463255,2.30864 v -1.17935 l 11.99016,0.0152 -0.0033,1.29462 -11.947195,-0.0152"
         style="fill:none;stroke:#000000;stroke-width:0.83299518px;stroke-linecap:butt;stroke-linejoin:miter;stroke-opacity:1" />
    </g>
    <path
       style="fill:none;stroke:#000000;stroke-width:0.26458332px;stroke-linecap:butt;stroke-linejoin:miter;stroke-opacity:1"
       d="m 115.44754,106.93554 v -2.80589"
       id="path869"
       inkscape:connector-curvature="0" />
    <path
       style="fill:#ffffff;fill-opacity:1;stroke:#000000;stroke-width:0.69999999;stroke-miterlimit:4;stroke-dasharray:none;stroke-opacity:1"
       id="path12"
       sodipodi:type="arc"
       sodipodi:cx="72.949402"
       sodipodi:cy="-97.677444"
       sodipodi:rx="3.8728728"
       sodipodi:ry="4.3819332"
       sodipodi:start="0"
       sodipodi:end="3.1415927"
       d="m 76.822275,-97.677444 a 3.8728728,4.3819332 0 0 1 -1.936437,3.794865 3.8728728,4.3819332 0 0 1 -3.872873,0 3.8728728,4.3819332 0 0 1 -1.936436,-3.794866 l 3.872873,1e-6 z"
       transform="scale(1,-1)" />
    <path
       style="fill:none;stroke:#000000;stroke-width:0.5;stroke-linecap:butt;stroke-linejoin:miter;stroke-miterlimit:4;stroke-dasharray:none;stroke-opacity:1"
       d="m 72.949402,97.677444 c 0,0 -1.700892,6.011606 2.645836,7.089376 4.346726,1.07777 6.425594,2.15555 6.425594,2.15555"
       id="path14"
       inkscape:connector-curvature="0"
       sodipodi:nodetypes="csc" />
    <rect
       style="fill:#ffffff;fill-opacity:1;stroke:#000000;stroke-width:0.5;stroke-miterlimit:4;stroke-dasharray:none;stroke-opacity:1"
       id="rect821"
       width="13.229166"
       height="9.260417"
       x="4.3467264"
       y="85.144341" />
    <rect
       style="fill:#ffffff;fill-opacity:1;stroke:#000000;stroke-width:0.14999999;stroke-miterlimit:4;stroke-dasharray:none;stroke-opacity:1"
       id="rect873"
       width="1.0394346"
       height="0.28348213"
       x="110.68219"
       y="107.00526" />
    <g
       id="g833"
       transform="matrix(1.0098891,0,0,1.0693249,68.514513,-28.088838)"
       style="stroke-width:0.96229523">
      <path
         inkscape:connector-curvature="0"
         id="path825"
         d="m 27.592992,124.71799 3.182359,2.03543 h 12.031906 l -4.234898,-2.03543 z"
         style="fill:#ffffff;fill-opacity:1;stroke:#000000;stroke-width:0.25460726px;stroke-linecap:butt;stroke-linejoin:miter;stroke-opacity:1" />
      <path
         sodipodi:nodetypes="ccccccc"
         inkscape:connector-curvature="0"
         id="path829"
         d="m 27.264275,124.5927 v 1.02696 l 3.463255,2.30864 v -1.17935 l 11.99016,0.0152 0.0061,1.25044 -11.947195,-0.0152"
         style="fill:none;stroke:#000000;stroke-width:0.25460726px;stroke-linecap:butt;stroke-linejoin:miter;stroke-opacity:1" />
    </g>
    <g
       style="stroke-width:3.1483283"
       transform="matrix(0.32036785,0,0,0.31491333,72.176719,67.007421)"
       id="g839">
      <path
         style="fill:#ffffff;fill-opacity:1;stroke:#000000;stroke-width:0.83299518px;stroke-linecap:butt;stroke-linejoin:miter;stroke-opacity:1"
         d="m 27.592992,124.71799 3.182359,2.03543 h 12.031906 l -4.234898,-2.03543 z"
         id="path835"
         inkscape:connector-curvature="0" />
      <path
         style="fill:none;stroke:#000000;stroke-width:0.83299518px;stroke-linecap:butt;stroke-linejoin:miter;stroke-opacity:1"
         d="m 27.264275,124.5927 v 1.02696 l 3.463255,2.30864 v -1.17935 l 11.99016,0.0152 -0.0033,1.29462 -11.947195,-0.0152"
         id="path837"
         inkscape:connector-curvature="0"
         sodipodi:nodetypes="ccccccc" />
    </g>
    <path
       style="fill:none;stroke:#000000;stroke-width:0.40000001;stroke-linecap:butt;stroke-linejoin:miter;stroke-miterlimit:4;stroke-dasharray:none;stroke-opacity:1"
       d="m 85.33817,106.73452 c 0,0 4.04338,-0.8833 7.709547,-0.74154 3.666165,0.14176 3.666165,0.14176 3.666165,0.14176"
       id="path841"
       inkscape:connector-curvature="0" />
    <path
       style="fill:none;stroke:#000000;stroke-width:0.26458332px;stroke-linecap:butt;stroke-linejoin:miter;stroke-opacity:1"
       d="m 2.5870366,101.64196 c 0,0 1.91768,-4.142852 7.8726104,-3.536572 5.95492,0.60627 5.95492,0.60627 5.95492,0.60627"
       id="path847"
       inkscape:connector-curvature="0" />
    <g
       style="stroke-width:1.02842593"
       transform="matrix(0.94548353,0,0,1,17.833822,-9.2037206)"
       id="g853">
      <path
         style="fill:none;stroke:#000000;stroke-width:0.15426388;stroke-linecap:butt;stroke-linejoin:miter;stroke-miterlimit:4;stroke-dasharray:none;stroke-opacity:1"
         d="m 85.955105,116.15566 h 12.11519 l -1.70629,-0.97778 H 84.294456 l 0.824894,0.45079 h 12.196103 l 1.730527,0.94572"
         id="path857"
         inkscape:connector-curvature="0"
         sodipodi:nodetypes="ccccccc" />
      <path
         style="fill:none;stroke:#000000;stroke-width:0.15426388;stroke-linecap:butt;stroke-linejoin:miter;stroke-miterlimit:4;stroke-dasharray:none;stroke-opacity:1"
         d="m 85.67811,115.17323 2.711577,1.4207 h 1.779723 l -2.447977,-1.41881 h 1.850174 l 2.427394,1.40757"
         id="path859"
         inkscape:connector-curvature="0"
         sodipodi:nodetypes="cccccc" />
      <path
         sodipodi:nodetypes="cccccc"
         inkscape:connector-curvature="0"
         id="path861"
         d="m 91.077205,115.15536 2.692708,1.43857 h 1.779722 l -2.447976,-1.41881 h 1.850173 l 2.427394,1.40757"
         style="fill:none;stroke:#000000;stroke-width:0.15426388;stroke-linecap:butt;stroke-linejoin:miter;stroke-miterlimit:4;stroke-dasharray:none;stroke-opacity:1" />
    </g>
    <path
       sodipodi:open="true"
       d="m 66.565824,96.030003 a 6.3496313,5.2071705 0 0 1 2.906384,-5.140693 6.3496313,5.2071705 0 0 1 6.908888,0.07909 6.3496313,5.2071705 0 0 1 2.730285,5.205217"
       sodipodi:end="0.16907904"
       sodipodi:start="3.0004289"
       sodipodi:ry="5.2071705"
       sodipodi:rx="6.3496313"
       sodipodi:cy="95.297379"
       sodipodi:cx="72.852295"
       sodipodi:type="arc"
       style="fill:none;fill-opacity:1;stroke:#505050;stroke-width:0.25000003;stroke-miterlimit:4;stroke-dasharray:none;stroke-opacity:1"
       id="path923" />
    <path
       sodipodi:open="true"
       d="m 63.913717,96.238372 a 9.0053396,7.3868241 0 0 1 4.288231,-7.223497 9.0053396,7.3868241 0 0 1 9.789695,0.25994 9.0053396,7.3868241 0 0 1 3.709731,7.435862"
       sodipodi:end="0.18656036"
       sodipodi:start="3.0197502"
       sodipodi:ry="7.3868241"
       sodipodi:rx="9.0053396"
       sodipodi:cy="95.340569"
       sodipodi:cx="72.852295"
       sodipodi:type="arc"
       id="path925"
       style="fill:none;fill-opacity:1;stroke:#505050;stroke-width:0.24999999;stroke-miterlimit:4;stroke-dasharray:none;stroke-opacity:1" />
    <path
       sodipodi:open="true"
       d="m 61.266861,96.606542 a 11.687781,9.5871553 0 0 1 5.460705,-9.431362 11.687781,9.5871553 0 0 1 12.724961,0.253225 11.687781,9.5871553 0 0 1 4.896733,9.637473"
       sodipodi:end="0.18094627"
       sodipodi:start="3.0091569"
       sodipodi:ry="9.5871553"
       sodipodi:rx="11.687781"
       sodipodi:cy="95.340569"
       sodipodi:cx="72.852295"
       sodipodi:type="arc"
       style="fill:none;fill-opacity:1;stroke:#505050;stroke-width:0.24999999;stroke-miterlimit:4;stroke-dasharray:none;stroke-opacity:1"
       id="path927" />
    <circle
       style="fill:#ffffff;fill-opacity:1;stroke:#000000;stroke-width:0.14999999;stroke-miterlimit:4;stroke-dasharray:none;stroke-opacity:1"
       id="path871"
       cx="115.44614"
       cy="104.03496"
       r="0.23386084" />
    <path
       style="fill:none;fill-opacity:1;stroke:#505050;stroke-width:0.24999999;stroke-miterlimit:4;stroke-dasharray:none;stroke-opacity:1"
       id="path908"
       sodipodi:type="arc"
       sodipodi:cx="115.43129"
       sodipodi:cy="103.52598"
       sodipodi:rx="2.6532345"
       sodipodi:ry="2.6507318"
       sodipodi:start="2.9829244"
       sodipodi:end="0.1998363"
       d="m 112.81138,103.9448 a 2.6532345,2.6507318 0 0 1 1.20434,-2.66077 2.6532345,2.6507318 0 0 1 2.9223,0.0601 2.6532345,2.6507318 0 0 1 1.0937,2.70803"
       sodipodi:open="true" />
    <path
       id="circle910"
       style="fill:none;fill-opacity:1;stroke:#505050;stroke-width:0.25000003;stroke-miterlimit:4;stroke-dasharray:none;stroke-opacity:1"
       sodipodi:type="arc"
       sodipodi:cx="115.43129"
       sodipodi:cy="103.76404"
       sodipodi:rx="5.1879573"
       sodipodi:ry="5.2071705"
       sodipodi:start="3.0004289"
       sodipodi:end="0.16907904"
       d="m 110.29494,104.49666 a 5.1879573,5.2071705 0 0 1 2.37465,-5.14069 5.1879573,5.2071705 0 0 1 5.6449,0.07909 5.1879573,5.2071705 0 0 1 2.23078,5.205214"
       sodipodi:open="true" />
    <path
       style="fill:none;fill-opacity:1;stroke:#505050;stroke-width:0.24999999;stroke-miterlimit:4;stroke-dasharray:none;stroke-opacity:1"
       id="circle912"
       sodipodi:type="arc"
       sodipodi:cx="115.43129"
       sodipodi:cy="103.80723"
       sodipodi:rx="7.3578"
       sodipodi:ry="7.3868241"
       sodipodi:start="3.0197502"
       sodipodi:end="0.18656036"
       d="m 108.12804,104.70503 a 7.3578,7.3868241 0 0 1 3.50369,-7.223496 7.3578,7.3868241 0 0 1 7.99866,0.25994 7.3578,7.3868241 0 0 1 3.03103,7.435866"
       sodipodi:open="true" />
  </g>
</svg>
