<?xml version="1.0" encoding="UTF-8" standalone="no"?>
<!-- Created with Inkscape (http://www.inkscape.org/) -->

<svg
   xmlns:dc="http://purl.org/dc/elements/1.1/"
   xmlns:cc="http://creativecommons.org/ns#"
   xmlns:rdf="http://www.w3.org/1999/02/22-rdf-syntax-ns#"
   xmlns:svg="http://www.w3.org/2000/svg"
   xmlns="http://www.w3.org/2000/svg"
   xmlns:sodipodi="http://sodipodi.sourceforge.net/DTD/sodipodi-0.dtd"
   xmlns:inkscape="http://www.inkscape.org/namespaces/inkscape"
   inkscape:version="0.91 r13725"
   version="1.1"
   id="svg2"
   viewBox="0 0 744.09448819 1052.3622047"
   height="297mm"
   width="210mm"
   sodipodi:docname="boatdisturbance.svg">
  <sodipodi:namedview
     inkscape:window-maximized="0"
     inkscape:window-y="34"
     inkscape:window-x="12"
     inkscape:window-height="854"
     inkscape:window-width="1416"
     inkscape:snap-object-midpoints="true"
     showgrid="false"
     inkscape:current-layer="svg2"
     inkscape:document-units="px"
     inkscape:cy="538.3804"
     inkscape:cx="514.28882"
     inkscape:zoom="0.70710678"
     inkscape:pageshadow="2"
     inkscape:pageopacity="0.0"
     borderopacity="1.0"
     bordercolor="#666666"
     pagecolor="#ffffff"
     id="base"
     inkscape:snap-midpoints="true" />
  <defs
     id="defs4">
    <marker
       inkscape:isstock="true"
       style="overflow:visible;"
       id="marker5638"
       refX="0.0"
       refY="0.0"
       orient="auto"
       inkscape:stockid="Arrow1Mend">
      <path
         transform="scale(0.4) rotate(180) translate(10,0)"
         style="fill-rule:evenodd;stroke:#000000;stroke-width:1pt;stroke-opacity:1;fill:#000000;fill-opacity:1"
         d="M 0.0,0.0 L 5.0,-5.0 L -12.5,0.0 L 5.0,5.0 L 0.0,0.0 z "
         id="path5640" />
    </marker>
    <marker
       inkscape:stockid="Arrow1Mend"
       orient="auto"
       refY="0.0"
       refX="0.0"
       id="marker5572"
       style="overflow:visible;"
       inkscape:isstock="true">
      <path
         id="path5574"
         d="M 0.0,0.0 L 5.0,-5.0 L -12.5,0.0 L 5.0,5.0 L 0.0,0.0 z "
         style="fill-rule:evenodd;stroke:#000000;stroke-width:1pt;stroke-opacity:1;fill:#000000;fill-opacity:1"
         transform="scale(0.4) rotate(180) translate(10,0)" />
    </marker>
    <marker
       inkscape:isstock="true"
       style="overflow:visible;"
       id="marker4824"
       refX="0.0"
       refY="0.0"
       orient="auto"
       inkscape:stockid="Arrow1Mend">
      <path
         transform="scale(0.4) rotate(180) translate(10,0)"
         style="fill-rule:evenodd;stroke:#000000;stroke-width:1pt;stroke-opacity:1;fill:#000000;fill-opacity:1"
         d="M 0.0,0.0 L 5.0,-5.0 L -12.5,0.0 L 5.0,5.0 L 0.0,0.0 z "
         id="path4826" />
    </marker>
    <marker
       inkscape:collect="always"
       inkscape:isstock="true"
       style="overflow:visible;"
       id="marker4588"
       refX="0.0"
       refY="0.0"
       orient="auto"
       inkscape:stockid="Arrow1Mend">
      <path
         transform="scale(0.4) rotate(180) translate(10,0)"
         style="fill-rule:evenodd;stroke:#000000;stroke-width:1pt;stroke-opacity:1;fill:#000000;fill-opacity:1"
         d="M 0.0,0.0 L 5.0,-5.0 L -12.5,0.0 L 5.0,5.0 L 0.0,0.0 z "
         id="path4590" />
    </marker>
    <marker
       inkscape:collect="always"
       inkscape:stockid="Arrow1Mend"
       orient="auto"
       refY="0.0"
       refX="0.0"
       id="marker4540"
       style="overflow:visible;"
       inkscape:isstock="true">
      <path
         id="path4542"
         d="M 0.0,0.0 L 5.0,-5.0 L -12.5,0.0 L 5.0,5.0 L 0.0,0.0 z "
         style="fill-rule:evenodd;stroke:#000000;stroke-width:1pt;stroke-opacity:1;fill:#000000;fill-opacity:1"
         transform="scale(0.4) rotate(180) translate(10,0)" />
    </marker>
    <marker
       inkscape:stockid="Arrow1Mend"
       orient="auto"
       refY="0.0"
       refX="0.0"
       id="marker4498"
       style="overflow:visible;"
       inkscape:isstock="true">
      <path
         id="path4500"
         d="M 0.0,0.0 L 5.0,-5.0 L -12.5,0.0 L 5.0,5.0 L 0.0,0.0 z "
         style="fill-rule:evenodd;stroke:#000000;stroke-width:1pt;stroke-opacity:1;fill:#000000;fill-opacity:1"
         transform="scale(0.4) rotate(180) translate(10,0)" />
    </marker>
    <marker
       inkscape:collect="always"
       inkscape:isstock="true"
       style="overflow:visible;"
       id="Arrow1Mend"
       refX="0.0"
       refY="0.0"
       orient="auto"
       inkscape:stockid="Arrow1Mend">
      <path
         transform="scale(0.4) rotate(180) translate(10,0)"
         style="fill-rule:evenodd;stroke:#000000;stroke-width:1pt;stroke-opacity:1;fill:#000000;fill-opacity:1"
         d="M 0.0,0.0 L 5.0,-5.0 L -12.5,0.0 L 5.0,5.0 L 0.0,0.0 z "
         id="path4197" />
    </marker>
    <marker
       inkscape:isstock="true"
       style="overflow:visible;"
       id="Arrow1Lend"
       refX="0.0"
       refY="0.0"
       orient="auto"
       inkscape:stockid="Arrow1Lend">
      <path
         transform="scale(0.8) rotate(180) translate(12.5,0)"
         style="fill-rule:evenodd;stroke:#000000;stroke-width:1pt;stroke-opacity:1;fill:#000000;fill-opacity:1"
         d="M 0.0,0.0 L 5.0,-5.0 L -12.5,0.0 L 5.0,5.0 L 0.0,0.0 z "
         id="path4191" />
    </marker>
  </defs>
  <metadata
     id="metadata7">
    <rdf:RDF>
      <cc:Work
         rdf:about="">
        <dc:format>image/svg+xml</dc:format>
        <dc:type
           rdf:resource="http://purl.org/dc/dcmitype/StillImage" />
        <dc:title></dc:title>
      </cc:Work>
    </rdf:RDF>
  </metadata>
  <g
     id="layer1"
     inkscape:groupmode="layer"
     inkscape:label="Layer 1" />
  <g
     id="g7319"
     transform="translate(-29.698483,-65.053818)">
    <g
       transform="translate(-33.941126,-62.225401)"
       id="g7280">
      <path
         inkscape:connector-curvature="0"
         id="path6236"
         d="m 191,586.36221 c 0,-3 0,-6 0,-9 0,-0.66667 0.29814,-1.40372 0,-2 -0.14907,-0.29815 -0.7643,0.2357 -1,0 -0.5,-0.5 0.5,-2.5 0,-3 -0.2357,-0.23571 -0.7643,0.2357 -1,0 -0.2357,-0.23571 0.14907,-0.70186 0,-1 -0.21082,-0.42164 -0.66667,-0.66667 -1,-1 0,-0.66667 0.21082,-1.36755 0,-2 -0.29814,-0.89443 -1.57836,-1.15673 -2,-2 -0.29814,-0.59629 0.29814,-1.40372 0,-2 -0.13276,-0.26551 -2.73449,-2.86725 -3,-3 -0.29814,-0.14907 -0.70186,0.14907 -1,0 -0.42164,-0.21082 -0.57836,-0.78918 -1,-1 -0.59629,-0.29815 -1.40372,0.29814 -2,0 -0.42164,-0.21082 -0.57836,-0.78918 -1,-1 -0.60722,-0.30361 -5.39278,0.30361 -6,0 -0.42164,-0.21082 -0.55279,-0.85093 -1,-1 -0.51189,-0.17063 -5.28509,0 -6,0 -0.33333,0 -0.70186,0.14907 -1,0 -0.42164,-0.21082 -0.57836,-0.78918 -1,-1 -0.62852,-0.31426 -3.37148,0.31426 -4,0 -0.42164,-0.21082 -0.57836,-0.78918 -1,-1 -0.8,-0.4 -2.2,0.4 -3,0 -0.42164,-0.21082 -0.57836,-0.78918 -1,-1 -0.59629,-0.29815 -1.5286,0.4714 -2,0 -0.2357,-0.23571 0.2357,-0.7643 0,-1 -0.47141,-0.47141 -1.5286,0.4714 -2,0 -0.2357,-0.23571 0.2357,-0.7643 0,-1 -2.06904,-2.06904 0.0809,3.16176 -2,-1 -0.14907,-0.29815 0.2357,-0.7643 0,-1 -0.2357,-0.23571 -0.70186,0.14907 -1,0 -0.46308,-0.23154 -3.41186,-3.41186 -4,-4 -0.33333,-0.33334 -0.57836,-0.78918 -1,-1 -0.29814,-0.14907 -0.7643,0.2357 -1,0 -0.2357,-0.23571 0.2357,-0.7643 0,-1 -0.2357,-0.23571 -0.7643,0.2357 -1,0 -0.66667,-0.66667 0.66667,-1.33334 0,-2 -0.2357,-0.23571 -0.7643,0.2357 -1,0 -0.2357,-0.23571 0.2357,-0.7643 0,-1 -0.2357,-0.23571 -0.7643,0.2357 -1,0 -0.2357,-0.23571 0.14907,-0.70186 0,-1 -0.42164,-0.84328 -1.57836,-1.15673 -2,-2 -0.14907,-0.29815 0.14907,-0.70186 0,-1 -0.21082,-0.42164 -0.78918,-0.57837 -1,-1 -0.14907,-0.29815 0.2357,-0.7643 0,-1 -0.2357,-0.23571 -0.7643,0.2357 -1,0 -0.5,-0.5 0.5,-2.5 0,-3 -0.2357,-0.23571 -0.7643,0.2357 -1,0 -0.2357,-0.23571 0.10541,-0.68378 0,-1 -0.2357,-0.70711 -0.58655,-1.37983 -1,-2 -0.26149,-0.39224 -0.85093,-0.55279 -1,-1 -0.21082,-0.63246 0.21082,-1.36755 0,-2 -0.14907,-0.44722 -0.85093,-0.55279 -1,-1 -0.21082,-0.63246 0.21082,-1.36755 0,-2 -0.14907,-0.44722 -0.73851,-0.60777 -1,-1 -0.33333,-0.66667 -0.66667,-1.33334 -1,-2 0,-0.33334 0.14907,-0.70186 0,-1 -0.21082,-0.42164 -0.78918,-0.57837 -1,-1 -0.29814,-0.59629 0.21082,-1.36755 0,-2 -0.2357,-0.70711 -0.7643,-1.2929 -1,-2 -0.10541,-0.31623 0.2357,-0.7643 0,-1 -0.2357,-0.23571 -0.85093,0.29814 -1,0 -0.59629,-1.19257 0.42164,-2.73509 0,-4 -0.14907,-0.44722 -0.78918,-0.57837 -1,-1 -0.53241,-1.06482 0.53241,-0.93518 0,-2 -0.21082,-0.42164 -0.78918,-0.57837 -1,-1 -0.27124,-0.54249 0.27362,-3.72638 0,-4 -0.2357,-0.23571 -0.7643,0.2357 -1,0 -0.2357,-0.23571 0,-0.66667 0,-1 0,-0.33334 0,-0.66667 0,-1 0,-4 0,-8 0,-12 0,-4 0,-8 0,-12 0,-0.79796 -0.19998,-4.40006 0,-5 0.4714,-1.41422 1.52859,-2.58579 2,-4 0.10541,-0.31623 -0.14907,-0.70186 0,-1 0.21082,-0.42164 0.78918,-0.57837 1,-1 0.31426,-0.62852 -0.31426,-3.37148 0,-4 0.21082,-0.42164 0.78918,-0.57837 1,-1 0.31426,-0.62852 -0.31426,-3.37148 0,-4 0.21082,-0.42164 0.78918,-0.57837 1,-1 0.14907,-0.29815 0,-0.66667 0,-1 0,-0.33334 0,-0.66667 0,-1 0,-1.66667 0,-3.33334 0,-5 0,-5 0,-10 0,-15 0,-2.66667 0,-5.33334 0,-8 0,-0.23763 0.11206,-3.77587 0,-4 -0.21082,-0.42164 -0.78918,-0.57837 -1,-1 -0.29814,-0.59629 0.4714,-1.5286 0,-2 -0.2357,-0.2357 -0.7643,0.2357 -1,0 -2.5259,-2.52591 -0.38426,-1.15279 -1,-3 -0.2357,-0.70711 -0.7643,-1.2929 -1,-2 -0.10541,-0.31623 0.10541,-0.68377 0,-1 -0.2357,-0.70711 -0.7643,-1.2929 -1,-2 -0.12971,-0.38913 0.15519,-2.84482 0,-3 -0.2357,-0.2357 -0.85093,0.29814 -1,0 -0.32348,-0.64695 0.35921,-3.64079 0,-4 -0.2357,-0.2357 -0.85093,0.29814 -1,0 -0.89443,-0.78886 0.44721,-2.10558 0,-3 -1.52478,-3.04956 -0.79276,1.82894 -2,-3 -0.16169,-0.64676 0.16169,-1.35324 0,-2 -0.18078,-0.7231 -0.81923,-1.2769 -1,-2 -0.008,-0.0334 0.005,-2.99469 0,-3 -0.2357,-0.2357 -0.85093,0.29814 -1,0 -0.29814,-0.59629 0,-1.33334 0,-2 0,-0.33334 0.2357,-0.7643 0,-1 -2.06904,-2.06904 0.0809,3.16176 -2,-1 -0.1353,-0.27061 0,-5.56925 0,-6 0,-3.66667 0,-7.33334 0,-11 0,-2.66667 0,-5.33334 0,-8 0,-0.45036 0.15217,-2.69567 0,-3 -0.21082,-0.42164 -0.78918,-0.57837 -1,-1 -0.12928,-0.25855 0,-5.2912 0,-6 0,-4.66667 0,-9.33334 0,-14 0,-6 0,-12 0,-18 0,-1.33334 0,-2.66667 0,-4 0,-0.66667 0,-1.33334 0,-2 0,-0.33334 -0.14907,-0.70186 0,-1 0.42164,-0.84328 1.57836,-1.15673 2,-2 0.14907,-0.29814 -0.14907,-0.70186 0,-1 0.21082,-0.42164 0.78918,-0.57837 1,-1 0.14907,-0.29814 -0.2357,-0.7643 0,-1 0.2357,-0.2357 0.7643,0.2357 1,0 0.2357,-0.2357 -0.14907,-0.70186 0,-1 0.42164,-0.84328 1.57836,-1.15673 2,-2 0.14907,-0.29814 -0.14907,-0.70186 0,-1 0.42164,-0.84328 1.57836,-1.15673 2,-2 0.14907,-0.29814 -0.14907,-0.70186 0,-1 0.42164,-0.84328 1.57836,-1.15673 2,-2 0.14907,-0.29814 -0.2357,-0.7643 0,-1 0.2357,-0.2357 0.70186,0.14907 1,0 4.16176,-2.08088 -1.06904,0.069 1,-2 0.2357,-0.2357 0.7643,0.2357 1,0 0.2357,-0.2357 -0.14907,-0.70186 0,-1 0.26704,-0.53409 2.47354,-2.47354 3,-3 0.52646,-0.52647 2.46592,-2.73296 3,-3 0.29814,-0.14907 0.7643,0.2357 1,0 0.2357,-0.2357 -0.14907,-0.70186 0,-1 2.08088,-4.16176 -0.069,1.06903 2,-1 0.2357,-0.2357 -0.2357,-0.7643 0,-1 0.2357,-0.2357 0.70186,0.14907 1,0 0.42164,-0.21082 0.57836,-0.78918 1,-1 0.29814,-0.14907 0.7643,0.2357 1,0 0.2357,-0.2357 -0.2357,-0.7643 0,-1 0.2357,-0.2357 0.7643,0.2357 1,0 0.2357,-0.2357 -0.2357,-0.7643 0,-1 0.20444,-0.20444 2.60351,0.19824 3,0 0.42164,-0.21082 0.66667,-0.66667 1,-1 0.33333,-0.33334 0.66667,-0.66667 1,-1 3.31658,-3.31658 -0.94281,0.4714 2,-1 0.84327,-0.42164 1.15673,-1.57836 2,-2 0.59628,-0.29814 1.40371,0.29814 2,0 0.84327,-0.42164 1.10557,-1.70186 2,-2 0.63245,-0.21082 1.33333,0 2,0 0.33333,0 0.70186,0.14907 1,0 0.84327,-0.42164 1.15673,-1.57836 2,-2 0.59628,-0.29814 1.40371,0.29814 2,0 0.84327,-0.42164 1.10557,-1.70186 2,-2 0.63245,-0.21082 1.36754,0.21082 2,0 0.44721,-0.14907 0.55279,-0.85093 1,-1 0.63245,-0.21082 1.36754,0.21082 2,0 0.44721,-0.14907 0.57836,-0.78918 1,-1 0.94281,-0.47141 2.05719,-0.5286 3,-1 0.42164,-0.21082 0.57836,-0.78918 1,-1 0.94281,-0.47141 2,-0.66667 3,-1 1,-0.66667 1.92503,-1.46252 3,-2 0.94281,-0.47141 2.25464,-0.25465 3,-1 0.74536,-0.74536 0.17689,-2.34152 1,-3 1.89494,-1.51595 5.05864,-0.54398 7,-2 0.59628,-0.44722 0.36086,-1.61652 1,-2 1.17851,-0.70711 2.73676,-0.45861 4,-1 7.0049,-3.0021 -0.37615,-0.77431 5,-4 0.90388,-0.54233 2.05719,-0.5286 3,-1 0.42164,-0.21082 0.66667,-0.66667 1,-1 1,-0.33334 2.0213,-0.60852 3,-1 0.69204,-0.27682 1.37983,-0.58655 2,-1 0.39223,-0.26149 0.55279,-0.85093 1,-1 0.63245,-0.21082 1.35324,0.16169 2,0 0.7231,-0.18078 1.29289,-0.7643 2,-1 0.31623,-0.10541 0.70186,0.14907 1,0 0.42164,-0.21082 0.60777,-0.73851 1,-1 0.50359,-2.20317 2.05719,-0.5286 3,-1 0.42164,-0.21082 0.60777,-0.73851 1,-1 1.24035,-0.8269 2.75965,-1.1731 4,-2 0.78446,-0.52298 1.10557,-1.70186 2,-2 0.63245,-0.21082 1.36754,0.21082 2,0 0.89443,-0.29814 1.15672,-1.57836 2,-2 0.94281,-0.47141 2.05719,-0.5286 3,-1 0.42164,-0.21082 0.57836,-0.78918 1,-1 0.29814,-0.14907 0.66667,0 1,0 1,-0.33334 2.05719,-0.5286 3,-1 0.84327,-0.42164 1.15672,-1.57836 2,-2 0.94281,-0.47141 2.12294,-0.4153 3,-1 0.27735,-0.1849 -0.27735,-0.8151 0,-1 0.87706,-0.58471 2.05719,-0.5286 3,-1 0.42164,-0.21082 0.57836,-0.78918 1,-1 3.25245,-1.62623 2.37868,-0.25245 5,-2 0.78446,-0.52298 1.15672,-1.57836 2,-2 0.29814,-0.14907 0.70186,0.14907 1,0 0.84327,-0.42164 1.15672,-1.57836 2,-2 0.29814,-0.14907 0.70186,0.14907 1,0 4.16176,-2.08088 -1.06904,0.069 1,-2 0.2357,-0.2357 0.7643,0.2357 1,0 0.4714,-0.47141 -0.47141,-1.5286 0,-2 0.2357,-0.2357 0.7643,0.2357 1,0 0.2357,-0.2357 -0.2357,-0.7643 0,-1 0.2357,-0.2357 0.7643,0.2357 1,0 0.2357,-0.2357 -0.14907,-0.70186 0,-1 0.21082,-0.42164 0.78918,-0.57836 1,-1 0.14907,-0.29814 -0.2357,-0.7643 0,-1 0.2357,-0.2357 0.7643,0.2357 1,0 0.2357,-0.2357 -0.2357,-0.7643 0,-1 0.2357,-0.2357 0.7643,0.2357 1,0 0.2357,-0.2357 -0.2357,-0.7643 0,-1 0.2357,-0.2357 0.70186,0.14907 1,0 0.84327,-0.42164 1.15672,-1.57836 2,-2 0.29814,-0.14907 0.7643,0.2357 1,0 0.2357,-0.2357 -0.2357,-0.7643 0,-1 0.2357,-0.2357 0.7643,0.2357 1,0 0.2357,-0.2357 -0.2357,-0.7643 0,-1 0.66436,-0.66436 1.33564,0.66436 2,0 0.2357,-0.2357 -0.2357,-0.7643 0,-1 0.2357,-0.2357 0.7643,0.2357 1,0 0.2357,-0.2357 -0.2357,-0.7643 0,-1 0.4714,-0.47141 1.52859,0.4714 2,0 0.2357,-0.2357 -0.2357,-0.7643 0,-1 0.2357,-0.2357 0.70186,0.14907 1,0 2.11862,-1.05931 -0.11862,-0.94069 2,-2 0.29814,-0.14907 0.7643,0.2357 1,0 0.2357,-0.2357 0,-0.66667 0,-1 0.33333,-0.33333 0.60777,-0.73851 1,-1 0.62017,-0.41345 1.37983,-0.58655 2,-1 0.39223,-0.26149 0.66667,-0.66667 1,-1 0.66667,-0.66667 1.21553,-1.47703 2,-2 0.27735,-0.1849 0.7643,0.2357 1,0 0.52705,-0.52705 0.37983,-1.58655 1,-2 0.5547,-0.3698 1.4453,0.3698 2,0 0.62017,-0.41345 0.58655,-1.37983 1,-2 -0.0998,-1.98106 1.47295,-0.47296 2,-1 2.06903,-2.06904 -3.16176,0.0809 1,-2 0.29814,-0.14907 0.70186,0.14907 1,0 0.42164,-0.21082 0.57836,-0.78918 1,-1 0.29814,-0.14907 0.70186,0.14907 1,0 2.11862,-1.05931 -0.11862,-0.94069 2,-2 0.29814,-0.14907 0.66667,0 1,0 0.66667,-0.33333 1.37983,-0.58655 2,-1 0.39223,-0.26149 0.57836,-0.78918 1,-1 0.94281,-0.47141 2.0213,-0.60852 3,-1 0.69204,-0.27682 1.29289,-0.7643 2,-1 0.31623,-0.10541 0.68377,0.10541 1,0 0.70711,-0.2357 1.37982,-0.58655 2,-1 0.39223,-0.26149 0.55279,-0.85093 1,-1 0.63245,-0.21082 1.36754,0.21082 2,0 0.44721,-0.14907 0.57836,-0.78918 1,-1 0.29814,-0.14907 0.70186,0.14907 1,0 0.42164,-0.21082 0.57836,-0.78918 1,-1 0.62852,-0.31426 3.37148,0.31426 4,0 0.42164,-0.21082 0.55279,-0.85093 1,-1 0.3667,-0.12223 5.82843,0 6,0 0.33333,0 0.68377,0.10541 1,0 0.70711,-0.2357 1.29289,-0.7643 2,-1 0.57927,-0.19309 3.13341,0 4,0 1,0 2,0 3,0 1,0 2.05132,0.31623 3,0 0.31623,-0.10541 -0.31623,-0.89459 0,-1 0.94868,-0.31623 2,0 3,0 0.66667,0 1.33333,0 2,0 3.33333,0 6.66667,0 10,0 5,0 10,0 15,0 0.24253,0 2.96784,-0.0322 3,0 0.2357,0.2357 -0.2357,0.7643 0,1 0.4714,0.4714 1.40371,-0.29814 2,0 0.42164,0.21082 0.57836,0.78918 1,1 0.59628,0.29814 1.36754,-0.21082 2,0 0.70711,0.2357 1.29289,0.7643 2,1 0.31623,0.10541 0.70186,-0.14907 1,0 0.42164,0.21082 0.57836,0.78918 1,1 0.29814,0.14907 0.66667,0 1,0 0.66667,0 1.36754,-0.21082 2,0 0.44721,0.14907 0.57836,0.78918 1,1 0.66362,0.33181 5.03012,-0.32329 6,0 0.70711,0.2357 1.29289,0.7643 2,1 1.06261,0.3542 2.93739,-0.35421 4,0 0.70711,0.2357 1.2769,0.81922 2,1 0.64676,0.16169 1.33333,0 2,0 2,0 4,0 6,0 0.66666,0 1.34628,-0.13075 2,0 1.03362,0.20672 1.96638,0.79327 3,1 0.98058,0.19611 2.05131,-0.31623 3,0 0.7071,0.2357 1.29289,0.7643 2,1 0.9,0.3 2.1,-0.3 3,0 0.44721,0.14907 0.57836,0.78918 1,1 0.29814,0.14907 0.66666,0 1,0 0.66666,0 1.36754,-0.21082 2,0 0.44721,0.14907 0.57836,0.78918 1,1 0.29814,0.14907 0.70186,-0.14907 1,0 0.42164,0.21082 0.55278,0.85093 1,1 0.63245,0.21082 1.36754,-0.21082 2,0 0.44721,0.14907 0.57836,0.78918 1,1 0.29814,0.14907 0.68377,-0.10541 1,0 0.7071,0.2357 1.29289,0.7643 2,1 0.31623,0.10541 0.70186,-0.14907 1,0 0.42164,0.21082 0.55278,0.85093 1,1 0.63245,0.21082 1.36754,-0.21082 2,0 0.44721,0.14907 0.57836,0.78918 1,1 0.62852,0.31426 3.37148,-0.31426 4,0 0.42164,0.21082 0.57836,0.78918 1,1 0.59628,0.29814 1.36754,-0.21082 2,0 0.7071,0.2357 1.29289,0.7643 2,1 0.31623,0.10541 0.68377,-0.10541 1,0 0.7071,0.2357 1.29289,0.7643 2,1 0.94868,0.31623 2.05131,-0.31623 3,0 0.44721,0.14907 0.55278,0.85093 1,1 0.63245,0.21082 1.34628,-0.13075 2,0 1.03362,0.20672 1.96638,0.79327 3,1 1.6343,0.32686 3.35601,-0.274 5,0 2.0795,0.34658 3.9205,1.65341 6,2 1.64399,0.274 3.3657,-0.32686 5,0 1.03362,0.20672 1.96638,0.79327 3,1 0.0385,0.008 2.9951,-0.005 3,0 0.2357,0.2357 -0.29814,0.85093 0,1 0.62852,0.31426 3.37148,-0.31426 4,0 0.42163,0.21082 0.57836,0.78918 1,1 0.29814,0.14907 0.67662,-0.0808 1,0 1.02262,0.25565 1.97738,0.74434 3,1 2,0.5 0,-1 3,0 0.44721,0.14907 0.55278,0.85093 1,1 0.9,0.3 2.1,-0.3 3,0 0.7071,0.2357 1.29289,0.7643 2,1 0.84193,0.28064 4.40463,-0.29768 5,0 0.42163,0.21082 0.57836,0.78918 1,1 0.29814,0.14907 0.66666,0 1,0 0.66666,0 1.33333,0 2,0 1.66666,0 3.33333,0 5,0 6,0 12,0 18,0 8.66666,0 17.33333,0 26,0 2.33333,0 4.66666,0 7,0 1.03826,0 3.15339,-0.21165 4,0 1.30098,0.32524 3.75858,1.17238 5,2 0.39223,0.26149 0.60777,0.73851 1,1 0.62017,0.41345 1.37982,0.58655 2,1 0.39223,0.26149 0.60777,0.73851 1,1 0.62017,0.41345 1.47295,0.47295 2,1 0.52704,0.52704 0.47295,1.47295 1,2 0.2357,0.2357 0.68377,-0.10541 1,0 0.7071,0.2357 1.47295,0.47295 2,1 2.06903,2.06903 -3.16176,-0.0809 1,2 0.29814,0.14907 0.70186,-0.14907 1,0 0.42163,0.21082 0.57836,0.78918 1,1 0.29814,0.14907 0.70186,-0.14907 1,0 1.69431,0.84715 2.04692,3.57039 3,5 0.52297,0.78446 1.57836,1.15672 2,2 0.14907,0.29814 -0.14907,0.70186 0,1 2.08088,4.16176 -0.069,-1.06904 2,1 0.2357,0.2357 -0.2357,0.7643 0,1 0.2357,0.2357 0.7643,-0.2357 1,0 0.2357,0.2357 -0.14907,0.70186 0,1 0.21082,0.42164 0.78918,0.57836 1,1 0.14907,0.29814 -0.2357,0.7643 0,1 0.2357,0.2357 0.7643,-0.2357 1,0 0.2357,0.2357 -0.2357,0.7643 0,1 0.2357,0.2357 0.85093,-0.29814 1,0 1,2 -0.5,1.5 0,3 0.33333,0.66666 0.66666,1.33333 1,2 0,0.33333 -0.10541,0.68377 0,1 0.2357,0.7071 0.81922,1.2769 1,2 0.16169,0.64676 -0.16169,1.35324 0,2 0.18077,0.7231 0.7643,1.29289 1,2 0.21597,0.64791 0,4.1813 0,5 0,0.33333 -0.2357,0.7643 0,1 0.2357,0.2357 0.7643,-0.2357 1,0 0.2357,0.2357 0,0.66666 0,1 0,0.33333 0,0.66666 0,1 0,2 0,4 0,6 0,0.66666 -0.16169,1.35324 0,2 0.18077,0.7231 0.72318,1.30795 1,2 0.39148,0.9787 0.74434,1.97738 1,3 0.22597,0.9039 0,4.82471 0,6 0,4.33333 0,8.66666 0,13 0,4.33333 0,8.66666 0,13 0,0.84839 -0.16587,5.33653 0,6 0.18077,0.7231 0.7643,1.29289 1,2 0.10541,0.31623 0,0.66666 0,1 0,2 0,4 0,6 0,0.66666 -0.16169,1.35324 0,2 0.18077,0.7231 0.7643,1.29289 1,2 0.21755,0.65266 0,4.80439 0,6 0,4.33333 0,8.66666 0,13 0,2.66666 0,5.33333 0,8 0,0.23763 0.11206,3.77587 0,4 -0.21082,0.42163 -0.78918,0.57836 -1,1 -0.14907,0.29814 0.14907,0.70186 0,1 -0.21082,0.42163 -0.73851,0.60777 -1,1 -3.62529,7.25058 1.05409,-1.58114 -2,3 -0.41345,0.62017 -0.47296,1.47295 -1,2 -0.2357,0.2357 -0.7643,-0.2357 -1,0 -0.0641,0.0641 -1.87582,3.81373 -2,4 -0.26149,0.39223 -0.78918,0.57836 -1,1 -0.14907,0.29814 0.2357,0.7643 0,1 -0.84984,0.84983 -2.27889,1.03852 -3,2 -0.4,0.53333 0.21082,1.36754 0,2 -0.14907,0.44721 -0.73851,0.60777 -1,1 -0.41345,0.62017 -0.58655,1.37982 -1,2 -0.98098,1.47147 -3.01902,2.52852 -4,4 -0.12418,0.18627 -1.93592,3.93592 -2,4 -0.52705,0.52704 -1.47296,0.47295 -2,1 -2.4288,2.4288 0.29736,1.46842 -2,3 -0.62018,0.41345 -1.37983,0.58655 -2,1 -0.8629,0.57526 -2.21892,2.21891 -3,3 -0.33334,0.33333 -0.57837,0.78918 -1,1 -0.29814,0.14907 -0.7643,-0.2357 -1,0 -0.52705,0.52704 -0.47296,1.47295 -1,2 -0.2357,0.2357 -0.7643,-0.2357 -1,0 -0.2357,0.2357 0.2357,0.7643 0,1 -0.2357,0.2357 -0.70186,-0.14907 -1,0 -0.42164,0.21082 -0.57837,0.78918 -1,1 -0.29814,0.14907 -0.7643,-0.2357 -1,0 -0.47141,0.4714 0.4714,1.52859 0,2 -0.2357,0.2357 -0.7643,-0.2357 -1,0 -2.06904,2.06903 3.16176,-0.0809 -1,2 -0.29814,0.14907 -0.85093,-0.29814 -1,0 -0.29814,0.59628 0.21082,1.36754 0,2 -0.14907,0.44721 -0.78918,0.57836 -1,1 -0.14907,0.29814 0.14907,0.70186 0,1 -2.28831,4.5766 0.41447,-4.24342 -2,3 -0.10541,0.31623 0,0.66666 0,1 -0.33334,0.33333 -0.78918,0.57836 -1,1 -0.14907,0.29814 0.14907,0.70186 0,1 -0.21082,0.42163 -0.78918,0.57836 -1,1 -0.13147,0.26294 0,3.47708 0,4 0,0.66666 0,1.33333 0,2 0,0.33333 0.14907,0.70186 0,1 -0.21082,0.42163 -0.85093,0.55278 -1,1 -0.31623,0.94868 0,2 0,3 0,2 0,4 0,6 0,0.66666 0.29814,1.40371 0,2 -0.14907,0.29814 -0.7643,-0.2357 -1,0 -0.2357,0.2357 0,0.66666 0,1 0,0.66666 0,1.33333 0,2 0,5 0,10 0,15 0,5 0,10 0,15 0,1.02095 -0.16195,6.51417 0,7 0.14907,0.44721 0.78918,0.57836 1,1 0.53241,1.06482 -0.53241,0.93518 0,2 0.21082,0.42163 0.78918,0.57836 1,1 0.4,0.8 -0.4,2.2 0,3 0.21082,0.42163 0.78918,0.57836 1,1 0.18081,0.36163 0,4.30446 0,5 0,3.66666 0,7.33333 0,11 0,6.66666 0,13.33333 0,20 0,2 0,4 0,6 0,0.66666 0,1.33333 0,2 0,0.66666 0.21082,1.36754 0,2 -0.14907,0.44721 -0.88567,0.54267 -1,1 -0.24254,0.97014 0.24253,2.02985 0,3 -0.11433,0.45733 -0.73851,0.60776 -1,1 -0.41345,0.62017 -0.81923,1.2769 -1,2 -0.16169,0.64676 0.16169,1.35324 0,2 -0.40361,1.61442 -0.98348,1.98348 -2,3 -0.33334,0.33333 -0.85093,0.55278 -1,1 -0.21082,0.63245 0.21082,1.36754 0,2 -0.29814,0.89442 -1.47703,1.21553 -2,2 -0.41345,0.62017 -0.58655,1.37982 -1,2 -0.98098,1.47147 -3.01902,2.52852 -4,4 -0.97152,1.45728 -0.6243,2.08286 -2,3 -0.62018,0.41345 -1.47296,0.47295 -2,1 -0.52705,0.52704 -0.58655,1.37982 -1,2 -0.98098,1.47147 -3.01902,2.52852 -4,4 -0.41345,0.62017 -0.37983,1.58655 -1,2 -0.5547,0.3698 -1.5286,-0.47141 -2,0 -0.47141,0.4714 0.29814,1.40371 0,2 -0.14907,0.29814 -0.7643,-0.23571 -1,0 -0.52705,0.52704 -0.47296,1.47295 -1,2 -0.2357,0.2357 -0.66667,0 -1,0 -0.33334,0.33333 -0.73851,0.60776 -1,1 -0.41345,0.62017 -0.47296,1.47295 -1,2 -0.2357,0.2357 -0.70186,-0.14907 -1,0 -0.42164,0.21082 -0.57837,0.78918 -1,1 -0.29814,0.14907 -0.72265,-0.1849 -1,0 -0.78447,0.52297 -1.21554,1.47702 -2,2 -0.27735,0.1849 -0.7643,-0.23571 -1,0 -0.52705,0.52704 -0.37983,1.58655 -1,2 -0.5547,0.3698 -1.4453,-0.3698 -2,0 -0.62018,0.41345 -0.37983,1.58655 -1,2 -0.5547,0.3698 -1.33334,0 -2,0 -0.33334,0.66666 -0.47296,1.47295 -1,2 -3.90274,3.90273 -0.53705,-0.23148 -3,1 -1.07497,0.53748 -1.92503,1.46251 -3,2 -0.29814,0.14907 -0.70186,-0.14907 -1,0 -0.42164,0.21082 -0.55279,0.85093 -1,1 -4.55229,0 -0.0572,-0.47141 -3,1 -0.29814,0.14907 -0.72265,-0.1849 -1,0 -0.78447,0.52297 -1.21554,1.47702 -2,2 -0.27735,0.1849 -0.68377,-0.10541 -1,0 -0.70711,0.2357 -1.2929,0.76429 -2,1 -0.31623,0.10541 -0.68377,-0.10541 -1,0 -0.70711,0.2357 -1.37983,0.58655 -2,1 -0.39223,0.26148 -0.55279,0.85093 -1,1 -0.63246,0.21082 -1.36755,-0.21082 -2,0 -0.44722,0.14907 -0.55279,0.85093 -1,1 -0.63246,0.21082 -1.36755,-0.21082 -2,0 -0.44722,0.14907 -0.57837,0.78918 -1,1 -0.29814,0.14907 -0.66667,0 -1,0 -0.33334,0.33333 -0.57837,0.78918 -1,1 -0.8,0.4 -2.2,-0.4 -3,0 -0.29814,0.14907 0.2357,0.76429 0,1 -0.2357,0.2357 -0.66667,0 -1,0 -1,0 -2,0 -3,0 -0.65711,0 -2.4358,-0.18807 -3,0 -0.70711,0.2357 -1.2929,0.76429 -2,1 -0.93279,0.31093 -4.07576,-0.30808 -5,0 -0.44722,0.14907 -0.57837,0.78918 -1,1 -0.66273,0.33136 -3.16188,-0.27938 -4,0 -0.70711,0.2357 -1.2929,0.76429 -2,1 -0.9,0.3 -2.1,-0.3 -3,0 -0.44722,0.14907 -0.55279,0.85093 -1,1 -1.5,0.5 -3.5,-0.5 -5,0 -0.44722,0.14907 -0.55279,0.85093 -1,1 -0.6247,0.20823 -7.46237,0 -8,0 -0.33334,0 -0.68377,-0.10541 -1,0 -0.70711,0.2357 -1.2769,0.81922 -2,1 -0.64676,0.16169 -1.33334,0 -2,0 -1.05065,0 -4.00765,-0.19847 -5,0 -1.03362,0.20672 -1.96638,0.79327 -3,1 -0.65372,0.13074 -1.33334,0 -2,0 -2,0 -4,0 -6,0 -6.33334,0 -12.66667,0 -19,0 -3.33334,0 -6.66667,0 -10,0 -0.52292,0 -3.73706,0.13147 -4,0 -0.42164,-0.21082 -0.57836,-0.78918 -1,-1 -0.8,-0.4 -2.2,0.4 -3,0 -0.42164,-0.21082 -0.60777,-0.73852 -1,-1 -1.72361,-1.14907 -1.51159,-1 -3,-1 -0.33334,0 -0.70186,0.14907 -1,0 -0.42164,-0.21082 -0.57836,-0.78918 -1,-1 -0.29814,-0.14907 -0.70186,0.14907 -1,0 -0.42164,-0.21082 -0.57836,-0.78918 -1,-1 -0.8,-0.4 -2.2,0.4 -3,0 -0.42164,-0.21082 -0.57836,-0.78918 -1,-1 -0.39649,-0.19825 -2.79557,0.20443 -3,0 -0.2357,-0.23571 0.2357,-0.7643 0,-1 -0.47141,-0.47141 -1.40372,0.29814 -2,0 -0.42164,-0.21082 -0.57836,-0.78918 -1,-1 -0.8,-0.4 -2.2,0.4 -3,0 -0.42164,-0.21082 -0.57836,-0.78918 -1,-1 -0.59629,-0.29815 -1.40372,0.29814 -2,0 -0.42164,-0.21082 -0.57836,-0.78918 -1,-1 -0.62852,-0.31426 -3.37148,0.31426 -4,0 -0.42164,-0.21082 -0.55279,-0.85093 -1,-1 -1.3654,-0.45513 -4.63461,0.45513 -6,0 -0.44722,-0.14907 -0.57836,-0.78918 -1,-1 -0.29748,-0.14874 -5.57934,0 -6,0 -4.33333,0 -8.66667,0 -13,0 -4.33333,0 -8.66667,0 -13,0 -0.69554,0 -4.63837,-0.18082 -5,0 -0.42164,0.21082 -0.57836,0.78918 -1,1 -0.29814,0.14907 -0.70186,-0.14907 -1,0 -0.42164,0.21082 -0.57836,0.78918 -1,1 -0.29814,0.14907 -0.70186,-0.14907 -1,0 -0.42164,0.21082 -0.57836,0.78918 -1,1 -0.29814,0.14907 -0.70186,-0.14907 -1,0 -0.42164,0.21082 -0.57836,0.78918 -1,1 -0.29814,0.14907 -0.70186,-0.14907 -1,0 -0.84328,0.42163 -1.15673,1.57836 -2,2 -0.29814,0.14907 -0.70186,-0.14907 -1,0 -0.42164,0.21082 -0.66667,0.66666 -1,1 -0.33333,0.33333 -0.57836,0.78918 -1,1 -0.29814,0.14907 -0.7643,-0.23571 -1,0 -0.52705,0.52704 -0.47296,1.47295 -1,2 -0.2357,0.2357 -0.70186,-0.14907 -1,0 -0.42164,0.21082 -0.57836,0.78918 -1,1 -0.29814,0.14907 -0.66667,0 -1,0 -0.33333,0.33333 -0.57836,0.78918 -1,1 -0.29814,0.14907 -0.70186,-0.14907 -1,0 -0.42164,0.21082 -0.57836,0.78918 -1,1 -0.29814,0.14907 -0.70186,-0.14907 -1,0 -1.2,0.6 -1.8,2.4 -3,3 -0.29814,0.14907 -0.70186,-0.14907 -1,0 -0.42164,0.21082 -0.57836,0.78919 -1,0.99999 -0.29814,0.1491 -0.70186,-0.1491 -1,0 -0.42164,0.2108 -0.57836,0.7892 -1,1 -0.29814,0.1491 -0.70186,-0.1491 -1,0 -0.42164,0.2108 -0.57836,0.7892 -1,1 -0.29814,0.1491 -0.70186,-0.1491 -1,0 -0.42164,0.2108 -0.57836,0.7892 -1,1 -0.29814,0.1491 -0.70186,-0.1491 -1,0 -0.42164,0.2108 -0.55279,0.8509 -1,1 -0.63246,0.2108 -1.36755,-0.2108 -2,0 -0.44721,0.1491 -0.57836,0.7892 -1,1 -0.29814,0.1491 -0.68377,-0.1054 -1,0 -0.70711,0.2357 -1.29289,0.7643 -2,1 -0.31623,0.1054 -0.70186,-0.1491 -1,0 -4.57661,2.2883 4.24342,-0.4145 -3,2 -0.31623,0.1054 -0.66667,0 -1,0 -0.33333,0.3333 -0.57836,0.7892 -1,1 -0.29814,0.1491 -0.7643,-0.2357 -1,0 -0.2357,0.2357 0.29814,0.8509 0,1 -0.59629,0.2981 -1.36755,-0.2108 -2,0 -0.44721,0.1491 -0.57836,0.7892 -1,1 -0.30434,0.1522 -2.54964,0 -3,0 -0.45036,0 -2.69567,-0.1522 -3,0 -2.47141,1.2357 0.34518,1 -2,1 -0.71491,0 -5.48811,-0.1706 -6,0 -0.44721,0.1491 -0.57836,0.7892 -1,1 -0.25855,0.1293 -5.2912,0 -6,0 -4.33333,0 -8.66667,0 -13,0 -6.66667,0 -13.33333,0 -20,0 -0.24253,0 -2.96784,0.032 -3,0 -0.2357,-0.2357 0.2357,-0.7643 0,-1 -0.2357,-0.2357 -0.7643,0.2357 -1,0 -0.2357,-0.2357 0.2357,-0.7643 0,-1 -0.2357,-0.2357 -0.7643,0.2357 -1,0 -0.2357,-0.2357 0.2357,-0.7643 0,-1 -0.2357,-0.2357 -0.70186,0.1491 -1,0 -0.42164,-0.2108 -0.57836,-0.7892 -1,-1 -0.29814,-0.1491 -0.66667,0 -1,0 -0.33333,-0.3333 -0.57836,-0.7892 -1,-1 -0.29814,-0.1491 -0.70186,0.1491 -1,0 -0.84327,-0.4216 -1.15673,-1.5784 -2,-2 -0.29814,-0.1491 -0.70186,0.1491 -1,0 -0.42164,-0.2108 -0.57836,-0.7892 -1,-1 -0.29814,-0.1491 -0.7643,0.2357 -1,0 -0.2357,-0.2357 0.2357,-0.7643 0,-1 -0.2357,-0.2357 -0.7643,0.2357 -1,0 -0.2357,-0.2357 0.2357,-0.7643 0,-1 -0.2357,-0.2357 -0.7643,0.2357 -1,0 -0.66667,-0.6667 0.66667,-1.3333 0,-2 -0.2357,-0.2357 -0.7643,0.2357 -1,0 -0.47141,-0.4714 0.4714,-1.52859 0,-1.99999 -0.2357,-0.23571 -0.7643,0.2357 -1,0 -0.0965,-0.0965 0.0809,-1.59539 0,-2 -0.26954,-1.34768 -0.66667,-2.66667 -1,-4 z"
         style="opacity:1;fill:#0095ff;fill-opacity:0.0935961;fill-rule:evenodd;stroke:none;stroke-width:1px;stroke-linecap:butt;stroke-linejoin:miter;stroke-opacity:1" />
      <path
         inkscape:connector-curvature="0"
         id="path4182"
         d="M 352.81049,403.27832 416.8633,339.22551"
         style="fill:none;fill-rule:evenodd;stroke:#000000;stroke-width:1px;stroke-linecap:butt;stroke-linejoin:miter;stroke-opacity:1;marker-end:url(#Arrow1Mend)" />
      <path
         inkscape:connector-curvature="0"
         id="path4490"
         d="M 352.81049,403.27832 327.49543,308.80125"
         style="fill:none;fill-rule:evenodd;stroke:#000000;stroke-width:1px;stroke-linecap:butt;stroke-linejoin:miter;stroke-opacity:1;marker-end:url(#marker4498)" />
      <path
         inkscape:connector-curvature="0"
         id="path4532"
         d="m 525.38034,450.61434 -32.9684,-19.03432"
         style="fill:none;fill-rule:evenodd;stroke:#000000;stroke-width:1px;stroke-linecap:butt;stroke-linejoin:miter;stroke-opacity:1;marker-end:url(#marker4540)" />
      <path
         style="fill:none;fill-rule:evenodd;stroke:#000000;stroke-width:1px;stroke-linecap:butt;stroke-linejoin:miter;stroke-opacity:1;marker-end:url(#marker5572)"
         d="M 468.8118,464.04937 435.8434,445.01505"
         id="path4586"
         inkscape:connector-curvature="0" />
      <path
         style="fill:none;fill-rule:evenodd;stroke:#000000;stroke-width:1px;stroke-linecap:butt;stroke-linejoin:miter;stroke-opacity:1;marker-end:url(#marker4824)"
         d="m 502.75292,512.83974 -32.9684,-19.03432"
         id="path4820"
         inkscape:connector-curvature="0" />
      <path
         inkscape:connector-curvature="0"
         id="path4822"
         d="m 446.18438,526.27477 -32.9684,-19.03432"
         style="fill:none;fill-rule:evenodd;stroke:#000000;stroke-width:1px;stroke-linecap:butt;stroke-linejoin:miter;stroke-opacity:1;marker-end:url(#marker4588)" />
      <path
         style="fill:none;fill-rule:evenodd;stroke:#000000;stroke-width:1px;stroke-linecap:butt;stroke-linejoin:miter;stroke-opacity:1;marker-end:url(#marker5638)"
         d="m 311.12699,305.65745 -32.9684,-19.03432"
         id="path5630"
         inkscape:connector-curvature="0" />
      <path
         inkscape:connector-curvature="0"
         id="path5632"
         d="m 254.55845,319.09248 -32.9684,-19.03432"
         style="fill:none;fill-rule:evenodd;stroke:#000000;stroke-width:1px;stroke-linecap:butt;stroke-linejoin:miter;stroke-opacity:1;marker-end:url(#marker5572)" />
      <path
         inkscape:connector-curvature="0"
         id="path5634"
         d="m 288.49957,367.88285 -32.9684,-19.03432"
         style="fill:none;fill-rule:evenodd;stroke:#000000;stroke-width:1px;stroke-linecap:butt;stroke-linejoin:miter;stroke-opacity:1;marker-end:url(#marker4824)" />
      <path
         style="fill:none;fill-rule:evenodd;stroke:#000000;stroke-width:1px;stroke-linecap:butt;stroke-linejoin:miter;stroke-opacity:1;marker-end:url(#marker4588)"
         d="m 231.93103,381.31788 -32.9684,-19.03432"
         id="path5636"
         inkscape:connector-curvature="0" />
      <path
         inkscape:connector-curvature="0"
         id="path6232"
         d="m 462.76558,293.32323 68.58937,-68.58937"
         style="fill:#b3b3b3;fill-rule:evenodd;stroke:#cccccc;stroke-width:2;stroke-linecap:butt;stroke-linejoin:miter;stroke-miterlimit:4;stroke-dasharray:16, 16;stroke-dashoffset:0;stroke-opacity:1" />
      <path
         sodipodi:nodetypes="ccc"
         inkscape:connector-curvature="0"
         id="path3338"
         d="M 206.50221,479.30577 380.63609,305.1719 c 0,0 35.11729,-21.02877 82.66803,-11.60433"
         style="fill:none;fill-opacity:1;fill-rule:evenodd;stroke:#000000;stroke-width:1px;stroke-linecap:butt;stroke-linejoin:miter;stroke-opacity:1" />
      <path
         style="fill:none;fill-opacity:1;fill-rule:evenodd;stroke:#000000;stroke-width:1px;stroke-linecap:butt;stroke-linejoin:miter;stroke-opacity:1"
         d="M 277.17103,549.98523 451.30491,375.85135 c 0,0 21.02877,-35.11729 11.60433,-82.66803"
         id="path3340"
         inkscape:connector-curvature="0"
         sodipodi:nodetypes="ccc" />
      <path
         inkscape:connector-curvature="0"
         id="path3342"
         d="m 277.42479,549.48865 -70.75,-70.75"
         style="fill:none;fill-opacity:1;fill-rule:evenodd;stroke:#000000;stroke-width:1px;stroke-linecap:butt;stroke-linejoin:miter;stroke-opacity:1" />
      <path
         inkscape:connector-curvature="0"
         id="path6244"
         d="m 242.82139,513.71473 -34.74826,-34.75096 64.77864,-64.77864 64.77863,-64.77863 7.18561,26.90419 c 3.95208,14.7973 7.42634,27.0678 7.72057,27.26777 0.31523,0.21425 12.90861,-12.00473 30.65996,-29.74845 22.62737,-22.61763 30.125,-29.83242 30.125,-28.98858 0,1.93501 0.6784,1.25509 2.95439,-2.961 2.47491,-4.5846 2.48302,-4.58039 -2.95439,-1.53694 -2.78598,1.55937 -3.08877,1.85852 -2.12074,2.09524 0.97772,0.23909 -2.82729,4.23191 -28.35496,29.75452 -16.21632,16.21311 -29.56881,29.37561 -29.6722,29.25 -0.10338,-0.1256 -3.37623,-12.15107 -7.273,-26.72325 l -7.08502,-26.49488 21.37796,-21.40303 c 20.75114,-20.77548 21.49525,-21.45908 25.37796,-23.3142 9.3049,-4.4458 22.89362,-8.49849 34.75,-10.36382 8.23147,-1.29503 28.45681,-1.29107 36.33417,0.007 6.45135,1.06318 5.72409,0.11145 6.92598,9.06369 1.06962,7.96694 1.07164,23.50779 0.004,31.5 -1.66941,12.49834 -5.78011,27.03308 -10.39359,36.75 l -2.25524,4.75 -86.68355,86.6254 -86.68366,86.62541 -34.74826,-34.75096 z"
         style="opacity:1;fill:none;fill-opacity:1;stroke:none;stroke-width:1;stroke-miterlimit:4;stroke-dasharray:8, 8;stroke-dashoffset:0;stroke-opacity:1" />
      <path
         inkscape:connector-curvature="0"
         id="path6246"
         d="m 242.82139,513.71473 -34.74826,-34.75096 64.77864,-64.77864 64.77863,-64.77863 7.18561,26.90419 c 3.95208,14.7973 7.42634,27.0678 7.72057,27.26777 0.31523,0.21425 12.90861,-12.00473 30.65996,-29.74845 22.62737,-22.61763 30.125,-29.83242 30.125,-28.98858 0,1.93501 0.6784,1.25509 2.95439,-2.961 2.47491,-4.5846 2.48302,-4.58039 -2.95439,-1.53694 -2.78598,1.55937 -3.08877,1.85852 -2.12074,2.09524 0.97772,0.23909 -2.82729,4.23191 -28.35496,29.75452 -16.21632,16.21311 -29.56881,29.37561 -29.6722,29.25 -0.10338,-0.1256 -3.37623,-12.15107 -7.273,-26.72325 l -7.08502,-26.49488 21.37796,-21.40303 c 20.75114,-20.77548 21.49525,-21.45908 25.37796,-23.3142 9.3049,-4.4458 22.89362,-8.49849 34.75,-10.36382 8.23147,-1.29503 28.45681,-1.29107 36.33417,0.007 6.45135,1.06318 5.72409,0.11145 6.92598,9.06369 1.06962,7.96694 1.07164,23.50779 0.004,31.5 -1.66941,12.49834 -5.78011,27.03308 -10.39359,36.75 l -2.25524,4.75 -86.68355,86.6254 -86.68366,86.62541 -34.74826,-34.75096 z"
         style="opacity:1;fill:none;fill-opacity:1;stroke:none;stroke-width:1;stroke-miterlimit:4;stroke-dasharray:8, 8;stroke-dashoffset:0;stroke-opacity:1" />
      <path
         inkscape:connector-curvature="0"
         id="path6252"
         d="m 242.81386,513.40473 -34.4904,-34.50127 64.45271,-64.45852 c 35.44899,-35.45219 64.55259,-64.35864 64.67466,-64.23657 0.12208,0.12207 3.38958,12.08957 7.26111,26.59444 3.87154,14.50488 7.29594,26.62927 7.60977,26.94311 0.31384,0.31383 14.27824,-13.1315 31.03201,-29.87852 16.75377,-16.74701 30.46371,-29.77688 30.46652,-28.95526 0.003,0.82161 1.0986,-0.30615 2.43507,-2.50615 1.33648,-2.2 2.06622,-4.13099 1.62166,-4.29108 -1.18677,-0.42736 -8.13584,3.86234 -7.61692,4.70197 0.24308,0.39331 -12.50209,13.65338 -28.32259,29.46683 l -28.76455,28.75172 -7.06617,-26.31472 -7.06616,-26.31472 21.61493,-21.73617 21.61492,-21.73617 8.52235,-3.39454 c 19.13734,-7.6226 40.04398,-10.74164 59.03797,-8.80782 6.25183,0.63651 11.73129,1.52162 12.17657,1.96689 1.42301,1.42302 2.44664,23.33767 1.60573,34.3768 -0.91048,11.95238 -4.33879,26.38373 -8.96674,37.7452 l -3.08998,7.58581 -86.61278,86.75 c -47.63702,47.7125 -86.84374,86.75 -87.12604,86.75 -0.28229,0 -16.03394,-15.52557 -35.00365,-34.50126 z"
         style="opacity:1;fill:#f9f9f9;fill-opacity:1;stroke:none;stroke-width:1;stroke-miterlimit:4;stroke-dasharray:8, 8;stroke-dashoffset:0;stroke-opacity:1" />
    </g>
    <g
       transform="matrix(0.26313763,0,0,0.26313751,346.64061,327.31832)"
       id="g6868">
      <g
         style="font-style:normal;font-variant:normal;font-weight:normal;font-stretch:normal;letter-spacing:normal;word-spacing:normal;text-anchor:start;fill:none;fill-opacity:1;fill-rule:evenodd;stroke:#000000;stroke-width:3.80029345;stroke-linecap:butt;stroke-linejoin:miter;stroke-miterlimit:10.43299961;stroke-dasharray:none;stroke-dashoffset:0;stroke-opacity:1"
         id="content"
         transform="matrix(1.0629921,0,0,-1.0629921,-186.02362,789.27165)"
         xml:space="preserve"
         stroke-miterlimit="10.433"
         font-style="normal"
         font-variant="normal"
         font-weight="normal"
         font-stretch="normal"
         font-size-adjust="none"
         letter-spacing="normal"
         word-spacing="normal"><path
           style="fill:#000000;stroke-width:0"
           inkscape:connector-curvature="0"
           d="m 471.09,422.19 4.84,0 c 3.73,0 4.13,-0.8 4.13,-2.24 0,-0.35 0,-0.95 -0.35,-2.44 -0.1,-0.25 -0.15,-0.45 -0.15,-0.55 0,-0.4 0.3,-0.6 0.6,-0.6 0.5,0 0.5,0.15 0.75,1.05 l 2.73,10.8 c 0.16,0.56 0.16,0.65 0.16,0.8 0,0.1 -0.1,0.55 -0.6,0.55 -0.5,0 -0.55,-0.25 -0.75,-1.04 -1.04,-3.89 -2.19,-4.79 -6.43,-4.79 l -4.53,0 3.19,12.66 c 0.45,1.74 0.5,1.94 2.69,1.94 l 6.58,0 c 6.12,0 7.27,-1.65 7.27,-5.48 0,-1.15 0,-1.35 -0.15,-2.69 -0.1,-0.65 -0.1,-0.75 -0.1,-0.9 0,-0.25 0.15,-0.6 0.6,-0.6 0.54,0 0.59,0.3 0.7,1.25 l 0.99,8.62 c 0.15,1.34 -0.1,1.34 -1.35,1.34 l -24.4,0 c -1,0 -1.5,0 -1.5,-0.99 0,-0.55 0.45,-0.55 1.4,-0.55 1.84,0 3.23,0 3.23,-0.9 0,-0.2 0,-0.3 -0.25,-1.19 l -6.57,-26.35 c -0.5,-1.95 -0.6,-2.35 -4.53,-2.35 -0.85,0 -1.4,0 -1.4,-0.94 0,-0.6 0.6,-0.6 0.75,-0.6 l 14,0 c 0.45,0 1.04,0 1.04,0.95 0,0.39 -0.29,0.5 -0.29,0.55 -0.16,0.04 -0.25,0.04 -1.4,0.04 -1.1,0 -1.35,0 -2.59,0.1 -1.44,0.15 -1.6,0.35 -1.6,1 0,0.1 0,0.4 0.2,1.15 z"
           id="path6871" /><path
           style="fill:#000000;stroke-width:0"
           inkscape:connector-curvature="0"
           d="m 506.34,410.12 0.02,0.1 0.03,0.09 0.02,0.1 0.03,0.1 0.03,0.1 0.02,0.11 0.06,0.21 0.05,0.22 0.06,0.22 0.05,0.22 0.03,0.11 0.02,0.11 0.03,0.1 0.02,0.1 0.03,0.1 0.02,0.09 0.02,0.09 0.02,0.09 0.02,0.08 0.01,0.08 0.02,0.07 0.01,0.06 0.02,0.06 0.01,0.05 0,0.05 0.01,0.03 0,0.02 0,0.01 0,0.01 0,0.01 c 0,0.7 -0.55,1.12 -1.15,1.12 -0.66,0 -1.29,-0.42 -1.49,-1.01 -0.11,-0.28 -0.46,-1.75 -0.7,-2.62 -0.49,-1.99 -0.49,-2.06 -1.02,-4.01 -0.45,-1.92 -0.52,-2.19 -0.55,-3.21 0.14,-0.69 -0.14,-1.36 -0.98,-2.4 -0.45,-0.56 -1.15,-1.15 -2.34,-1.15 -1.36,0 -3.13,0.49 -3.13,3.21 0,1.77 0.97,4.36 1.67,6.13 0.59,1.54 0.73,1.85 0.73,2.44 0,1.68 -1.43,2.97 -3.31,2.97 -3.52,0 -5.09,-4.74 -5.09,-5.34 0,-0.45 0.49,-0.45 0.59,-0.45 0.49,0 0.52,0.17 0.63,0.56 0.87,2.89 2.37,4.25 3.76,4.25 0.6,0 0.88,-0.38 0.88,-1.22 0,-0.8 -0.32,-1.57 -0.49,-2.02 -1.99,-5.09 -1.99,-5.79 -1.99,-6.87 0,-4.11 3.73,-4.64 5.62,-4.64 0.66,0 2.37,0 3.93,2.34 0.81,-1.57 2.73,-2.34 4.85,-2.34 3.11,0 4.64,2.69 5.34,4.12 1.5,2.93 2.44,7.28 2.44,8.89 0,2.61 -1.5,2.75 -1.75,2.75 -0.9,0 -1.88,-0.94 -1.88,-1.85 0,-0.59 0.35,-0.87 0.59,-1.08 0.84,-0.69 1.29,-1.67 1.29,-2.78 0,-0.46 -1.46,-9.07 -5.89,-9.07 -2.82,0 -2.82,2.51 -2.82,3.1 0,0.94 0.14,1.5 0.62,3.49 z"
           id="path6873" /><path
           style="fill:#000000;stroke-width:0"
           inkscape:connector-curvature="0"
           d="m 531.72,412.32 -0.07,0.11 -0.08,0.1 -0.07,0.11 -0.08,0.1 -0.08,0.1 -0.08,0.1 -0.09,0.09 -0.09,0.1 -0.09,0.09 -0.09,0.09 -0.1,0.08 -0.1,0.09 -0.1,0.08 -0.11,0.07 -0.11,0.08 -0.11,0.07 -0.11,0.07 -0.12,0.06 -0.12,0.06 -0.12,0.06 -0.12,0.05 -0.13,0.05 -0.13,0.05 -0.13,0.04 -0.14,0.04 -0.14,0.03 -0.14,0.02 -0.14,0.03 -0.15,0.02 -0.15,0.01 -0.15,0.01 -0.16,0 0,-0.98 c 2.44,0 3.11,-2.65 3.11,-3.03 0,-0.14 -0.07,-0.39 -0.11,-0.49 l -1.64,-6.52 c -0.24,-0.98 -1.01,-1.68 -1.78,-2.34 -0.31,-0.28 -1.7,-1.39 -3.2,-1.39 -1.29,0 -2.55,0.91 -2.55,3.38 0,1.85 1.01,5.69 1.82,7.08 1.6,2.79 3.38,3.31 4.35,3.31 l 0,0.98 c -4.46,0 -8.99,-4.92 -8.99,-9.94 0,-3.38 2.27,-5.79 5.26,-5.79 1.88,0 3.56,1.08 4.95,2.44 0.67,-2.09 2.69,-2.44 3.59,-2.44 1.26,0 2.13,0.77 2.76,1.85 0.77,1.36 1.22,3.35 1.22,3.48 0,0.46 -0.45,0.46 -0.56,0.46 -0.49,0 -0.52,-0.14 -0.76,-1.08 -0.42,-1.68 -1.09,-3.73 -2.55,-3.73 -0.91,0 -1.15,0.76 -1.15,1.71 0,0.59 0.28,1.84 0.52,2.75 0.25,0.94 0.59,2.37 0.77,3.14 l 0.7,2.65 c 0.21,0.91 0.62,2.55 0.62,2.72 0,0.77 -0.62,1.11 -1.18,1.11 -0.59,0 -1.39,-0.41 -1.6,-1.39 z"
           id="path6875" /><path
           style="fill:#000000;stroke-width:0"
           inkscape:connector-curvature="0"
           d="m 557.62,411.66 0,0.12 0,0.12 -0.01,0.12 -0.01,0.12 -0.01,0.11 -0.01,0.1 -0.01,0.11 -0.02,0.1 -0.02,0.09 -0.02,0.1 -0.02,0.09 -0.02,0.08 -0.03,0.08 -0.02,0.08 -0.03,0.08 -0.03,0.08 -0.03,0.07 -0.03,0.06 -0.03,0.07 -0.03,0.06 -0.04,0.06 -0.03,0.06 -0.04,0.05 -0.03,0.06 -0.04,0.04 -0.04,0.05 -0.08,0.09 -0.07,0.08 -0.08,0.07 -0.08,0.06 -0.08,0.05 -0.08,0.05 -0.08,0.04 -0.07,0.03 -0.07,0.03 -0.07,0.03 -0.07,0.02 -0.06,0.01 -0.05,0.01 -0.06,0.01 -0.04,0.01 -0.04,0 -0.03,0 -0.02,0 -0.01,0 c -0.91,0 -1.89,-0.94 -1.89,-1.85 0,-0.59 0.35,-0.87 0.6,-1.08 0.59,-0.48 1.29,-1.39 1.29,-2.78 0,-1.58 -2.31,-9.07 -6.45,-9.07 -2.83,0 -2.83,2.51 -2.83,3.1 0,1.61 0.63,3.56 1.92,6.8 0.28,0.73 0.49,1.26 0.49,1.85 0,1.81 -1.54,3 -3.31,3 -3.49,0 -5.06,-4.78 -5.06,-5.34 0,-0.45 0.49,-0.45 0.59,-0.45 0.49,0 0.52,0.17 0.63,0.56 0.84,2.86 2.34,4.25 3.73,4.25 0.59,0 0.87,-0.38 0.87,-1.22 0,-0.8 -0.28,-1.54 -0.62,-2.34 -1.5,-3.87 -1.89,-5.37 -1.89,-6.62 0,-3.45 2.72,-4.57 5.37,-4.57 5.86,0 8.3,10.15 8.3,13.01 z"
           id="path6877" /><path
           style="fill:#000000;stroke-width:0"
           inkscape:connector-curvature="0"
           d="m 567.81,406.95 0.1,0 0.11,0 0.11,0 0.13,0 0.13,0.01 0.14,0 0.15,0 0.16,0.01 0.16,0.01 0.17,0.01 0.17,0.01 0.18,0.01 0.18,0.01 0.19,0.01 0.39,0.04 0.39,0.04 0.41,0.05 0.41,0.06 0.4,0.07 0.4,0.08 0.2,0.04 0.19,0.05 0.2,0.05 0.18,0.06 0.19,0.05 0.18,0.06 c 2.57,0.91 3.06,2.58 3.06,3.63 0,1.92 -1.92,3.07 -4.32,3.07 l 0,-0.98 c 1.53,0 2.82,-0.77 2.82,-2.09 0,-3.38 -5.89,-3.38 -7.39,-3.38 l -1.7,0 c 1.42,5.05 5.29,5.47 6.27,5.47 l 0,0.98 c -4.19,0 -9.83,-3.21 -9.83,-9.17 0,-3.53 2.19,-6.56 6.27,-6.56 5.89,0 8.65,3.45 8.65,3.94 0,0.21 -0.31,0.59 -0.59,0.59 -0.21,0 -0.28,-0.07 -0.56,-0.34 -2.72,-3.21 -6.8,-3.21 -7.43,-3.21 -2.09,0 -3.48,1.39 -3.48,4.22 0,0.49 0,1.18 0.41,3.1 z"
           id="path6879" /></g>    </g>
    <g
       transform="matrix(0.26313763,0,0,0.26313751,254.64061,196.31832)"
       id="g6973">
      <g
         style="font-style:normal;font-variant:normal;font-weight:normal;font-stretch:normal;letter-spacing:normal;word-spacing:normal;text-anchor:start;fill:none;fill-opacity:1;fill-rule:evenodd;stroke:#000000;stroke-width:3.80029345;stroke-linecap:butt;stroke-linejoin:miter;stroke-miterlimit:10.43299961;stroke-dasharray:none;stroke-dashoffset:0;stroke-opacity:1"
         word-spacing="normal"
         letter-spacing="normal"
         font-size-adjust="none"
         font-stretch="normal"
         font-weight="normal"
         font-variant="normal"
         font-style="normal"
         stroke-miterlimit="10.433"
         xml:space="preserve"
         transform="matrix(1.0629921,0,0,-1.0629921,-186.02362,789.27165)"
         id="g6975"><path
           style="fill:#000000;stroke-width:0"
           inkscape:connector-curvature="0"
           id="path6977"
           d="m 471.09,422.19 4.84,0 c 3.73,0 4.13,-0.8 4.13,-2.24 0,-0.35 0,-0.95 -0.35,-2.44 -0.1,-0.25 -0.15,-0.45 -0.15,-0.55 0,-0.4 0.3,-0.6 0.6,-0.6 0.5,0 0.5,0.15 0.75,1.05 l 2.73,10.8 c 0.16,0.56 0.16,0.65 0.16,0.8 0,0.1 -0.1,0.55 -0.6,0.55 -0.5,0 -0.55,-0.25 -0.75,-1.04 -1.04,-3.89 -2.19,-4.79 -6.43,-4.79 l -4.53,0 3.19,12.66 c 0.45,1.74 0.5,1.94 2.69,1.94 l 6.58,0 c 6.12,0 7.27,-1.65 7.27,-5.48 0,-1.15 0,-1.35 -0.15,-2.69 -0.1,-0.65 -0.1,-0.75 -0.1,-0.9 0,-0.25 0.15,-0.6 0.6,-0.6 0.54,0 0.59,0.3 0.7,1.25 l 0.99,8.62 c 0.15,1.34 -0.1,1.34 -1.35,1.34 l -24.4,0 c -1,0 -1.5,0 -1.5,-0.99 0,-0.55 0.45,-0.55 1.4,-0.55 1.84,0 3.23,0 3.23,-0.9 0,-0.2 0,-0.3 -0.25,-1.19 l -6.57,-26.35 c -0.5,-1.95 -0.6,-2.35 -4.53,-2.35 -0.85,0 -1.4,0 -1.4,-0.94 0,-0.6 0.6,-0.6 0.75,-0.6 l 14,0 c 0.45,0 1.04,0 1.04,0.95 0,0.39 -0.29,0.5 -0.29,0.55 -0.16,0.04 -0.25,0.04 -1.4,0.04 -1.1,0 -1.35,0 -2.59,0.1 -1.44,0.15 -1.6,0.35 -1.6,1 0,0.1 0,0.4 0.2,1.15 z" /><path
           style="fill:#000000;stroke-width:0"
           inkscape:connector-curvature="0"
           id="path6979"
           d="m 497.21,422.15 0,0.01 0,0 0,0 0,0.01 0.01,0.01 0,0 0,0.01 0,0 0.01,0.02 0,0.02 0.01,0.02 0,0.01 0.01,0.02 0,0.03 0.01,0.02 0.01,0.02 0,0.02 0.01,0.03 0.01,0.04 0.01,0.05 0,0.03 0.01,0.02 0,0.02 0.01,0.02 0,0.02 0.01,0.02 0,0.02 0,0.01 0.01,0.01 0,0.01 0,0 0,0.01 0,0.01 0,0 0,0.01 0,0 0,0 0,0.01 0,0 0,0 c 0,0.18 -0.13,0.49 -0.55,0.49 -0.7,0 -3.59,-0.28 -4.47,-0.35 -0.28,-0.03 -0.76,-0.07 -0.76,-0.8 0,-0.49 0.48,-0.49 0.9,-0.49 1.68,0 1.68,-0.24 1.68,-0.52 0,-0.25 -0.35,-1.64 -0.56,-2.44 l -0.8,-3.21 c -0.32,-1.19 -2.23,-8.82 -2.3,-9.28 -0.18,-0.83 -0.18,-1.29 -0.18,-1.7 0,-3.53 2.23,-5.76 5.13,-5.76 l 0.03,0.98 c -1.71,0 -2.68,1.5 -2.68,3.55 0,1.29 0.31,2.48 1.29,6.42 0.21,0.66 0.21,0.73 0.87,1.5 1.33,1.53 2.89,2.3 4.15,2.3 1.36,0 2.54,-1.01 2.54,-3.38 0,-1.43 -0.76,-4.99 -1.81,-7.01 -0.84,-1.71 -2.58,-3.38 -4.36,-3.38 l 0,0 -0.03,-0.98 c 4.36,0 8.99,4.74 8.99,9.9 0,4.08 -2.82,5.83 -5.23,5.83 -1.81,0 -3.35,-1.01 -4.39,-1.92 z" /><path
           style="fill:#000000;stroke-width:0"
           inkscape:connector-curvature="0"
           id="path6981"
           d="m 523.52,408.27 -0.01,0.36 -0.03,0.35 -0.04,0.34 -0.06,0.33 -0.07,0.32 -0.08,0.3 -0.1,0.3 -0.12,0.29 -0.13,0.28 -0.14,0.26 -0.15,0.26 -0.17,0.25 -0.18,0.23 -0.19,0.22 -0.2,0.22 -0.21,0.2 -0.22,0.19 -0.23,0.18 -0.24,0.16 -0.25,0.16 -0.25,0.14 -0.27,0.13 -0.27,0.12 -0.28,0.11 -0.28,0.09 -0.3,0.09 -0.29,0.07 -0.3,0.06 -0.31,0.04 -0.31,0.03 -0.32,0.02 -0.32,0.01 -0.03,-0.98 c 1.88,0 3.49,-1.29 3.49,-3.87 0,-0.83 -0.42,-4.29 -1.96,-6.73 -1.32,-2.06 -3.42,-3.17 -5.16,-3.17 l 0,0 c -1.74,0 -3.49,1.11 -3.49,3.87 0,1.43 0.67,4.84 2.03,6.83 1.5,2.17 3.52,3.07 5.09,3.07 l 0.03,0.98 c -5.16,0 -10.04,-4.85 -10.04,-9.63 0,-3.48 2.55,-6.1 6.35,-6.1 4.99,0 10.01,4.6 10.01,9.62 z" /><path
           style="fill:#000000;stroke-width:0"
           inkscape:connector-curvature="0"
           id="path6983"
           d="m 539.72,412.32 -0.07,0.11 -0.08,0.1 -0.07,0.11 -0.08,0.1 -0.08,0.1 -0.08,0.1 -0.09,0.09 -0.09,0.1 -0.09,0.09 -0.09,0.09 -0.1,0.08 -0.1,0.09 -0.1,0.08 -0.11,0.07 -0.11,0.08 -0.11,0.07 -0.11,0.07 -0.12,0.06 -0.12,0.06 -0.12,0.06 -0.12,0.05 -0.13,0.05 -0.13,0.05 -0.13,0.04 -0.14,0.04 -0.14,0.03 -0.14,0.02 -0.14,0.03 -0.15,0.02 -0.15,0.01 -0.15,0.01 -0.16,0 0,-0.98 c 2.44,0 3.11,-2.65 3.11,-3.03 0,-0.14 -0.07,-0.39 -0.11,-0.49 l -1.64,-6.52 c -0.24,-0.98 -1.01,-1.68 -1.78,-2.34 -0.31,-0.28 -1.7,-1.39 -3.2,-1.39 -1.29,0 -2.55,0.91 -2.55,3.38 0,1.85 1.01,5.69 1.82,7.08 1.6,2.79 3.38,3.31 4.35,3.31 l 0,0.98 c -4.46,0 -8.99,-4.92 -8.99,-9.94 0,-3.38 2.27,-5.79 5.26,-5.79 1.88,0 3.56,1.08 4.95,2.44 0.67,-2.09 2.69,-2.44 3.59,-2.44 1.26,0 2.13,0.77 2.76,1.85 0.77,1.36 1.22,3.35 1.22,3.48 0,0.46 -0.45,0.46 -0.56,0.46 -0.49,0 -0.52,-0.14 -0.76,-1.08 -0.42,-1.68 -1.09,-3.73 -2.55,-3.73 -0.91,0 -1.15,0.76 -1.15,1.71 0,0.59 0.28,1.84 0.52,2.75 0.25,0.94 0.59,2.37 0.77,3.14 l 0.7,2.65 c 0.21,0.91 0.62,2.55 0.62,2.72 0,0.77 -0.62,1.11 -1.18,1.11 -0.59,0 -1.39,-0.41 -1.6,-1.39 z" /><path
           style="fill:#000000;stroke-width:0"
           inkscape:connector-curvature="0"
           id="path6985"
           d="m 554.58,412.77 3.55,0 c 0.67,0 1.12,0 1.12,0.77 0,0.49 -0.45,0.49 -1.05,0.49 l -3.31,0 1.29,5.16 c 0.04,0.17 0.1,0.35 0.1,0.49 0,0.62 -0.48,1.11 -1.18,1.11 -0.87,0 -1.39,-0.59 -1.64,-1.5 -0.24,-0.87 0.21,0.81 -1.32,-5.26 l -3.56,0 c -0.66,0 -1.11,0 -1.11,-0.77 0,-0.49 0.41,-0.49 1.04,-0.49 l 3.31,0 -2.05,-8.23 c -0.21,-0.87 -0.53,-2.12 -0.53,-2.58 0,-2.05 1.74,-3.31 3.73,-3.31 3.87,0 6.07,4.88 6.07,5.33 0,0.46 -0.45,0.46 -0.56,0.46 -0.41,0 -0.45,-0.07 -0.73,-0.66 -0.98,-2.2 -2.75,-4.15 -4.67,-4.15 -0.73,0 -1.22,0.45 -1.22,1.71 0,0.34 0.14,1.08 0.21,1.43 z" /></g>    </g>
    <g
       transform="matrix(0.26313763,0,0,0.26313751,219.14062,159.81832)"
       id="g7093">
      <g
         style="font-style:normal;font-variant:normal;font-weight:normal;font-stretch:normal;letter-spacing:normal;word-spacing:normal;text-anchor:start;fill:none;fill-opacity:1;fill-rule:evenodd;stroke:#000000;stroke-width:3.80029345;stroke-linecap:butt;stroke-linejoin:miter;stroke-miterlimit:10.43299961;stroke-dasharray:none;stroke-dashoffset:0;stroke-opacity:1"
         id="g7095"
         transform="matrix(1.0629921,0,0,-1.0629921,-186.02362,789.27165)"
         xml:space="preserve"
         stroke-miterlimit="10.433"
         font-style="normal"
         font-variant="normal"
         font-weight="normal"
         font-stretch="normal"
         font-size-adjust="none"
         letter-spacing="normal"
         word-spacing="normal"><path
           style="fill:#000000;stroke-width:0"
           inkscape:connector-curvature="0"
           d="m 471.09,422.19 4.84,0 c 3.73,0 4.13,-0.8 4.13,-2.24 0,-0.35 0,-0.95 -0.35,-2.44 -0.1,-0.25 -0.15,-0.45 -0.15,-0.55 0,-0.4 0.3,-0.6 0.6,-0.6 0.5,0 0.5,0.15 0.75,1.05 l 2.73,10.8 c 0.16,0.56 0.16,0.65 0.16,0.8 0,0.1 -0.1,0.55 -0.6,0.55 -0.5,0 -0.55,-0.25 -0.75,-1.04 -1.04,-3.89 -2.19,-4.79 -6.43,-4.79 l -4.53,0 3.19,12.66 c 0.45,1.74 0.5,1.94 2.69,1.94 l 6.58,0 c 6.12,0 7.27,-1.65 7.27,-5.48 0,-1.15 0,-1.35 -0.15,-2.69 -0.1,-0.65 -0.1,-0.75 -0.1,-0.9 0,-0.25 0.15,-0.6 0.6,-0.6 0.54,0 0.59,0.3 0.7,1.25 l 0.99,8.62 c 0.15,1.34 -0.1,1.34 -1.35,1.34 l -24.4,0 c -1,0 -1.5,0 -1.5,-0.99 0,-0.55 0.45,-0.55 1.4,-0.55 1.84,0 3.23,0 3.23,-0.9 0,-0.2 0,-0.3 -0.25,-1.19 l -6.57,-26.35 c -0.5,-1.95 -0.6,-2.35 -4.53,-2.35 -0.85,0 -1.4,0 -1.4,-0.94 0,-0.6 0.6,-0.6 0.75,-0.6 l 14,0 c 0.45,0 1.04,0 1.04,0.95 0,0.39 -0.29,0.5 -0.29,0.55 -0.16,0.04 -0.25,0.04 -1.4,0.04 -1.1,0 -1.35,0 -2.59,0.1 -1.44,0.15 -1.6,0.35 -1.6,1 0,0.1 0,0.4 0.2,1.15 z"
           id="path7097" /><path
           style="fill:#000000;stroke-width:0"
           inkscape:connector-curvature="0"
           d="m 504.95,420.1 0.01,0.04 0.01,0.05 0.01,0.04 0.01,0.05 0.01,0.04 0.01,0.04 0.01,0.04 0.01,0.04 0.02,0.07 0.02,0.07 0.02,0.06 0.02,0.06 0.02,0.05 0.02,0.05 0.02,0.05 0.02,0.05 0.03,0.04 0.02,0.03 0.03,0.04 0.02,0.03 0.03,0.03 0.03,0.03 0.03,0.02 0.03,0.02 0.04,0.02 0.04,0.02 0.04,0.01 0.04,0.02 0.05,0.01 0.04,0.01 0.06,0.01 0.05,0.01 0.06,0.01 0.06,0.01 0.07,0 0.07,0.01 c 0.17,0.04 1.39,0.04 2.09,0.04 2.13,0 3.03,0 3.9,-0.28 1.57,-0.49 1.64,-1.5 1.64,-2.76 0,-0.55 0,-1.01 -0.24,-2.82 l -0.07,-0.39 c 0,-0.34 0.24,-0.52 0.59,-0.52 0.53,0 0.59,0.32 0.66,0.87 l 0.95,6.66 c 0,0.49 -0.42,0.49 -1.05,0.49 l -21.45,0 c -0.87,0 -0.94,0 -1.18,-0.73 l -2.2,-6.17 c -0.03,-0.14 -0.17,-0.46 -0.17,-0.63 0,-0.14 0.07,-0.49 0.59,-0.49 0.46,0 0.52,0.18 0.73,0.84 2.03,5.58 3.18,5.93 8.48,5.93 l 1.46,0 c 1.05,0 1.08,-0.04 1.08,-0.35 0,-0.04 0,-0.21 -0.14,-0.74 l -4.6,-18.34 c -0.31,-1.28 -0.42,-1.64 -4.08,-1.64 -1.25,0 -1.57,0 -1.57,-0.76 0,-0.11 0.07,-0.49 0.59,-0.49 l 12.07,0 c 0.28,0 0.8,0 0.8,0.77 0,0.48 -0.35,0.48 -1.43,0.48 -0.66,0 -1.36,0.04 -2.02,0.07 -1.19,0.11 -1.26,0.25 -1.26,0.67 0,0.24 0,0.31 0.14,0.8 z"
           id="path7099" /><path
           style="fill:#000000;stroke-width:0"
           inkscape:connector-curvature="0"
           d="m 534.52,408.27 -0.01,0.36 -0.03,0.35 -0.04,0.34 -0.06,0.33 -0.07,0.32 -0.08,0.3 -0.1,0.3 -0.12,0.29 -0.13,0.28 -0.14,0.26 -0.15,0.26 -0.17,0.25 -0.18,0.23 -0.19,0.22 -0.2,0.22 -0.21,0.2 -0.22,0.19 -0.23,0.18 -0.24,0.16 -0.25,0.16 -0.25,0.14 -0.27,0.13 -0.27,0.12 -0.28,0.11 -0.28,0.09 -0.3,0.09 -0.29,0.07 -0.3,0.06 -0.31,0.04 -0.31,0.03 -0.32,0.02 -0.32,0.01 -0.03,-0.98 c 1.88,0 3.49,-1.29 3.49,-3.87 0,-0.83 -0.42,-4.29 -1.96,-6.73 -1.32,-2.06 -3.42,-3.17 -5.16,-3.17 l 0,0 c -1.74,0 -3.49,1.11 -3.49,3.87 0,1.43 0.67,4.84 2.03,6.83 1.5,2.17 3.52,3.07 5.09,3.07 l 0.03,0.98 c -5.16,0 -10.04,-4.85 -10.04,-9.63 0,-3.48 2.55,-6.1 6.35,-6.1 4.99,0 10.01,4.6 10.01,9.62 z"
           id="path7101" /><path
           style="fill:#000000;stroke-width:0"
           inkscape:connector-curvature="0"
           d="m 544.58,412.77 3.55,0 c 0.67,0 1.12,0 1.12,0.77 0,0.49 -0.45,0.49 -1.05,0.49 l -3.31,0 1.29,5.16 c 0.04,0.17 0.1,0.35 0.1,0.49 0,0.62 -0.48,1.11 -1.18,1.11 -0.87,0 -1.39,-0.59 -1.64,-1.5 -0.24,-0.87 0.21,0.81 -1.32,-5.26 l -3.56,0 c -0.66,0 -1.11,0 -1.11,-0.77 0,-0.49 0.41,-0.49 1.04,-0.49 l 3.31,0 -2.05,-8.23 c -0.21,-0.87 -0.53,-2.12 -0.53,-2.58 0,-2.05 1.74,-3.31 3.73,-3.31 3.87,0 6.07,4.88 6.07,5.33 0,0.46 -0.45,0.46 -0.56,0.46 -0.41,0 -0.45,-0.07 -0.73,-0.66 -0.98,-2.2 -2.75,-4.15 -4.67,-4.15 -0.73,0 -1.22,0.45 -1.22,1.71 0,0.34 0.14,1.08 0.21,1.43 z"
           id="path7103" /></g>    </g>
  </g>
</svg>
