<?xml version="1.0" encoding="UTF-8" standalone="no"?>
<!-- Created with Inkscape (http://www.inkscape.org/) -->

<svg
   xmlns:dc="http://purl.org/dc/elements/1.1/"
   xmlns:cc="http://creativecommons.org/ns#"
   xmlns:rdf="http://www.w3.org/1999/02/22-rdf-syntax-ns#"
   xmlns:svg="http://www.w3.org/2000/svg"
   xmlns="http://www.w3.org/2000/svg"
   xmlns:sodipodi="http://sodipodi.sourceforge.net/DTD/sodipodi-0.dtd"
   xmlns:inkscape="http://www.inkscape.org/namespaces/inkscape"
   inkscape:version="0.91 r13725"
   version="1.1"
   id="svg2"
   viewBox="0 0 744.09448819 1052.3622047"
   height="297mm"
   width="210mm"
   sodipodi:docname="boatdisturbance.svg">
  <sodipodi:namedview
     inkscape:window-maximized="1"
     inkscape:window-y="-8"
     inkscape:window-x="-8"
     inkscape:window-height="705"
     inkscape:window-width="1366"
     inkscape:snap-object-midpoints="true"
     showgrid="false"
     inkscape:current-layer="svg2"
     inkscape:document-units="px"
     inkscape:cy="822.2901"
     inkscape:cx="272.21138"
     inkscape:zoom="1"
     inkscape:pageshadow="2"
     inkscape:pageopacity="0.0"
     borderopacity="1.0"
     bordercolor="#666666"
     pagecolor="#ffffff"
     id="base"
     inkscape:snap-midpoints="true"
     inkscape:snap-others="false" />
  <defs
     id="defs4">
    <marker
       inkscape:stockid="Arrow1Mend"
       orient="auto"
       refY="0.0"
       refX="0.0"
       id="marker4393"
       style="overflow:visible;"
       inkscape:isstock="true">
      <path
         id="path4395"
         d="M 0.0,0.0 L 5.0,-5.0 L -12.5,0.0 L 5.0,5.0 L 0.0,0.0 z "
         style="fill-rule:evenodd;stroke:#000000;stroke-width:1pt;stroke-opacity:1;fill:#000000;fill-opacity:1"
         transform="scale(0.4) rotate(180) translate(10,0)" />
    </marker>
    <marker
       inkscape:isstock="true"
       style="overflow:visible;"
       id="marker4389"
       refX="0.0"
       refY="0.0"
       orient="auto"
       inkscape:stockid="Arrow1Mend">
      <path
         transform="scale(0.4) rotate(180) translate(10,0)"
         style="fill-rule:evenodd;stroke:#000000;stroke-width:1pt;stroke-opacity:1;fill:#000000;fill-opacity:1"
         d="M 0.0,0.0 L 5.0,-5.0 L -12.5,0.0 L 5.0,5.0 L 0.0,0.0 z "
         id="path4391" />
    </marker>
    <marker
       inkscape:isstock="true"
       style="overflow:visible;"
       id="marker4385"
       refX="0.0"
       refY="0.0"
       orient="auto"
       inkscape:stockid="Arrow1Mend">
      <path
         transform="scale(0.4) rotate(180) translate(10,0)"
         style="fill-rule:evenodd;stroke:#000000;stroke-width:1pt;stroke-opacity:1;fill:#000000;fill-opacity:1"
         d="M 0.0,0.0 L 5.0,-5.0 L -12.5,0.0 L 5.0,5.0 L 0.0,0.0 z "
         id="path4387" />
    </marker>
    <marker
       inkscape:stockid="Arrow1Mend"
       orient="auto"
       refY="0.0"
       refX="0.0"
       id="marker4375"
       style="overflow:visible;"
       inkscape:isstock="true">
      <path
         id="path4377"
         d="M 0.0,0.0 L 5.0,-5.0 L -12.5,0.0 L 5.0,5.0 L 0.0,0.0 z "
         style="fill-rule:evenodd;stroke:#000000;stroke-width:1pt;stroke-opacity:1;fill:#000000;fill-opacity:1"
         transform="scale(0.4) rotate(180) translate(10,0)" />
    </marker>
    <marker
       inkscape:stockid="Arrow1Mend"
       orient="auto"
       refY="0.0"
       refX="0.0"
       id="marker4371"
       style="overflow:visible;"
       inkscape:isstock="true"
       inkscape:collect="always">
      <path
         id="path4373"
         d="M 0.0,0.0 L 5.0,-5.0 L -12.5,0.0 L 5.0,5.0 L 0.0,0.0 z "
         style="fill-rule:evenodd;stroke:#000000;stroke-width:1pt;stroke-opacity:1;fill:#000000;fill-opacity:1"
         transform="scale(0.4) rotate(180) translate(10,0)" />
    </marker>
    <marker
       inkscape:isstock="true"
       style="overflow:visible;"
       id="marker4367"
       refX="0.0"
       refY="0.0"
       orient="auto"
       inkscape:stockid="Arrow1Mend"
       inkscape:collect="always">
      <path
         transform="scale(0.4) rotate(180) translate(10,0)"
         style="fill-rule:evenodd;stroke:#000000;stroke-width:1pt;stroke-opacity:1;fill:#000000;fill-opacity:1"
         d="M 0.0,0.0 L 5.0,-5.0 L -12.5,0.0 L 5.0,5.0 L 0.0,0.0 z "
         id="path4369" />
    </marker>
    <marker
       inkscape:isstock="true"
       style="overflow:visible;"
       id="marker5638"
       refX="0.0"
       refY="0.0"
       orient="auto"
       inkscape:stockid="Arrow1Mend">
      <path
         transform="scale(0.4) rotate(180) translate(10,0)"
         style="fill-rule:evenodd;stroke:#000000;stroke-width:1pt;stroke-opacity:1;fill:#000000;fill-opacity:1"
         d="M 0.0,0.0 L 5.0,-5.0 L -12.5,0.0 L 5.0,5.0 L 0.0,0.0 z "
         id="path5640" />
    </marker>
    <marker
       inkscape:stockid="Arrow1Mend"
       orient="auto"
       refY="0.0"
       refX="0.0"
       id="marker4540"
       style="overflow:visible;"
       inkscape:isstock="true"
       inkscape:collect="always">
      <path
         id="path4542"
         d="M 0.0,0.0 L 5.0,-5.0 L -12.5,0.0 L 5.0,5.0 L 0.0,0.0 z "
         style="fill-rule:evenodd;stroke:#000000;stroke-width:1pt;stroke-opacity:1;fill:#000000;fill-opacity:1"
         transform="scale(0.4) rotate(180) translate(10,0)" />
    </marker>
    <marker
       inkscape:stockid="Arrow1Mend"
       orient="auto"
       refY="0.0"
       refX="0.0"
       id="marker4498"
       style="overflow:visible;"
       inkscape:isstock="true">
      <path
         id="path4500"
         d="M 0.0,0.0 L 5.0,-5.0 L -12.5,0.0 L 5.0,5.0 L 0.0,0.0 z "
         style="fill-rule:evenodd;stroke:#000000;stroke-width:1pt;stroke-opacity:1;fill:#000000;fill-opacity:1"
         transform="scale(0.4) rotate(180) translate(10,0)" />
    </marker>
    <marker
       inkscape:collect="always"
       inkscape:isstock="true"
       style="overflow:visible;"
       id="Arrow1Mend"
       refX="0.0"
       refY="0.0"
       orient="auto"
       inkscape:stockid="Arrow1Mend">
      <path
         transform="scale(0.4) rotate(180) translate(10,0)"
         style="fill-rule:evenodd;stroke:#000000;stroke-width:1pt;stroke-opacity:1;fill:#000000;fill-opacity:1"
         d="M 0.0,0.0 L 5.0,-5.0 L -12.5,0.0 L 5.0,5.0 L 0.0,0.0 z "
         id="path4197" />
    </marker>
    <marker
       inkscape:isstock="true"
       style="overflow:visible;"
       id="Arrow1Lend"
       refX="0.0"
       refY="0.0"
       orient="auto"
       inkscape:stockid="Arrow1Lend">
      <path
         transform="scale(0.8) rotate(180) translate(12.5,0)"
         style="fill-rule:evenodd;stroke:#000000;stroke-width:1pt;stroke-opacity:1;fill:#000000;fill-opacity:1"
         d="M 0.0,0.0 L 5.0,-5.0 L -12.5,0.0 L 5.0,5.0 L 0.0,0.0 z "
         id="path4191" />
    </marker>
    <marker
       inkscape:stockid="Arrow1Mend"
       orient="auto"
       refY="0"
       refX="0"
       id="marker4371-1"
       style="overflow:visible"
       inkscape:isstock="true"
       inkscape:collect="always">
      <path
         id="path4373-2"
         d="M 0,0 5,-5 -12.5,0 5,5 0,0 Z"
         style="fill:#000000;fill-opacity:1;fill-rule:evenodd;stroke:#000000;stroke-width:1pt;stroke-opacity:1"
         transform="matrix(-0.4,0,0,-0.4,-4,0)"
         inkscape:connector-curvature="0" />
    </marker>
    <marker
       inkscape:isstock="true"
       style="overflow:visible"
       id="marker4367-2"
       refX="0"
       refY="0"
       orient="auto"
       inkscape:stockid="Arrow1Mend"
       inkscape:collect="always">
      <path
         transform="matrix(-0.4,0,0,-0.4,-4,0)"
         style="fill:#000000;fill-opacity:1;fill-rule:evenodd;stroke:#000000;stroke-width:1pt;stroke-opacity:1"
         d="M 0,0 5,-5 -12.5,0 5,5 0,0 Z"
         id="path4369-1"
         inkscape:connector-curvature="0" />
    </marker>
    <marker
       inkscape:stockid="Arrow1Mend"
       orient="auto"
       refY="0"
       refX="0"
       id="marker4540-0"
       style="overflow:visible"
       inkscape:isstock="true"
       inkscape:collect="always">
      <path
         id="path4542-6"
         d="M 0,0 5,-5 -12.5,0 5,5 0,0 Z"
         style="fill:#000000;fill-opacity:1;fill-rule:evenodd;stroke:#000000;stroke-width:1pt;stroke-opacity:1"
         transform="matrix(-0.4,0,0,-0.4,-4,0)"
         inkscape:connector-curvature="0" />
    </marker>
  </defs>
  <metadata
     id="metadata7">
    <rdf:RDF>
      <cc:Work
         rdf:about="">
        <dc:format>image/svg+xml</dc:format>
        <dc:type
           rdf:resource="http://purl.org/dc/dcmitype/StillImage" />
        <dc:title></dc:title>
      </cc:Work>
    </rdf:RDF>
  </metadata>
  <g
     id="layer1"
     inkscape:groupmode="layer"
     inkscape:label="Layer 1" />
  <path
     inkscape:connector-curvature="0"
     id="path6236"
     d="m 146.17828,453.35002 c 0,-3 0,-6 0,-9 0,-0.66667 0.29814,-1.40372 0,-2 -0.14907,-0.29815 -0.7643,0.2357 -1,0 -0.5,-0.5 0.5,-2.5 0,-3 -0.2357,-0.23571 -0.7643,0.2357 -1,0 -0.2357,-0.23571 0.14907,-0.70186 0,-1 -0.21082,-0.42164 -0.66667,-0.66667 -1,-1 0,-0.66667 0.21082,-1.36755 0,-2 -0.29814,-0.89443 -1.57836,-1.15673 -2,-2 -0.29814,-0.59629 0.29814,-1.40372 0,-2 -0.13276,-0.26551 -2.73449,-2.86725 -3,-3 -0.29814,-0.14907 -0.70186,0.14907 -1,0 -0.42164,-0.21082 -0.57836,-0.78918 -1,-1 -0.59629,-0.29815 -1.40372,0.29814 -2,0 -0.42164,-0.21082 -0.57836,-0.78918 -1,-1 -0.60722,-0.30361 -5.39278,0.30361 -6,0 -0.42164,-0.21082 -0.55279,-0.85093 -1,-1 -0.51189,-0.17063 -5.28509,0 -6,0 -0.33333,0 -0.70186,0.14907 -1,0 -0.42164,-0.21082 -0.57836,-0.78918 -1,-1 -0.62852,-0.31426 -3.37148,0.31426 -4,0 -0.42164,-0.21082 -0.57836,-0.78918 -1,-1 -0.8,-0.4 -2.2,0.4 -3,0 -0.42164,-0.21082 -0.57836,-0.78918 -1,-1 -0.59629,-0.29815 -1.5286,0.4714 -2,0 -0.2357,-0.23571 0.2357,-0.7643 0,-1 -0.47141,-0.47141 -1.5286,0.4714 -2,0 -0.2357,-0.23571 0.2357,-0.7643 0,-1 -2.06904,-2.06904 0.0809,3.16176 -2,-1 -0.14907,-0.29815 0.2357,-0.7643 0,-1 -0.2357,-0.23571 -0.70186,0.14907 -1,0 -0.46308,-0.23154 -3.411858,-3.41186 -3.999998,-4 -0.33333,-0.33334 -0.57836,-0.78918 -1,-1 -0.29814,-0.14907 -0.7643,0.2357 -1,0 -0.2357,-0.23571 0.2357,-0.7643 0,-1 -0.2357,-0.23571 -0.7643,0.2357 -1,0 -0.66667,-0.66667 0.66667,-1.33334 0,-2 -0.2357,-0.23571 -0.7643,0.2357 -1,0 -0.2357,-0.23571 0.2357,-0.7643 0,-1 -0.2357,-0.23571 -0.7643,0.2357 -1,0 -0.2357,-0.23571 0.14907,-0.70186 0,-1 -0.42164,-0.84328 -1.57836,-1.15673 -2,-2 -0.14907,-0.29815 0.14907,-0.70186 0,-1 -0.21082,-0.42164 -0.78918,-0.57837 -1,-1 -0.14907,-0.29815 0.2357,-0.7643 0,-1 -0.2357,-0.23571 -0.7643,0.2357 -1,0 -0.5,-0.5 0.5,-2.5 0,-3 -0.2357,-0.23571 -0.7643,0.2357 -1,0 -0.2357,-0.23571 0.10541,-0.68378 0,-1 -0.2357,-0.70711 -0.58655,-1.37983 -1,-2 -0.26149,-0.39224 -0.85093,-0.55279 -1,-1 -0.21082,-0.63246 0.21082,-1.36755 0,-2 -0.14907,-0.44722 -0.85093,-0.55279 -1,-1 -0.21082,-0.63246 0.21082,-1.36755 0,-2 -0.14907,-0.44722 -0.73851,-0.60777 -1,-1 -0.33333,-0.66667 -0.66667,-1.33334 -1,-2 0,-0.33334 0.14907,-0.70186 0,-1 -0.21082,-0.42164 -0.78918,-0.57837 -1,-1 -0.29814,-0.59629 0.21082,-1.36755 0,-2 -0.2357,-0.70711 -0.7643,-1.2929 -1,-2 -0.10541,-0.31623 0.2357,-0.7643 0,-1 -0.2357,-0.23571 -0.85093,0.29814 -1,0 -0.59629,-1.19257 0.42164,-2.73509 0,-4 -0.14907,-0.44722 -0.78918,-0.57837 -1,-1 -0.53241,-1.06482 0.53241,-0.93518 0,-2 -0.21082,-0.42164 -0.78918,-0.57837 -1,-1 -0.27124,-0.54249 0.27362,-3.72638 0,-4 -0.2357,-0.23571 -0.7643,0.2357 -1,0 -0.2357,-0.23571 0,-0.66667 0,-1 0,-0.33334 0,-0.66667 0,-1 0,-4 0,-8 0,-12 0,-4 0,-8 0,-12 0,-0.79796 -0.19998,-4.40006 0,-5 0.4714,-1.41422 1.52859,-2.58579 2,-4 0.10541,-0.31623 -0.14907,-0.70186 0,-1 0.21082,-0.42164 0.78918,-0.57837 1,-1 0.31426,-0.62852 -0.31426,-3.37148 0,-4 0.21082,-0.42164 0.78918,-0.57837 1,-1 0.31426,-0.62852 -0.31426,-3.37148 0,-4 0.21082,-0.42164 0.78918,-0.57837 1,-1 0.14907,-0.29815 0,-0.66667 0,-1 0,-0.33334 0,-0.66667 0,-1 0,-1.66667 0,-3.33334 0,-5 0,-5 0,-10 0,-15 0,-2.66667 0,-5.33334 0,-8 0,-0.23763 0.11206,-3.77587 0,-4 -0.21082,-0.42164 -0.78918,-0.57837 -1,-1 -0.29814,-0.59629 0.4714,-1.5286 0,-2 -0.2357,-0.2357 -0.7643,0.2357 -1,0 -2.5259,-2.52591 -0.38426,-1.15279 -1,-3 -0.2357,-0.70711 -0.7643,-1.2929 -1,-2 -0.10541,-0.31623 0.10541,-0.68377 0,-1 -0.2357,-0.70711 -0.7643,-1.2929 -1,-2 -0.12971,-0.38913 0.15519,-2.84482 0,-3 -0.2357,-0.2357 -0.85093,0.29814 -1,0 -0.32348,-0.64695 0.35921,-3.64079 0,-4 -0.2357,-0.2357 -0.85093,0.29814 -1,0 -0.89443,-0.78886 0.44721,-2.10558 0,-3 -1.52478,-3.04956 -0.79276,1.82894 -2,-3 -0.16169,-0.64676 0.16169,-1.35324 0,-2 -0.18078,-0.7231 -0.81923,-1.2769 -1,-2 -0.008,-0.0334 0.005,-2.99469 0,-3 -0.2357,-0.2357 -0.85093,0.29814 -1,0 -0.29814,-0.59629 0,-1.33334 0,-2 0,-0.33334 0.2357,-0.7643 0,-1 -2.06904,-2.06904 0.0809,3.16176 -2,-1 -0.1353,-0.27061 0,-5.56925 0,-6 0,-3.66667 0,-7.33334 0,-11 0,-2.66667 0,-5.33334 0,-8 0,-0.45036 0.15217,-2.69567 0,-3 -0.21082,-0.42164 -0.78918,-0.57837 -1,-1 -0.12928,-0.25855 0,-5.2912 0,-6 0,-4.66667 0,-9.33334 0,-14 0,-6 0,-12 0,-18 0,-1.33334 0,-2.66667 0,-4 0,-0.66667 0,-1.33334 0,-2 0,-0.33334 -0.14907,-0.70186 0,-1 0.42164,-0.84328 1.57836,-1.15673 2,-2 0.14907,-0.29814 -0.14907,-0.70186 0,-1 0.21082,-0.42164 0.78918,-0.57837 1,-1 0.14907,-0.29814 -0.2357,-0.7643 0,-1 0.2357,-0.2357 0.7643,0.2357 1,0 0.2357,-0.2357 -0.14907,-0.70186 0,-1 0.42164,-0.84328 1.57836,-1.15673 2,-2 0.14907,-0.29814 -0.14907,-0.70186 0,-1 0.42164,-0.84328 1.57836,-1.15673 2,-2 0.14907,-0.29814 -0.14907,-0.70186 0,-1 0.42164,-0.84328 1.57836,-1.15673 2,-2 0.14907,-0.29814 -0.2357,-0.7643 0,-1 0.2357,-0.2357 0.70186,0.14907 1,0 4.16176,-2.08088 -1.06904,0.069 1,-2 0.2357,-0.2357 0.7643,0.2357 1,0 0.2357,-0.2357 -0.14907,-0.70186 0,-1 0.26704,-0.53409 2.47354,-2.47354 3,-3 0.52646,-0.52647 2.46592,-2.73296 3,-3 0.29814,-0.14907 0.7643,0.2357 1,0 0.2357,-0.2357 -0.14907,-0.70186 0,-1 2.08088,-4.16176 -0.069,1.06903 2,-1 0.2357,-0.2357 -0.2357,-0.7643 0,-1 0.2357,-0.2357 0.70186,0.14907 1,0 0.42164,-0.21082 0.57836,-0.78918 1,-1 0.29814,-0.14907 0.7643,0.2357 1,0 0.2357,-0.2357 -0.2357,-0.7643 0,-1 0.2357,-0.2357 0.7643,0.2357 1,0 0.2357,-0.2357 -0.2357,-0.7643 0,-1 0.20444,-0.20444 2.60351,0.19824 3,0 0.42164,-0.21082 0.66667,-0.66667 1,-1 0.33333,-0.33334 0.66667,-0.66667 1,-1 3.316578,-3.31658 -0.94281,0.4714 1.999998,-1 0.84327,-0.42164 1.15673,-1.57836 2,-2 0.59628,-0.29814 1.40371,0.29814 2,0 0.84327,-0.42164 1.10557,-1.70186 2,-2 0.63245,-0.21082 1.33333,0 2,0 0.33333,0 0.70186,0.14907 1,0 0.84327,-0.42164 1.15673,-1.57836 2,-2 0.59628,-0.29814 1.40371,0.29814 2,0 0.84327,-0.42164 1.10557,-1.70186 2,-2 0.63245,-0.21082 1.36754,0.21082 2,0 0.44721,-0.14907 0.55279,-0.85093 1,-1 0.63245,-0.21082 1.36754,0.21082 2,0 0.44721,-0.14907 0.57836,-0.78918 1,-1 0.94281,-0.47141 2.05719,-0.5286 3,-1 0.42164,-0.21082 0.57836,-0.78918 1,-1 0.94281,-0.47141 2,-0.66667 3,-1 1,-0.66667 1.92503,-1.46252 3,-2 0.94281,-0.47141 2.25464,-0.25465 3,-1 0.74536,-0.74536 0.17689,-2.34152 1,-3 1.89494,-1.51595 5.05864,-0.54398 7,-2 0.59628,-0.44722 0.36086,-1.61652 1,-2 1.17851,-0.70711 2.73676,-0.45861 4,-1 7.0049,-3.0021 -0.37615,-0.77431 5,-4 0.90388,-0.54233 2.05719,-0.5286 3,-1 0.42164,-0.21082 0.66667,-0.66667 1,-1 1,-0.33334 2.0213,-0.60852 3,-1 0.69204,-0.27682 1.37983,-0.58655 2,-1 0.39223,-0.26149 0.55279,-0.85093 1,-1 0.63245,-0.21082 1.35324,0.16169 2,0 0.7231,-0.18078 1.29289,-0.7643 2,-1 0.31623,-0.10541 0.70186,0.14907 1,0 0.42164,-0.21082 0.60777,-0.73851 1,-1 0.50359,-2.20317 2.05719,-0.5286 3,-1 0.42164,-0.21082 0.60777,-0.73851 1,-1 1.24035,-0.8269 2.75965,-1.1731 4,-2 0.78446,-0.52298 1.10557,-1.70186 2,-2 0.63245,-0.21082 1.36754,0.21082 2,0 0.89443,-0.29814 1.15672,-1.57836 2,-2 0.94281,-0.47141 2.05719,-0.5286 3,-1 0.42164,-0.21082 0.57836,-0.78918 1,-1 0.29814,-0.14907 0.66667,0 1,0 1,-0.33334 2.05719,-0.5286 3,-1 0.84327,-0.421643 1.15672,-1.578363 2,-2.000003 0.94281,-0.47141 2.12294,-0.4153 3,-1 0.27735,-0.1849 -0.27735,-0.8151 0,-1 0.87706,-0.58471 2.05719,-0.5286 3,-1 0.42164,-0.21082 0.57836,-0.78918 1,-1 3.25245,-1.62623 2.37868,-0.25245 5,-2 0.78446,-0.52298 1.15672,-1.57836 2,-2 0.29814,-0.14907 0.70186,0.14907 1,0 0.84327,-0.42164 1.15672,-1.57836 2,-2 0.29814,-0.14907 0.70186,0.14907 1,0 4.16176,-2.08088 -1.06904,0.069 1,-2 0.2357,-0.2357 0.7643,0.2357 1,0 0.4714,-0.47141 -0.47141,-1.5286 0,-2 0.2357,-0.2357 0.7643,0.2357 1,0 0.2357,-0.2357 -0.2357,-0.7643 0,-1 0.2357,-0.2357 0.7643,0.2357 1,0 0.2357,-0.2357 -0.14907,-0.70186 0,-1 0.21082,-0.42164 0.78918,-0.57836 1,-1 0.14907,-0.29814 -0.2357,-0.7643 0,-1 0.2357,-0.2357 0.7643,0.2357 1,0 0.2357,-0.2357 -0.2357,-0.7643 0,-1 0.2357,-0.2357 0.7643,0.2357 1,0 0.2357,-0.2357 -0.2357,-0.7643 0,-1 0.2357,-0.2357 0.70186,0.14907 1,0 0.84327,-0.42164 1.15672,-1.57836 2,-2 0.29814,-0.14907 0.7643,0.2357 1,0 0.2357,-0.2357 -0.2357,-0.7643 0,-1 0.2357,-0.2357 0.7643,0.2357 1,0 0.2357,-0.2357 -0.2357,-0.7643 0,-1 0.66436,-0.66436 1.33564,0.66436 2,0 0.2357,-0.2357 -0.2357,-0.7643 0,-1 0.2357,-0.2357 0.7643,0.2357 1,0 0.2357,-0.2357 -0.2357,-0.7643 0,-1 0.4714,-0.47141 1.52859,0.4714 2,0 0.2357,-0.2357 -0.2357,-0.7643 0,-1 0.2357,-0.2357 0.70186,0.14907 1,0 2.11862,-1.05931 -0.11862,-0.94069 2,-2 0.29814,-0.14907 0.7643,0.2357 1,0 0.2357,-0.2357 0,-0.66667 0,-1 0.33333,-0.33333 0.60777,-0.73851 1,-1 0.62017,-0.41345 1.37983,-0.58655 2,-1 0.39223,-0.26149 0.66667,-0.66667 1,-1 0.66667,-0.66667 1.21553,-1.47703 2,-2 0.27735,-0.1849 0.7643,0.2357 1,0 0.52705,-0.52705 0.37983,-1.58655 1,-2 0.5547,-0.3698 1.4453,0.3698 2,0 0.62017,-0.41345 0.58655,-1.37983 1,-2 -0.0998,-1.98106 1.47295,-0.47296 2,-1 2.06903,-2.06904 -3.16176,0.0809 1,-2 0.29814,-0.14907 0.70186,0.14907 1,0 0.42164,-0.21082 0.57836,-0.78918 1,-1 0.29814,-0.14907 0.70186,0.14907 1,0 2.11862,-1.05931 -0.11862,-0.94069 2,-2 0.29814,-0.14907 0.66667,0 1,0 0.66667,-0.33333 1.37983,-0.58655 2,-1 0.39223,-0.26149 0.57836,-0.78918 1,-1 0.94281,-0.47141 2.0213,-0.60852 3,-1 0.69204,-0.27682 1.29289,-0.7643 2,-1 0.31623,-0.10541 0.68377,0.10541 1,0 0.70711,-0.2357 1.37982,-0.58655 2,-1 0.39223,-0.26149 0.55279,-0.85093 1,-1 0.63245,-0.21082 1.36754,0.21082 2,0 0.44721,-0.14907 0.57836,-0.78918 1,-1 0.29814,-0.14907 0.70186,0.14907 1,0 0.42164,-0.21082 0.57836,-0.78918 1,-1 0.62852,-0.31426 3.37148,0.31426 4,0 0.42164,-0.21082 0.55279,-0.85093 1,-1 0.3667,-0.12223 5.82843,0 6,0 0.33333,0 0.68377,0.10541 1,0 0.70711,-0.2357 1.29289,-0.7643 2,-1 0.57927,-0.19309 3.13341,0 4,0 1,0 2,0 3,0 1,0 2.05132,0.31623 3,0 0.31623,-0.10541 -0.31623,-0.89459 0,-1 0.94868,-0.31623 2,0 3,0 0.66667,0 1.33333,0 2,0 3.33333,0 6.66667,0 10,0 5,0 10,0 15,0 0.24253,0 2.96784,-0.0322 3,0 0.2357,0.2357 -0.2357,0.7643 0,1 0.4714,0.4714 1.40371,-0.29814 2,0 0.42164,0.21082 0.57836,0.78918 1,1 0.59628,0.29814 1.36754,-0.21082 2,0 0.70711,0.2357 1.29289,0.7643 2,1 0.31623,0.10541 0.70186,-0.14907 1,0 0.42164,0.21082 0.57836,0.78918 1,1 0.29814,0.14907 0.66667,0 1,0 0.66667,0 1.36754,-0.21082 2,0 0.44721,0.14907 0.57836,0.78918 1,1 0.66362,0.33181 5.03012,-0.32329 6,0 0.70711,0.2357 1.29289,0.7643 2,1 1.06261,0.3542 2.93739,-0.35421 4,0 0.70711,0.2357 1.2769,0.81922 2,1 0.64676,0.16169 1.33333,0 2,0 2,0 4,0 6,0 0.66666,0 1.34628,-0.13075 2,0 1.03362,0.20672 1.96638,0.79327 3,1 0.98058,0.19611 2.05131,-0.31623 3,0 0.7071,0.2357 1.29289,0.7643 2,1 0.9,0.3 2.1,-0.3 3,0 0.44721,0.14907 0.57836,0.78918 1,1 0.29814,0.14907 0.66666,0 1,0 0.66666,0 1.36754,-0.21082 2,0 0.44721,0.14907 0.57836,0.78918 1,1 0.29814,0.14907 0.70186,-0.14907 1,0 0.42164,0.21082 0.55278,0.85093 1,1 0.63245,0.21082 1.36754,-0.21082 2,0 0.44721,0.14907 0.57836,0.78918 1,1 0.29814,0.14907 0.68377,-0.10541 1,0 0.7071,0.2357 1.29289,0.7643 2,1 0.31623,0.10541 0.70186,-0.14907 1,0 0.42164,0.21082 0.55278,0.85093 1,1 0.63245,0.21082 1.36754,-0.21082 2,0 0.44721,0.14907 0.57836,0.78918 1,1 0.62852,0.31426 3.37148,-0.31426 4,0 0.42164,0.21082 0.57836,0.78918 1,1 0.59628,0.29814 1.36754,-0.21082 2,0 0.7071,0.2357 1.29289,0.7643 2,1 0.31623,0.10541 0.68377,-0.10541 1,0 0.7071,0.2357 1.29289,0.7643 2,1 0.94868,0.31623 2.05131,-0.31623 3,0 0.44721,0.14907 0.55278,0.85093 1,1 0.63245,0.21082 1.34628,-0.13075 2,0 1.03362,0.20672 1.96638,0.79327 3,1 1.6343,0.32686 3.35601,-0.274 5,0 2.0795,0.34658 3.9205,1.65341 6,2 1.64399,0.274 3.3657,-0.32686 5,0 1.03362,0.20672 1.96638,0.79327 3,1 0.0385,0.008 2.9951,-0.005 3,0 0.2357,0.2357 -0.29814,0.85093 0,1 0.62852,0.31426 3.37148,-0.31426 4,0 0.42163,0.21082 0.57836,0.78918 1,1 0.29814,0.14907 0.67662,-0.0808 1,0 1.02262,0.25565 1.97738,0.74434 3,1 2,0.5 0,-1 3,0 0.44721,0.14907 0.55278,0.85093 1,1 0.9,0.3 2.1,-0.3 3,0 0.7071,0.2357 1.29289,0.7643 2,1 0.84193,0.28064 4.40463,-0.29768 5,0 0.42163,0.21082 0.57836,0.78918 1,1 0.29814,0.14907 0.66666,0 1,0 0.66666,0 1.33333,0 2,0 1.66666,0 3.33333,0 5,0 6,0 12,0 18,0 8.66666,0 17.33333,0 26,0 2.33333,0 4.66666,0 7,0 1.03826,0 3.15339,-0.21165 4,0 1.30098,0.32524 3.75858,1.17238 5,2 0.39223,0.26149 0.60777,0.73851 1,1 0.62017,0.41345 1.37982,0.58655 2,1 0.39223,0.26149 0.60777,0.73851 1,1 0.62017,0.41345 1.47295,0.47295 2,1 0.52704,0.52704 0.47295,1.47295 1,2 0.2357,0.2357 0.68377,-0.10541 1,0 0.7071,0.2357 1.47295,0.47295 2,1 2.06903,2.06903 -3.16176,-0.0809 1,2 0.29814,0.14907 0.70186,-0.14907 1,0 0.42163,0.21082 0.57836,0.78918 1,1 0.29814,0.14907 0.70186,-0.14907 1,0 1.69431,0.84715 2.04692,3.57039 3,5 0.52297,0.78446 1.57836,1.15672 2,2 0.14907,0.29814 -0.14907,0.70186 0,1 2.08088,4.16176 -0.069,-1.06904 2,1 0.2357,0.2357 -0.2357,0.7643 0,1 0.2357,0.2357 0.7643,-0.2357 1,0 0.2357,0.2357 -0.14907,0.70186 0,1 0.21082,0.42164 0.78918,0.57836 1,1 0.14907,0.29814 -0.2357,0.7643 0,1 0.2357,0.2357 0.7643,-0.2357 1,0 0.2357,0.2357 -0.2357,0.7643 0,1 0.2357,0.2357 0.85093,-0.29814 1,0 1,2.000003 -0.5,1.5 0,3.000003 0.33333,0.66666 0.66666,1.33333 1,2 0,0.33333 -0.10541,0.68377 0,1 0.2357,0.7071 0.81922,1.2769 1,2 0.16169,0.64676 -0.16169,1.35324 0,2 0.18077,0.7231 0.7643,1.29289 1,2 0.21597,0.64791 0,4.1813 0,5 0,0.33333 -0.2357,0.7643 0,1 0.2357,0.2357 0.7643,-0.2357 1,0 0.2357,0.2357 0,0.66666 0,1 0,0.33333 0,0.66666 0,1 0,2 0,4 0,6 0,0.66666 -0.16169,1.35324 0,2 0.18077,0.7231 0.72318,1.30795 1,2 0.39148,0.9787 0.74434,1.97738 1,3 0.22597,0.9039 0,4.82471 0,6 0,4.33333 0,8.66666 0,13 0,4.33333 0,8.66666 0,13 0,0.84839 -0.16587,5.33653 0,6 0.18077,0.7231 0.7643,1.29289 1,2 0.10541,0.31623 0,0.66666 0,1 0,2 0,4 0,6 0,0.66666 -0.16169,1.35324 0,2 0.18077,0.7231 0.7643,1.29289 1,2 0.21755,0.65266 0,4.80439 0,6 0,4.33333 0,8.66666 0,13 0,2.66666 0,5.33333 0,8 0,0.23763 0.11206,3.77587 0,4 -0.21082,0.42163 -0.78918,0.57836 -1,1 -0.14907,0.29814 0.14907,0.70186 0,1 -0.21082,0.42163 -0.73851,0.60777 -1,1 -3.62529,7.25058 1.05409,-1.58114 -2,3 -0.41345,0.62017 -0.47296,1.47295 -1,2 -0.2357,0.2357 -0.7643,-0.2357 -1,0 -0.0641,0.0641 -1.87582,3.81373 -2,4 -0.26149,0.39223 -0.78918,0.57836 -1,1 -0.14907,0.29814 0.2357,0.7643 0,1 -0.84984,0.84983 -2.27889,1.03852 -3,2 -0.4,0.53333 0.21082,1.36754 0,2 -0.14907,0.44721 -0.73851,0.60777 -1,1 -0.41345,0.62017 -0.58655,1.37982 -1,2 -0.98098,1.47147 -3.01902,2.52852 -4,4 -0.12418,0.18627 -1.93592,3.93592 -2,4 -0.52705,0.52704 -1.47296,0.47295 -2,1 -2.4288,2.4288 0.29736,1.46842 -2,3 -0.62018,0.41345 -1.37983,0.58655 -2,1 -0.8629,0.57526 -2.21892,2.21891 -3,3 -0.33334,0.33333 -0.57837,0.78918 -1,1 -0.29814,0.14907 -0.7643,-0.2357 -1,0 -0.52705,0.52704 -0.47296,1.47295 -1,2 -0.2357,0.2357 -0.7643,-0.2357 -1,0 -0.2357,0.2357 0.2357,0.7643 0,1 -0.2357,0.2357 -0.70186,-0.14907 -1,0 -0.42164,0.21082 -0.57837,0.78918 -1,1 -0.29814,0.14907 -0.7643,-0.2357 -1,0 -0.47141,0.4714 0.4714,1.52859 0,2 -0.2357,0.2357 -0.7643,-0.2357 -1,0 -2.06904,2.06903 3.16176,-0.0809 -1,2 -0.29814,0.14907 -0.85093,-0.29814 -1,0 -0.29814,0.59628 0.21082,1.36754 0,2 -0.14907,0.44721 -0.78918,0.57836 -1,1 -0.14907,0.29814 0.14907,0.70186 0,1 -2.28831,4.5766 0.41447,-4.24342 -2,3 -0.10541,0.31623 0,0.66666 0,1 -0.33334,0.33333 -0.78918,0.57836 -1,1 -0.14907,0.29814 0.14907,0.70186 0,1 -0.21082,0.42163 -0.78918,0.57836 -1,1 -0.13147,0.26294 0,3.47708 0,4 0,0.66666 0,1.33333 0,2 0,0.33333 0.14907,0.70186 0,1 -0.21082,0.42163 -0.85093,0.55278 -1,1 -0.31623,0.94868 0,2 0,3 0,2 0,4 0,6 0,0.66666 0.29814,1.40371 0,2 -0.14907,0.29814 -0.7643,-0.2357 -1,0 -0.2357,0.2357 0,0.66666 0,1 0,0.66666 0,1.33333 0,2 0,5 0,10 0,15 0,5 0,10 0,15 0,1.02095 -0.16195,6.51417 0,7 0.14907,0.44721 0.78918,0.57836 1,1 0.53241,1.06482 -0.53241,0.93518 0,2 0.21082,0.42163 0.78918,0.57836 1,1 0.4,0.8 -0.4,2.2 0,3 0.21082,0.42163 0.78918,0.57836 1,1 0.18081,0.36163 0,4.30446 0,5 0,3.66666 0,7.33333 0,11 0,6.66666 0,13.33333 0,20 0,2 0,4 0,6 0,0.66666 0,1.33333 0,2 0,0.66666 0.21082,1.36754 0,2 -0.14907,0.44721 -0.88567,0.54267 -1,1 -0.24254,0.97014 0.24253,2.02985 0,3 -0.11433,0.45733 -0.73851,0.60776 -1,1 -0.41345,0.62017 -0.81923,1.2769 -1,2 -0.16169,0.64676 0.16169,1.35324 0,2 -0.40361,1.61442 -0.98348,1.98348 -2,3 -0.33334,0.33333 -0.85093,0.55278 -1,1 -0.21082,0.63245 0.21082,1.36754 0,2 -0.29814,0.89442 -1.47703,1.21553 -2,2 -0.41345,0.62017 -0.58655,1.37982 -1,2 -0.98098,1.47147 -3.01902,2.52852 -4,4 -0.97152,1.45728 -0.6243,2.08286 -2,3 -0.62018,0.41345 -1.47296,0.47295 -2,1 -0.52705,0.52704 -0.58655,1.37982 -1,2 -0.98098,1.47147 -3.01902,2.52852 -4,4 -0.41345,0.62017 -0.37983,1.58655 -1,2 -0.5547,0.3698 -1.5286,-0.47141 -2,0 -0.47141,0.4714 0.29814,1.40371 0,2 -0.14907,0.29814 -0.7643,-0.23571 -1,0 -0.52705,0.52704 -0.47296,1.47295 -1,2 -0.2357,0.2357 -0.66667,0 -1,0 -0.33334,0.33333 -0.73851,0.60776 -1,1 -0.41345,0.62017 -0.47296,1.47295 -1,2 -0.2357,0.2357 -0.70186,-0.14907 -1,0 -0.42164,0.21082 -0.57837,0.78918 -1,1 -0.29814,0.14907 -0.72265,-0.1849 -1,0 -0.78447,0.52297 -1.21554,1.47702 -2,2 -0.27735,0.1849 -0.7643,-0.23571 -1,0 -0.52705,0.52704 -0.37983,1.58655 -1,2 -0.5547,0.3698 -1.4453,-0.3698 -2,0 -0.62018,0.41345 -0.37983,1.58655 -1,2 -0.5547,0.3698 -1.33334,0 -2,0 -0.33334,0.66666 -0.47296,1.47295 -1,2 -3.90274,3.90273 -0.53705,-0.23148 -3,1 -1.07497,0.53748 -1.92503,1.46251 -3,2 -0.29814,0.14907 -0.70186,-0.14907 -1,0 -0.42164,0.21082 -0.55279,0.85093 -1,1 -4.55229,0 -0.0572,-0.47141 -3,1 -0.29814,0.14907 -0.72265,-0.1849 -1,0 -0.78447,0.52297 -1.21554,1.47702 -2,2 -0.27735,0.1849 -0.68377,-0.10541 -1,0 -0.70711,0.2357 -1.2929,0.76429 -2,1 -0.31623,0.10541 -0.68377,-0.10541 -1,0 -0.70711,0.2357 -1.37983,0.58655 -2,1 -0.39223,0.26148 -0.55279,0.85093 -1,1 -0.63246,0.21082 -1.36755,-0.21082 -2,0 -0.44722,0.14907 -0.55279,0.85093 -1,1 -0.63246,0.21082 -1.36755,-0.21082 -2,0 -0.44722,0.14907 -0.57837,0.78918 -1,1 -0.29814,0.14907 -0.66667,0 -1,0 -0.33334,0.33333 -0.57837,0.78918 -1,1 -0.8,0.4 -2.2,-0.4 -3,0 -0.29814,0.14907 0.2357,0.76429 0,1 -0.2357,0.2357 -0.66667,0 -1,0 -1,0 -2,0 -3,0 -0.65711,0 -2.4358,-0.18807 -3,0 -0.70711,0.2357 -1.2929,0.76429 -2,1 -0.93279,0.31093 -4.07576,-0.30808 -5,0 -0.44722,0.14907 -0.57837,0.78918 -1,1 -0.66273,0.33136 -3.16188,-0.27938 -4,0 -0.70711,0.2357 -1.2929,0.76429 -2,1 -0.9,0.3 -2.1,-0.3 -3,0 -0.44722,0.14907 -0.55279,0.85093 -1,1 -1.5,0.5 -3.5,-0.5 -5,0 -0.44722,0.14907 -0.55279,0.85093 -1,1 -0.6247,0.20823 -7.46237,0 -8,0 -0.33334,0 -0.68377,-0.10541 -1,0 -0.70711,0.2357 -1.2769,0.81922 -2,1 -0.64676,0.16169 -1.33334,0 -2,0 -1.05065,0 -4.00765,-0.19847 -5,0 -1.03362,0.20672 -1.96638,0.79327 -3,1 -0.65372,0.13074 -1.33334,0 -2,0 -2,0 -4,0 -6,0 -6.33334,0 -12.66667,0 -19,0 -3.33334,0 -6.66667,0 -10,0 -0.52292,0 -3.73706,0.13147 -4,0 -0.42164,-0.21082 -0.57836,-0.78918 -1,-1 -0.8,-0.4 -2.2,0.4 -3,0 -0.42164,-0.21082 -0.60777,-0.73852 -1,-1 -1.72361,-1.14907 -1.51159,-1 -3,-1 -0.33334,0 -0.70186,0.14907 -1,0 -0.42164,-0.21082 -0.57836,-0.78918 -1,-1 -0.29814,-0.14907 -0.70186,0.14907 -1,0 -0.42164,-0.21082 -0.57836,-0.78918 -1,-1 -0.8,-0.4 -2.2,0.4 -3,0 -0.42164,-0.21082 -0.57836,-0.78918 -1,-1 -0.39649,-0.19825 -2.79557,0.20443 -3,0 -0.2357,-0.23571 0.2357,-0.7643 0,-1 -0.47141,-0.47141 -1.40372,0.29814 -2,0 -0.42164,-0.21082 -0.57836,-0.78918 -1,-1 -0.8,-0.4 -2.2,0.4 -3,0 -0.42164,-0.21082 -0.57836,-0.78918 -1,-1 -0.59629,-0.29815 -1.40372,0.29814 -2,0 -0.42164,-0.21082 -0.57836,-0.78918 -1,-1 -0.62852,-0.31426 -3.37148,0.31426 -4,0 -0.42164,-0.21082 -0.55279,-0.85093 -1,-1 -1.3654,-0.45513 -4.63461,0.45513 -6,0 -0.44722,-0.14907 -0.57836,-0.78918 -1,-1 -0.29748,-0.14874 -5.57934,0 -6,0 -4.33333,0 -8.66667,0 -13,0 -4.33333,0 -8.66667,0 -13,0 -0.69554,0 -4.63837,-0.18082 -5,0 -0.42164,0.21082 -0.57836,0.78918 -1,1 -0.29814,0.14907 -0.70186,-0.14907 -1,0 -0.42164,0.21082 -0.57836,0.78918 -1,1 -0.29814,0.14907 -0.70186,-0.14907 -1,0 -0.42164,0.21082 -0.57836,0.78918 -1,1 -0.29814,0.14907 -0.70186,-0.14907 -1,0 -0.42164,0.21082 -0.57836,0.78918 -1,1 -0.29814,0.14907 -0.70186,-0.14907 -1,0 -0.84328,0.42163 -1.15673,1.57836 -2,2 -0.29814,0.14907 -0.70186,-0.14907 -1,0 -0.42164,0.21082 -0.66667,0.66666 -1,1 -0.33333,0.33333 -0.57836,0.78918 -1,1 -0.29814,0.14907 -0.7643,-0.23571 -1,0 -0.52705,0.52704 -0.47296,1.47295 -1,2 -0.2357,0.2357 -0.70186,-0.14907 -1,0 -0.42164,0.21082 -0.57836,0.78918 -1,1 -0.29814,0.14907 -0.66667,0 -1,0 -0.33333,0.33333 -0.57836,0.78918 -1,1 -0.29814,0.14907 -0.70186,-0.14907 -1,0 -0.42164,0.21082 -0.57836,0.78918 -1,1 -0.29814,0.14907 -0.70186,-0.14907 -1,0 -1.2,0.6 -1.8,2.4 -3,3 -0.29814,0.14907 -0.70186,-0.14907 -1,0 -0.42164,0.21082 -0.57836,0.78919 -1,0.99999 -0.29814,0.1491 -0.70186,-0.1491 -1,0 -0.42164,0.2108 -0.57836,0.7892 -1,1 -0.29814,0.1491 -0.70186,-0.1491 -1,0 -0.42164,0.2108 -0.57836,0.7892 -1,1 -0.29814,0.1491 -0.70186,-0.1491 -1,0 -0.42164,0.2108 -0.57836,0.7892 -1,1 -0.29814,0.1491 -0.70186,-0.1491 -1,0 -0.42164,0.2108 -0.55279,0.8509 -1,1 -0.63246,0.2108 -1.36755,-0.2108 -2,0 -0.44721,0.1491 -0.57836,0.7892 -1,1 -0.29814,0.1491 -0.68377,-0.1054 -1,0 -0.70711,0.2357 -1.29289,0.7643 -2,1 -0.31623,0.1054 -0.70186,-0.1491 -1,0 -4.57661,2.2883 4.24342,-0.4145 -3,2 -0.31623,0.1054 -0.66667,0 -1,0 -0.33333,0.3333 -0.57836,0.7892 -1,1 -0.29814,0.1491 -0.7643,-0.2357 -1,0 -0.2357,0.2357 0.29814,0.8509 0,1 -0.59629,0.2981 -1.36755,-0.2108 -2,0 -0.44721,0.1491 -0.57836,0.7892 -1,1 -0.30434,0.1522 -2.54964,0 -3,0 -0.45036,0 -2.69567,-0.1522 -3,0 -2.47141,1.2357 0.34518,1 -2,1 -0.71491,0 -5.48811,-0.1706 -6,0 -0.44721,0.1491 -0.57836,0.7892 -1,1 -0.25855,0.1293 -5.2912,0 -6,0 -4.33333,0 -8.66667,0 -13,0 -6.66667,0 -13.33333,0 -20,0 -0.24253,0 -2.96784,0.032 -3,0 -0.2357,-0.2357 0.2357,-0.7643 0,-1 -0.2357,-0.2357 -0.7643,0.2357 -1,0 -0.2357,-0.2357 0.2357,-0.7643 0,-1 -0.2357,-0.2357 -0.7643,0.2357 -1,0 -0.2357,-0.2357 0.2357,-0.7643 0,-1 -0.2357,-0.2357 -0.70186,0.1491 -1,0 -0.42164,-0.2108 -0.57836,-0.7892 -1,-1 -0.29814,-0.1491 -0.66667,0 -1,0 -0.33333,-0.3333 -0.57836,-0.7892 -1,-1 -0.29814,-0.1491 -0.70186,0.1491 -1,0 -0.84327,-0.4216 -1.15673,-1.5784 -2,-2 -0.29814,-0.1491 -0.70186,0.1491 -1,0 -0.42164,-0.2108 -0.57836,-0.7892 -1,-1 -0.29814,-0.1491 -0.7643,0.2357 -1,0 -0.2357,-0.2357 0.2357,-0.7643 0,-1 -0.2357,-0.2357 -0.7643,0.2357 -1,0 -0.2357,-0.2357 0.2357,-0.7643 0,-1 -0.2357,-0.2357 -0.7643,0.2357 -1,0 -0.66667,-0.6667 0.66667,-1.3333 0,-2 -0.2357,-0.2357 -0.7643,0.2357 -1,0 -0.47141,-0.4714 0.4714,-1.52859 0,-1.99999 -0.2357,-0.23571 -0.7643,0.2357 -1,0 -0.0965,-0.0965 0.0809,-1.59539 0,-2 -0.26954,-1.34768 -0.66667,-2.66667 -1,-4 z"
     style="opacity:1;fill:#0095ff;fill-opacity:0.0935961;fill-rule:evenodd;stroke:none;stroke-width:1px;stroke-linecap:butt;stroke-linejoin:miter;stroke-opacity:1" />
  <path
     inkscape:connector-curvature="0"
     id="path4182"
     d="m 289.17088,275.9991 64.05281,-64.05281"
     style="fill:none;fill-rule:evenodd;stroke:#000000;stroke-width:1px;stroke-linecap:butt;stroke-linejoin:miter;stroke-opacity:1;marker-end:url(#Arrow1Mend)" />
  <path
     inkscape:connector-curvature="0"
     id="path4490"
     d="M 289.17088,275.9991 263.85582,181.52203"
     style="fill:none;fill-rule:evenodd;stroke:#000000;stroke-width:1px;stroke-linecap:butt;stroke-linejoin:miter;stroke-opacity:1;marker-end:url(#marker4498)" />
  <path
     inkscape:connector-curvature="0"
     id="path4532"
     d="M 461.74073,323.33512 428.77233,304.3008"
     style="fill:none;fill-rule:evenodd;stroke:#000000;stroke-width:1px;stroke-linecap:butt;stroke-linejoin:miter;stroke-opacity:1;marker-end:url(#marker4540)" />
  <path
     style="fill:none;fill-rule:evenodd;stroke:#000000;stroke-width:1px;stroke-linecap:butt;stroke-linejoin:miter;stroke-opacity:1;marker-end:url(#marker4367)"
     d="m 405.17219,336.77015 -32.9684,-19.03432"
     id="path4586"
     inkscape:connector-curvature="0" />
  <path
     style="fill:none;fill-rule:evenodd;stroke:#000000;stroke-width:1px;stroke-linecap:butt;stroke-linejoin:miter;stroke-opacity:1;marker-end:url(#marker4371)"
     d="M 439.11331,385.56052 406.14491,366.5262"
     id="path4820"
     inkscape:connector-curvature="0" />
  <path
     inkscape:connector-curvature="0"
     id="path4822"
     d="m 382.54477,398.99555 -32.9684,-19.03432"
     style="fill:none;fill-rule:evenodd;stroke:#000000;stroke-width:1px;stroke-linecap:butt;stroke-linejoin:miter;stroke-opacity:1;marker-end:url(#marker4375)" />
  <path
     inkscape:connector-curvature="0"
     id="path6232"
     d="M 399.12597,166.04401 467.71534,97.45464"
     style="fill:#b3b3b3;fill-rule:evenodd;stroke:#cccccc;stroke-width:2;stroke-linecap:butt;stroke-linejoin:miter;stroke-miterlimit:4;stroke-dasharray:16, 16;stroke-dashoffset:0;stroke-opacity:1" />
  <path
     sodipodi:nodetypes="ccc"
     inkscape:connector-curvature="0"
     id="path3338"
     d="M 142.8626,352.02655 316.99648,177.89268 c 0,0 35.11729,-21.02877 82.66803,-11.60433"
     style="fill:none;fill-opacity:1;fill-rule:evenodd;stroke:#000000;stroke-width:1px;stroke-linecap:butt;stroke-linejoin:miter;stroke-opacity:1" />
  <path
     style="fill:none;fill-opacity:1;fill-rule:evenodd;stroke:#000000;stroke-width:1px;stroke-linecap:butt;stroke-linejoin:miter;stroke-opacity:1"
     d="M 213.53142,422.70601 387.6653,248.57213 c 0,0 21.02877,-35.11729 11.60433,-82.66803"
     id="path3340"
     inkscape:connector-curvature="0"
     sodipodi:nodetypes="ccc" />
  <path
     inkscape:connector-curvature="0"
     id="path3342"
     d="m 213.78518,422.20943 -70.75,-70.75"
     style="fill:none;fill-opacity:1;fill-rule:evenodd;stroke:#000000;stroke-width:1px;stroke-linecap:butt;stroke-linejoin:miter;stroke-opacity:1" />
  <path
     inkscape:connector-curvature="0"
     id="path6244"
     d="m 179.18178,386.43551 -34.74826,-34.75096 64.77864,-64.77864 64.77863,-64.77863 7.18561,26.90419 c 3.95208,14.7973 7.42634,27.0678 7.72057,27.26777 0.31523,0.21425 12.90861,-12.00473 30.65996,-29.74845 22.62737,-22.61763 30.125,-29.83242 30.125,-28.98858 0,1.93501 0.6784,1.25509 2.95439,-2.961 2.47491,-4.5846 2.48302,-4.58039 -2.95439,-1.53694 -2.78598,1.55937 -3.08877,1.85852 -2.12074,2.09524 0.97772,0.23909 -2.82729,4.23191 -28.35496,29.75452 -16.21632,16.21311 -29.56881,29.37561 -29.6722,29.25 -0.10338,-0.1256 -3.37623,-12.15107 -7.273,-26.72325 l -7.08502,-26.49488 21.37796,-21.40303 c 20.75114,-20.77548 21.49525,-21.45908 25.37796,-23.3142 9.3049,-4.4458 22.89362,-8.49849 34.75,-10.36382 8.23147,-1.29503 28.45681,-1.29107 36.33417,0.007 6.45135,1.06318 5.72409,0.11145 6.92598,9.06369 1.06962,7.96694 1.07164,23.50779 0.004,31.5 -1.66941,12.49834 -5.78011,27.03308 -10.39359,36.75 l -2.25524,4.75 -86.68355,86.6254 -86.68366,86.62541 -34.74826,-34.75096 z"
     style="opacity:1;fill:none;fill-opacity:1;stroke:none;stroke-width:1;stroke-miterlimit:4;stroke-dasharray:8, 8;stroke-dashoffset:0;stroke-opacity:1" />
  <path
     inkscape:connector-curvature="0"
     id="path6246"
     d="m 179.18178,386.43551 -34.74826,-34.75096 64.77864,-64.77864 64.77863,-64.77863 7.18561,26.90419 c 3.95208,14.7973 7.42634,27.0678 7.72057,27.26777 0.31523,0.21425 12.90861,-12.00473 30.65996,-29.74845 22.62737,-22.61763 30.125,-29.83242 30.125,-28.98858 0,1.93501 0.6784,1.25509 2.95439,-2.961 2.47491,-4.5846 2.48302,-4.58039 -2.95439,-1.53694 -2.78598,1.55937 -3.08877,1.85852 -2.12074,2.09524 0.97772,0.23909 -2.82729,4.23191 -28.35496,29.75452 -16.21632,16.21311 -29.56881,29.37561 -29.6722,29.25 -0.10338,-0.1256 -3.37623,-12.15107 -7.273,-26.72325 l -7.08502,-26.49488 21.37796,-21.40303 c 20.75114,-20.77548 21.49525,-21.45908 25.37796,-23.3142 9.3049,-4.4458 22.89362,-8.49849 34.75,-10.36382 8.23147,-1.29503 28.45681,-1.29107 36.33417,0.007 6.45135,1.06318 5.72409,0.11145 6.92598,9.06369 1.06962,7.96694 1.07164,23.50779 0.004,31.5 -1.66941,12.49834 -5.78011,27.03308 -10.39359,36.75 l -2.25524,4.75 -86.68355,86.6254 -86.68366,86.62541 -34.74826,-34.75096 z"
     style="opacity:1;fill:none;fill-opacity:1;stroke:none;stroke-width:1;stroke-miterlimit:4;stroke-dasharray:8, 8;stroke-dashoffset:0;stroke-opacity:1" />
  <path
     inkscape:connector-curvature="0"
     id="path6252"
     d="m 179.17425,386.12551 -34.4904,-34.50127 64.45271,-64.45852 c 35.44899,-35.45219 64.55259,-64.35864 64.67466,-64.23657 0.12208,0.12207 3.38958,12.08957 7.26111,26.59444 3.87154,14.50488 7.29594,26.62927 7.60977,26.94311 0.31384,0.31383 14.27824,-13.1315 31.03201,-29.87852 16.75377,-16.74701 30.46371,-29.77688 30.46652,-28.95526 0.003,0.82161 1.0986,-0.30615 2.43507,-2.50615 1.33648,-2.2 2.06622,-4.13099 1.62166,-4.29108 -1.18677,-0.42736 -8.13584,3.86234 -7.61692,4.70197 0.24308,0.39331 -12.50209,13.65338 -28.32259,29.46683 l -28.76455,28.75172 -7.06617,-26.31472 -7.06616,-26.31472 21.61493,-21.73617 21.61492,-21.73617 8.52235,-3.39454 c 19.13734,-7.6226 40.04398,-10.74164 59.03797,-8.80782 6.25183,0.63651 11.73129,1.52162 12.17657,1.96689 1.42301,1.42302 2.44664,23.33767 1.60573,34.3768 -0.91048,11.95238 -4.33879,26.38373 -8.96674,37.7452 l -3.08998,7.58581 -86.61278,86.75 c -47.63702,47.7125 -86.84374,86.75 -87.12604,86.75 -0.28229,0 -16.03394,-15.52557 -35.00365,-34.50126 z"
     style="opacity:1;fill:#f9f9f9;fill-opacity:1;stroke:none;stroke-width:1;stroke-miterlimit:4;stroke-dasharray:8, 8;stroke-dashoffset:0;stroke-opacity:1" />
  <path
     style="fill:#000000;fill-opacity:1;fill-rule:evenodd;stroke:#000000;stroke-width:1px;stroke-linecap:butt;stroke-linejoin:miter;stroke-opacity:1;marker-end:url(#marker4385)"
     d="m 485.86591,160.95669 -36.7105,10.07768"
     id="path4379"
     inkscape:connector-curvature="0" />
  <path
     inkscape:connector-curvature="0"
     id="path4381"
     d="m 455.66934,210.64237 -36.7105,10.07768"
     style="fill:#000000;fill-opacity:1;fill-rule:evenodd;stroke:#000000;stroke-width:1px;stroke-linecap:butt;stroke-linejoin:miter;stroke-opacity:1;marker-end:url(#marker4393)" />
  <path
     inkscape:connector-curvature="0"
     id="path4383"
     d="m 514.23249,220.78426 -36.71051,10.07768"
     style="fill:#000000;fill-opacity:1;fill-rule:evenodd;stroke:#000000;stroke-width:1px;stroke-linecap:butt;stroke-linejoin:miter;stroke-opacity:1;marker-end:url(#marker4389)" />
  <g
     id="g4606"
     transform="matrix(0.29362843,0,0,0.29362832,374.59641,94.58985)">
    <g
       id="g4608"
       transform="matrix(1.0629921,0,0,-1.0629921,-186.02362,789.27165)"
       xml:space="preserve"
       stroke-miterlimit="10.433"
       font-style="normal"
       font-variant="normal"
       font-weight="normal"
       font-stretch="normal"
       font-size-adjust="none"
       letter-spacing="normal"
       word-spacing="normal"
       style="font-style:normal;font-variant:normal;font-weight:normal;font-stretch:normal;letter-spacing:normal;word-spacing:normal;text-anchor:start;fill:none;fill-opacity:1;fill-rule:evenodd;stroke:#000000;stroke-width:3.4056654;stroke-linecap:butt;stroke-linejoin:miter;stroke-miterlimit:10.43299961;stroke-dasharray:none;stroke-dashoffset:0;stroke-opacity:1"><path
         d="m 470.61,422.39 4.83,0 c 3.75,0 4.14,-0.8 4.14,-2.24 0,-0.36 0,-0.95 -0.34,-2.44 -0.11,-0.25 -0.16,-0.45 -0.16,-0.56 0,-0.39 0.3,-0.59 0.6,-0.59 0.5,0 0.5,0.15 0.75,1.05 l 2.75,10.81 c 0.14,0.54 0.14,0.65 0.14,0.79 0,0.1 -0.1,0.55 -0.6,0.55 -0.5,0 -0.54,-0.25 -0.75,-1.05 -1.04,-3.87 -2.18,-4.78 -6.42,-4.78 l -4.53,0 3.19,12.66 c 0.43,1.75 0.5,1.94 2.68,1.94 l 6.58,0 c 6.13,0 7.27,-1.64 7.27,-5.47 0,-1.16 0,-1.35 -0.14,-2.7 -0.11,-0.65 -0.11,-0.74 -0.11,-0.9 0,-0.25 0.15,-0.59 0.61,-0.59 0.54,0 0.59,0.3 0.69,1.25 l 1,8.61 c 0.15,1.34 -0.1,1.34 -1.35,1.34 l -24.4,0 c -1,0 -1.5,0 -1.5,-1 0,-0.54 0.45,-0.54 1.39,-0.54 1.84,0 3.23,0 3.23,-0.89 0,-0.21 0,-0.3 -0.25,-1.21 l -6.56,-26.34 c -0.5,-1.95 -0.61,-2.34 -4.55,-2.34 -0.84,0 -1.39,0 -1.39,-0.96 0,-0.59 0.59,-0.59 0.75,-0.59 1.44,0 5.13,0.16 6.58,0.16 1.64,0 5.78,-0.16 7.42,-0.16 0.45,0 1.05,0 1.05,0.95 0,0.39 -0.3,0.49 -0.3,0.55 -0.16,0.05 -0.25,0.05 -1.39,0.05 -1.11,0 -1.36,0 -2.59,0.09 -1.46,0.16 -1.6,0.36 -1.6,1 0,0.09 0,0.41 0.19,1.14 z"
         id="path4610"
         inkscape:connector-curvature="0"
         style="fill:#000000;stroke-width:0" /><path
         d="m 511.95,410.4 0.07,0.16 0.07,0.15 0.07,0.14 0.07,0.14 0.08,0.13 0.08,0.12 0.08,0.11 0.08,0.11 0.08,0.1 0.09,0.1 0.09,0.09 0.09,0.08 0.09,0.08 0.09,0.07 0.09,0.06 0.1,0.06 0.1,0.06 0.09,0.05 0.1,0.05 0.1,0.04 0.1,0.04 0.1,0.03 0.1,0.03 0.1,0.03 0.1,0.02 0.1,0.02 0.1,0.01 0.1,0.02 0.21,0.02 0.2,0.01 0,1.25 c -0.94,-0.11 -1.5,-0.14 -2.5,-0.14 -1.05,0 -2.37,0.03 -3.42,0.14 l 0,-1.25 c 1.22,-0.03 1.81,-0.71 1.81,-1.53 0,-0.29 0,-0.36 -0.2,-0.85 l -3.38,-8.67 -3.76,9.52 c -0.08,0.17 -0.17,0.45 -0.17,0.65 0,0.77 0.89,0.88 1.87,0.88 l 0,1.25 c -1.25,-0.11 -2.51,-0.14 -3.76,-0.14 -1.02,0 -2.05,0.07 -3.07,0.14 l 0,-1.25 c 0.8,0 1.53,0 1.99,-0.28 0.48,-0.35 0.79,-1.5 0.79,-1.54 0,-0.07 -0.06,-0.28 -0.14,-0.42 l -3.26,-8.29 -3.53,9 c -0.21,0.48 -0.21,0.51 -0.21,0.65 0,0.88 1.25,0.88 1.89,0.88 l 0,1.25 c -0.07,0 -2.54,-0.14 -3.93,-0.14 -1.1,0 -2.21,0.03 -3.28,0.14 l 0,-1.25 c 1.35,0 2.12,0 2.5,-1.02 l 4.84,-12.3 c 0.22,-0.51 0.33,-0.79 0.95,-0.79 0.63,0 0.72,0.28 0.91,0.73 l 3.94,9.96 3.86,-9.86 c 0.21,-0.52 0.34,-0.83 0.98,-0.83 0.62,0 0.72,0.23 0.94,0.79 z"
         id="path4612"
         inkscape:connector-curvature="0"
         style="fill:#000000;stroke-width:0" /><path
         d="m 523.35,420.26 0,0.1 0,0.09 -0.02,0.1 -0.01,0.09 -0.02,0.09 -0.03,0.09 -0.03,0.09 -0.04,0.09 -0.03,0.09 -0.05,0.08 -0.04,0.08 -0.05,0.09 -0.06,0.07 -0.06,0.08 -0.06,0.07 -0.07,0.07 -0.06,0.07 -0.08,0.07 -0.07,0.06 -0.08,0.06 -0.08,0.05 -0.09,0.05 -0.09,0.05 -0.09,0.04 -0.09,0.04 -0.1,0.03 -0.1,0.03 -0.1,0.02 -0.1,0.02 -0.11,0.01 -0.11,0.01 -0.11,0.01 c -1.04,0 -1.98,-0.83 -1.98,-1.99 0,-1.25 1.01,-2.01 1.98,-2.01 1.13,0 2.03,0.86 2.03,2.01 z"
         id="path4614"
         inkscape:connector-curvature="0"
         style="fill:#000000;stroke-width:0" /><path
         d="m 518.06,413.75 0,-1.25 c 2.19,0 2.5,-0.22 2.5,-1.93 l 0,-9.06 c 0,-1.5 -0.34,-1.5 -2.61,-1.5 l 0,-1.25 c 0.06,0 2.5,0.14 3.9,0.14 1.22,0 2.47,-0.03 3.69,-0.14 l 0,1.25 c -2.01,0 -2.37,0 -2.37,1.47 l 0,12.64 z"
         id="path4616"
         inkscape:connector-curvature="0"
         style="fill:#000000;stroke-width:0" /><path
         d="m 545.21,409.32 0,0.28 -0.02,0.28 -0.02,0.26 -0.03,0.26 -0.04,0.25 -0.05,0.24 -0.06,0.24 -0.07,0.22 -0.08,0.22 -0.09,0.21 -0.1,0.2 -0.11,0.19 -0.12,0.19 -0.13,0.17 -0.14,0.17 -0.15,0.16 -0.16,0.15 -0.17,0.14 -0.19,0.13 -0.2,0.12 -0.2,0.12 -0.22,0.1 -0.23,0.09 -0.25,0.09 -0.25,0.07 -0.27,0.07 -0.28,0.05 -0.29,0.05 -0.31,0.03 -0.31,0.03 -0.33,0.02 -0.35,0 c -2.86,0 -4.7,-1.56 -5.69,-3.37 l -0.03,0 0,3.37 -5.12,-0.37 0,-1.25 c 2.34,0 2.62,-0.25 2.62,-1.96 l 0,-9.03 c 0,-1.5 -0.36,-1.5 -2.62,-1.5 l 0,-1.25 c 0.08,0 2.51,0.14 3.98,0.14 1.28,0 3.69,-0.11 4,-0.14 l 0,1.25 c -2.26,0 -2.61,0 -2.61,1.5 l 0,6.28 c 0,3.66 2.89,5.36 5.19,5.36 2.44,0 2.75,-1.92 2.75,-3.69 l 0,-7.95 c 0,-1.5 -0.34,-1.5 -2.61,-1.5 l 0,-1.25 c 0.08,0 2.52,0.14 3.97,0.14 1.3,0 3.7,-0.11 4.02,-0.14 l 0,1.25 c -2.27,0 -2.63,0 -2.63,1.5 z"
         id="path4618"
         inkscape:connector-curvature="0"
         style="fill:#000000;stroke-width:0" /><path
         d="m 561.64,422.56 0,-1.25 c 2.33,0 2.61,-0.25 2.61,-1.95 l 0,-7.22 c -1.28,1.26 -2.96,1.98 -4.88,1.98 l 0.17,-0.97 c 1.68,0 3.18,-0.76 4.14,-2.01 0.42,-0.57 0.42,-0.6 0.42,-1.27 l 0,-7.45 c -0.9,-1.64 -2.67,-3.03 -4.93,-3.03 -1.95,0 -3.36,1.15 -4.05,2.15 -0.7,1.05 -1.11,2.46 -1.11,4.67 0,0.82 0,3.43 1.42,5.07 1.39,1.56 3.1,1.87 4.11,1.87 l -0.17,0.97 c -4.64,0 -8.53,-3.48 -8.53,-7.87 0,-4.35 3.69,-7.83 8.11,-7.83 2.86,0 4.56,1.53 5.15,2.15 l 0,-2.15 5.38,0.34 0,1.25 c -2.34,0 -2.63,0.25 -2.63,1.95 l 0,20.99 z"
         id="path4620"
         inkscape:connector-curvature="0"
         style="fill:#000000;stroke-width:0" /></g>  </g>
  <g
     id="g4834"
     transform="matrix(0.29362844,0,0,0.29362833,180.61099,77.94042)">
    <g
       word-spacing="normal"
       letter-spacing="normal"
       font-size-adjust="none"
       font-stretch="normal"
       font-weight="normal"
       font-variant="normal"
       font-style="normal"
       stroke-miterlimit="10.433"
       xml:space="preserve"
       transform="matrix(1.0629921,0,0,-1.0629921,-186.02362,789.27165)"
       id="g4836"
       style="font-style:normal;font-variant:normal;font-weight:normal;font-stretch:normal;letter-spacing:normal;word-spacing:normal;text-anchor:start;fill:none;fill-opacity:1;fill-rule:evenodd;stroke:#000000;stroke-width:3.4056654;stroke-linecap:butt;stroke-linejoin:miter;stroke-miterlimit:10.43299961;stroke-dasharray:none;stroke-dashoffset:0;stroke-opacity:1"><path
         id="path4838"
         d="m 470.61,422.39 4.83,0 c 3.75,0 4.14,-0.8 4.14,-2.24 0,-0.36 0,-0.95 -0.34,-2.44 -0.11,-0.25 -0.16,-0.45 -0.16,-0.56 0,-0.39 0.3,-0.59 0.6,-0.59 0.5,0 0.5,0.15 0.75,1.05 l 2.75,10.81 c 0.14,0.54 0.14,0.65 0.14,0.79 0,0.1 -0.1,0.55 -0.6,0.55 -0.5,0 -0.54,-0.25 -0.75,-1.05 -1.04,-3.87 -2.18,-4.78 -6.42,-4.78 l -4.53,0 3.19,12.66 c 0.43,1.75 0.5,1.94 2.68,1.94 l 6.58,0 c 6.13,0 7.27,-1.64 7.27,-5.47 0,-1.16 0,-1.35 -0.14,-2.7 -0.11,-0.65 -0.11,-0.74 -0.11,-0.9 0,-0.25 0.15,-0.59 0.61,-0.59 0.54,0 0.59,0.3 0.69,1.25 l 1,8.61 c 0.15,1.34 -0.1,1.34 -1.35,1.34 l -24.4,0 c -1,0 -1.5,0 -1.5,-1 0,-0.54 0.45,-0.54 1.39,-0.54 1.84,0 3.23,0 3.23,-0.89 0,-0.21 0,-0.3 -0.25,-1.21 l -6.56,-26.34 c -0.5,-1.95 -0.61,-2.34 -4.55,-2.34 -0.84,0 -1.39,0 -1.39,-0.96 0,-0.59 0.59,-0.59 0.75,-0.59 1.44,0 5.13,0.16 6.58,0.16 1.64,0 5.78,-0.16 7.42,-0.16 0.45,0 1.05,0 1.05,0.95 0,0.39 -0.3,0.49 -0.3,0.55 -0.16,0.05 -0.25,0.05 -1.39,0.05 -1.11,0 -1.36,0 -2.59,0.09 -1.46,0.16 -1.6,0.36 -1.6,1 0,0.09 0,0.41 0.19,1.14 z"
         inkscape:connector-curvature="0"
         style="fill:#000000;stroke-width:0" /><path
         id="path4840"
         d="m 494.56,412.53 5.44,0 0,1.25 -5.44,0 0,6.4 -1.19,0 c -0.03,-3.12 -1.45,-6.57 -4.8,-6.68 l 0,-0.97 3.24,0 0,-9.41 c 0,-3.91 2.92,-4.7 4.87,-4.7 2.35,0 3.94,1.98 3.94,4.73 l 0,1.92 -1.19,0 0,-1.89 c 0,-2.36 -1.11,-3.65 -2.47,-3.65 -2.4,0 -2.4,2.92 -2.4,3.56 z"
         inkscape:connector-curvature="0"
         style="fill:#000000;stroke-width:0" /><path
         id="path4842"
         d="m 521.59,406.18 -0.01,0.41 -0.03,0.4 -0.05,0.4 -0.08,0.39 -0.09,0.39 -0.11,0.38 -0.13,0.38 -0.15,0.36 -0.17,0.36 -0.19,0.35 -0.2,0.34 -0.22,0.33 -0.24,0.32 -0.25,0.31 -0.26,0.3 -0.28,0.28 -0.3,0.27 -0.31,0.26 -0.32,0.25 -0.33,0.23 -0.35,0.21 -0.36,0.2 -0.37,0.19 -0.38,0.16 -0.39,0.15 -0.4,0.13 -0.41,0.12 -0.41,0.09 -0.43,0.07 -0.43,0.06 -0.45,0.03 -0.44,0.01 0,-0.99 c 2.06,0 3.53,-0.96 4.29,-2.04 0.97,-1.36 1.08,-3.11 1.08,-4.78 0,-1.68 -0.11,-3.52 -1.12,-4.96 -0.94,-1.31 -2.53,-2.01 -4.25,-2.01 l 0,0 c -1.28,0 -3.17,0.42 -4.32,2.12 -0.93,1.44 -1.04,3.24 -1.04,4.85 0,1.5 0.03,3.56 1.25,5.04 0.87,1.02 2.34,1.78 4.11,1.78 l 0,0.99 c -4.8,0 -8.53,-3.77 -8.53,-8.13 0,-4.32 3.82,-7.76 8.53,-7.76 4.7,0 8.54,3.44 8.54,7.76 z"
         inkscape:connector-curvature="0"
         style="fill:#000000;stroke-width:0" /><path
         id="path4844"
         d="m 529.95,412.53 5.44,0 0,1.25 -5.44,0 0,6.4 -1.18,0 c -0.04,-3.12 -1.46,-6.57 -4.8,-6.68 l 0,-0.97 3.23,0 0,-9.41 c 0,-3.91 2.93,-4.7 4.88,-4.7 2.34,0 3.94,1.98 3.94,4.73 l 0,1.92 -1.19,0 0,-1.89 c 0,-2.36 -1.11,-3.65 -2.47,-3.65 -2.41,0 -2.41,2.92 -2.41,3.56 z"
         inkscape:connector-curvature="0"
         style="fill:#000000;stroke-width:0" /><path
         id="path4846"
         d="m 554.1,408.11 0,0.33 -0.01,0.33 0,0.32 -0.02,0.31 -0.01,0.15 -0.01,0.15 -0.02,0.14 -0.02,0.15 -0.02,0.14 -0.03,0.14 -0.03,0.14 -0.03,0.13 -0.04,0.14 -0.05,0.13 -0.05,0.13 -0.06,0.13 -0.06,0.13 -0.07,0.13 -0.07,0.13 -0.08,0.12 -0.09,0.13 -0.1,0.12 -0.1,0.12 -0.11,0.13 -0.12,0.12 -0.13,0.12 -0.14,0.12 -0.14,0.12 c -1.42,1.19 -3.09,1.75 -5.16,1.75 -3.31,0 -5.64,-1.27 -5.64,-3.39 0,-1.11 0.77,-1.71 1.67,-1.71 0.94,0 1.64,0.71 1.64,1.65 0,0.59 -0.28,1.32 -1.22,1.59 1.25,0.87 3.27,0.87 3.49,0.87 1.94,0 4.06,-1.28 4.06,-4.21 l 0,-1.08 0,-0.91 0,-3.45 c 0,-3.35 -2.92,-4.28 -4.48,-4.28 -1.78,0 -3.45,1.18 -3.45,2.89 0,1.92 1.67,4.61 7.93,4.84 l 0,0.91 c -1.9,-0.07 -4.2,-0.17 -6.75,-1.11 -3.14,-1.16 -4.11,-3.06 -4.11,-4.64 0,-3 3.63,-3.86 6.1,-3.86 2.78,0 4.42,1.56 5.15,2.92 0.14,-1.42 1.08,-2.75 2.69,-2.75 0.06,0 3.44,0 3.44,3.31 l 0,1.91 -1.17,0 0,-1.88 c 0,-0.34 0,-2.01 -1.3,-2.01 -1.28,0 -1.28,1.62 -1.28,2.08 z"
         inkscape:connector-curvature="0"
         style="fill:#000000;stroke-width:0" /><path
         id="path4848"
         d="m 565.52,422.95 -5.22,-0.39 0,-1.25 c 2.33,0 2.61,-0.25 2.61,-1.95 l 0,-17.85 c 0,-1.5 -0.34,-1.5 -2.61,-1.5 l 0,-1.25 c 0.06,0 2.5,0.14 3.91,0.14 1.31,0 2.61,-0.03 3.94,-0.14 l 0,1.25 c -2.27,0 -2.63,0 -2.63,1.5 z"
         inkscape:connector-curvature="0"
         style="fill:#000000;stroke-width:0" /></g>  </g>
  <g
     id="g5078"
     transform="matrix(0.29362843,0,0,0.29362833,213.33777,113.16561)">
    <g
       id="g5080"
       transform="matrix(1.0629921,0,0,-1.0629921,-186.02362,789.27165)"
       xml:space="preserve"
       stroke-miterlimit="10.433"
       font-style="normal"
       font-variant="normal"
       font-weight="normal"
       font-stretch="normal"
       font-size-adjust="none"
       letter-spacing="normal"
       word-spacing="normal"
       style="font-style:normal;font-variant:normal;font-weight:normal;font-stretch:normal;letter-spacing:normal;word-spacing:normal;text-anchor:start;fill:none;fill-opacity:1;fill-rule:evenodd;stroke:#000000;stroke-width:3.4056654;stroke-linecap:butt;stroke-linejoin:miter;stroke-miterlimit:10.43299961;stroke-dasharray:none;stroke-dashoffset:0;stroke-opacity:1"><path
         d="m 470.61,422.39 4.83,0 c 3.75,0 4.14,-0.8 4.14,-2.24 0,-0.36 0,-0.95 -0.34,-2.44 -0.11,-0.25 -0.16,-0.45 -0.16,-0.56 0,-0.39 0.3,-0.59 0.6,-0.59 0.5,0 0.5,0.15 0.75,1.05 l 2.75,10.81 c 0.14,0.54 0.14,0.65 0.14,0.79 0,0.1 -0.1,0.55 -0.6,0.55 -0.5,0 -0.54,-0.25 -0.75,-1.05 -1.04,-3.87 -2.18,-4.78 -6.42,-4.78 l -4.53,0 3.19,12.66 c 0.43,1.75 0.5,1.94 2.68,1.94 l 6.58,0 c 6.13,0 7.27,-1.64 7.27,-5.47 0,-1.16 0,-1.35 -0.14,-2.7 -0.11,-0.65 -0.11,-0.74 -0.11,-0.9 0,-0.25 0.15,-0.59 0.61,-0.59 0.54,0 0.59,0.3 0.69,1.25 l 1,8.61 c 0.15,1.34 -0.1,1.34 -1.35,1.34 l -24.4,0 c -1,0 -1.5,0 -1.5,-1 0,-0.54 0.45,-0.54 1.39,-0.54 1.84,0 3.23,0 3.23,-0.89 0,-0.21 0,-0.3 -0.25,-1.21 l -6.56,-26.34 c -0.5,-1.95 -0.61,-2.34 -4.55,-2.34 -0.84,0 -1.39,0 -1.39,-0.96 0,-0.59 0.59,-0.59 0.75,-0.59 1.44,0 5.13,0.16 6.58,0.16 1.64,0 5.78,-0.16 7.42,-0.16 0.45,0 1.05,0 1.05,0.95 0,0.39 -0.3,0.49 -0.3,0.55 -0.16,0.05 -0.25,0.05 -1.39,0.05 -1.11,0 -1.36,0 -2.59,0.09 -1.46,0.16 -1.6,0.36 -1.6,1 0,0.09 0,0.41 0.19,1.14 z"
         id="path5082"
         inkscape:connector-curvature="0"
         style="fill:#000000;stroke-width:0" /><path
         d="m 494.5,422.95 -5.24,-0.39 0,-1.25 c 2.38,0 2.63,-0.28 2.63,-2.03 l 0,-20.52 1.17,0 1.22,2.13 c 1.33,-1.74 3.25,-2.47 5.09,-2.47 l -0.17,0.97 c -2.8,0 -4.19,2.2 -4.56,2.92 l 0,8.12 c 0.97,1.61 2.86,2.72 4.93,2.72 1.96,0 3.35,-1.11 4.05,-2.15 0.7,-1.02 1.11,-2.38 1.11,-4.68 0,-0.79 0,-3.42 -1.42,-5.04 -1.39,-1.58 -3.1,-1.89 -4.11,-1.89 l 0.17,-0.97 c 4.59,0 8.53,3.44 8.53,7.87 0,4.25 -3.58,7.83 -8.14,7.83 -2.09,0 -4.01,-0.83 -5.26,-2.08 z"
         id="path5084"
         inkscape:connector-curvature="0"
         style="fill:#000000;stroke-width:0" /><path
         d="m 529.03,406.18 -0.01,0.41 -0.03,0.4 -0.05,0.4 -0.07,0.39 -0.1,0.39 -0.11,0.38 -0.13,0.38 -0.15,0.36 -0.17,0.36 -0.19,0.35 -0.2,0.34 -0.22,0.33 -0.24,0.32 -0.25,0.31 -0.26,0.3 -0.28,0.28 -0.3,0.27 -0.31,0.26 -0.32,0.25 -0.33,0.23 -0.35,0.21 -0.36,0.2 -0.37,0.19 -0.38,0.16 -0.39,0.15 -0.4,0.13 -0.41,0.12 -0.41,0.09 -0.43,0.07 -0.43,0.06 -0.44,0.03 -0.45,0.01 0,-0.99 c 2.06,0 3.53,-0.96 4.29,-2.04 0.97,-1.36 1.08,-3.11 1.08,-4.78 0,-1.68 -0.11,-3.52 -1.12,-4.96 -0.94,-1.31 -2.53,-2.01 -4.25,-2.01 l 0,0 c -1.28,0 -3.17,0.42 -4.31,2.12 -0.94,1.44 -1.05,3.24 -1.05,4.85 0,1.5 0.03,3.56 1.25,5.04 0.87,1.02 2.34,1.78 4.11,1.78 l 0,0.99 c -4.8,0 -8.53,-3.77 -8.53,-8.13 0,-4.32 3.82,-7.76 8.53,-7.76 4.7,0 8.54,3.44 8.54,7.76 z"
         id="path5086"
         inkscape:connector-curvature="0"
         style="fill:#000000;stroke-width:0" /><path
         d="m 545.94,408.11 0,0.33 0,0.33 -0.01,0.32 -0.01,0.31 -0.01,0.15 -0.02,0.15 -0.01,0.14 -0.02,0.15 -0.03,0.14 -0.02,0.14 -0.03,0.14 -0.04,0.13 -0.04,0.14 -0.05,0.13 -0.05,0.13 -0.05,0.13 -0.06,0.13 -0.07,0.13 -0.08,0.13 -0.08,0.12 -0.09,0.13 -0.09,0.12 -0.11,0.12 -0.11,0.13 -0.12,0.12 -0.12,0.12 -0.14,0.12 -0.15,0.12 c -1.42,1.19 -3.09,1.75 -5.15,1.75 -3.32,0 -5.65,-1.27 -5.65,-3.39 0,-1.11 0.77,-1.71 1.68,-1.71 0.94,0 1.64,0.71 1.64,1.65 0,0.59 -0.28,1.32 -1.22,1.59 1.25,0.87 3.27,0.87 3.48,0.87 1.94,0 4.07,-1.28 4.07,-4.21 l 0,-1.08 0,-0.91 0,-3.45 c 0,-3.35 -2.93,-4.28 -4.49,-4.28 -1.78,0 -3.45,1.18 -3.45,2.89 0,1.92 1.67,4.61 7.94,4.84 l 0,0.91 c -1.91,-0.07 -4.21,-0.17 -6.75,-1.11 -3.15,-1.16 -4.11,-3.06 -4.11,-4.64 0,-3 3.62,-3.86 6.09,-3.86 2.78,0 4.42,1.56 5.16,2.92 0.14,-1.42 1.08,-2.75 2.68,-2.75 0.07,0 3.44,0 3.44,3.31 l 0,1.91 -1.17,0 0,-1.88 c 0,-0.34 0,-2.01 -1.3,-2.01 -1.28,0 -1.28,1.62 -1.28,2.08 z"
         id="path5088"
         inkscape:connector-curvature="0"
         style="fill:#000000;stroke-width:0" /><path
         d="m 557.19,412.53 5.44,0 0,1.25 -5.44,0 0,6.4 -1.19,0 c -0.03,-3.12 -1.45,-6.57 -4.79,-6.68 l 0,-0.97 3.23,0 0,-9.41 c 0,-3.91 2.92,-4.7 4.88,-4.7 2.34,0 3.93,1.98 3.93,4.73 l 0,1.92 -1.18,0 0,-1.89 c 0,-2.36 -1.11,-3.65 -2.47,-3.65 -2.41,0 -2.41,2.92 -2.41,3.56 z"
         id="path5090"
         inkscape:connector-curvature="0"
         style="fill:#000000;stroke-width:0" /></g>  </g>
  <g
     id="g5334"
     transform="matrix(0.29362844,0,0,0.29362833,264.09268,250.27692)">
    <g
       word-spacing="normal"
       letter-spacing="normal"
       font-size-adjust="none"
       font-stretch="normal"
       font-weight="normal"
       font-variant="normal"
       font-style="normal"
       stroke-miterlimit="10.433"
       xml:space="preserve"
       transform="matrix(1.0629921,0,0,-1.0629921,-186.02362,789.27165)"
       id="g5336"
       style="font-style:normal;font-variant:normal;font-weight:normal;font-stretch:normal;letter-spacing:normal;word-spacing:normal;text-anchor:start;fill:none;fill-opacity:1;fill-rule:evenodd;stroke:#000000;stroke-width:3.4056654;stroke-linecap:butt;stroke-linejoin:miter;stroke-miterlimit:10.43299961;stroke-dasharray:none;stroke-dashoffset:0;stroke-opacity:1"><path
         id="path5338"
         d="m 470.61,422.39 4.83,0 c 3.75,0 4.14,-0.8 4.14,-2.24 0,-0.36 0,-0.95 -0.34,-2.44 -0.11,-0.25 -0.16,-0.45 -0.16,-0.56 0,-0.39 0.3,-0.59 0.6,-0.59 0.5,0 0.5,0.15 0.75,1.05 l 2.75,10.81 c 0.14,0.54 0.14,0.65 0.14,0.79 0,0.1 -0.1,0.55 -0.6,0.55 -0.5,0 -0.54,-0.25 -0.75,-1.05 -1.04,-3.87 -2.18,-4.78 -6.42,-4.78 l -4.53,0 3.19,12.66 c 0.43,1.75 0.5,1.94 2.68,1.94 l 6.58,0 c 6.13,0 7.27,-1.64 7.27,-5.47 0,-1.16 0,-1.35 -0.14,-2.7 -0.11,-0.65 -0.11,-0.74 -0.11,-0.9 0,-0.25 0.15,-0.59 0.61,-0.59 0.54,0 0.59,0.3 0.69,1.25 l 1,8.61 c 0.15,1.34 -0.1,1.34 -1.35,1.34 l -24.4,0 c -1,0 -1.5,0 -1.5,-1 0,-0.54 0.45,-0.54 1.39,-0.54 1.84,0 3.23,0 3.23,-0.89 0,-0.21 0,-0.3 -0.25,-1.21 l -6.56,-26.34 c -0.5,-1.95 -0.61,-2.34 -4.55,-2.34 -0.84,0 -1.39,0 -1.39,-0.96 0,-0.59 0.59,-0.59 0.75,-0.59 1.44,0 5.13,0.16 6.58,0.16 1.64,0 5.78,-0.16 7.42,-0.16 0.45,0 1.05,0 1.05,0.95 0,0.39 -0.3,0.49 -0.3,0.55 -0.16,0.05 -0.25,0.05 -1.39,0.05 -1.11,0 -1.36,0 -2.59,0.09 -1.46,0.16 -1.6,0.36 -1.6,1 0,0.09 0,0.41 0.19,1.14 z"
         inkscape:connector-curvature="0"
         style="fill:#000000;stroke-width:0" /><path
         id="path5340"
         d="m 511.95,410.4 0.07,0.16 0.07,0.15 0.07,0.14 0.07,0.14 0.08,0.13 0.08,0.12 0.08,0.11 0.08,0.11 0.08,0.1 0.09,0.1 0.09,0.09 0.09,0.08 0.09,0.08 0.09,0.07 0.09,0.06 0.1,0.06 0.1,0.06 0.09,0.05 0.1,0.05 0.1,0.04 0.1,0.04 0.1,0.03 0.1,0.03 0.1,0.03 0.1,0.02 0.1,0.02 0.1,0.01 0.1,0.02 0.21,0.02 0.2,0.01 0,1.25 c -0.94,-0.11 -1.5,-0.14 -2.5,-0.14 -1.05,0 -2.37,0.03 -3.42,0.14 l 0,-1.25 c 1.22,-0.03 1.81,-0.71 1.81,-1.53 0,-0.29 0,-0.36 -0.2,-0.85 l -3.38,-8.67 -3.76,9.52 c -0.08,0.17 -0.17,0.45 -0.17,0.65 0,0.77 0.89,0.88 1.87,0.88 l 0,1.25 c -1.25,-0.11 -2.51,-0.14 -3.76,-0.14 -1.02,0 -2.05,0.07 -3.07,0.14 l 0,-1.25 c 0.8,0 1.53,0 1.99,-0.28 0.48,-0.35 0.79,-1.5 0.79,-1.54 0,-0.07 -0.06,-0.28 -0.14,-0.42 l -3.26,-8.29 -3.53,9 c -0.21,0.48 -0.21,0.51 -0.21,0.65 0,0.88 1.25,0.88 1.89,0.88 l 0,1.25 c -0.07,0 -2.54,-0.14 -3.93,-0.14 -1.1,0 -2.21,0.03 -3.28,0.14 l 0,-1.25 c 1.35,0 2.12,0 2.5,-1.02 l 4.84,-12.3 c 0.22,-0.51 0.33,-0.79 0.95,-0.79 0.63,0 0.72,0.28 0.91,0.73 l 3.94,9.96 3.86,-9.86 c 0.21,-0.52 0.34,-0.83 0.98,-0.83 0.62,0 0.72,0.23 0.94,0.79 z"
         inkscape:connector-curvature="0"
         style="fill:#000000;stroke-width:0" /><path
         id="path5342"
         d="m 530.47,408.11 -0.01,0.33 0,0.33 -0.01,0.32 -0.01,0.31 -0.01,0.15 -0.01,0.15 -0.02,0.14 -0.02,0.15 -0.02,0.14 -0.03,0.14 -0.03,0.14 -0.04,0.13 -0.04,0.14 -0.04,0.13 -0.05,0.13 -0.06,0.13 -0.06,0.13 -0.07,0.13 -0.07,0.13 -0.08,0.12 -0.09,0.13 -0.1,0.12 -0.1,0.12 -0.11,0.13 -0.12,0.12 -0.13,0.12 -0.14,0.12 -0.15,0.12 c -1.42,1.19 -3.09,1.75 -5.15,1.75 -3.31,0 -5.64,-1.27 -5.64,-3.39 0,-1.11 0.76,-1.71 1.67,-1.71 0.94,0 1.64,0.71 1.64,1.65 0,0.59 -0.28,1.32 -1.22,1.59 1.25,0.87 3.27,0.87 3.49,0.87 1.93,0 4.06,-1.28 4.06,-4.21 l 0,-1.08 0,-0.91 0,-3.45 c 0,-3.35 -2.92,-4.28 -4.48,-4.28 -1.79,0 -3.46,1.18 -3.46,2.89 0,1.92 1.67,4.61 7.94,4.84 l 0,0.91 c -1.91,-0.07 -4.2,-0.17 -6.75,-1.11 -3.14,-1.16 -4.11,-3.06 -4.11,-4.64 0,-3 3.63,-3.86 6.09,-3.86 2.79,0 4.42,1.56 5.16,2.92 0.14,-1.42 1.08,-2.75 2.69,-2.75 0.06,0 3.44,0 3.44,3.31 l 0,1.91 -1.18,0 0,-1.88 c 0,-0.34 0,-2.01 -1.29,-2.01 -1.28,0 -1.28,1.62 -1.28,2.08 z"
         inkscape:connector-curvature="0"
         style="fill:#000000;stroke-width:0" /><path
         id="path5344"
         d="m 550.15,410.37 0.04,0.1 0.05,0.09 0.05,0.1 0.05,0.09 0.05,0.08 0.05,0.09 0.1,0.15 0.11,0.15 0.11,0.14 0.12,0.13 0.11,0.11 0.12,0.11 0.12,0.1 0.11,0.09 0.12,0.09 0.12,0.07 0.12,0.07 0.12,0.06 0.12,0.06 0.12,0.04 0.11,0.05 0.12,0.03 0.11,0.04 0.11,0.02 0.1,0.02 0.11,0.02 0.1,0.02 0.09,0.01 0.09,0.01 0.09,0.01 0.08,0 0.07,0 0.07,0.01 0.06,0 0.06,0 0,1.25 c -0.88,-0.07 -1.78,-0.14 -2.66,-0.14 -0.93,0 -2.23,0.03 -3.17,0.14 l 0,-1.25 c 1.47,-0.08 1.47,-1.22 1.47,-1.33 0,-0.17 -0.03,-0.52 -0.28,-1.02 l -3.94,-8.59 -4.31,9.47 c 0,0.03 -0.22,0.42 -0.22,0.67 0,0.8 1.19,0.8 1.78,0.8 l 0,1.25 c -0.08,0 -2.55,-0.14 -3.97,-0.14 -1.04,0 -2.4,0.03 -3.42,0.14 l 0,-1.25 c 1.92,0 2.34,-0.08 2.86,-1.25 l 5.5,-12.13 c 0.17,-0.42 0.39,-0.73 0.98,-0.73 0.66,0 0.8,0.31 0.97,0.69 z"
         inkscape:connector-curvature="0"
         style="fill:#000000;stroke-width:0" /><path
         id="path5346"
         d="m 568.76,406.7 0.07,0 0.06,0 0.07,0 0.06,0 0.05,0 0.06,0 0.05,0.01 0.05,0 0.04,0.01 0.05,0 0.04,0.01 0.04,0.01 0.03,0.01 0.04,0.01 0.03,0.02 0.03,0.02 0.03,0.02 0.02,0.02 0.03,0.02 0.02,0.03 0.02,0.03 0.02,0.03 0,0.02 0.01,0.02 0.01,0.02 0.01,0.02 0,0.02 0.01,0.02 0,0.02 0.01,0.03 0,0.02 0.01,0.03 0,0.02 0,0.03 0.01,0.03 0,0.03 0,0.03 0,0.03 0,0.04 0.01,0.03 0,0.03 0,0.04 c 0,3.06 -1.72,6.83 -6.91,6.83 -4.56,0 -8.05,-3.63 -8.05,-7.92 0,-4.43 3.88,-7.97 8.5,-7.97 4.71,0 6.46,3.76 6.46,4.53 0,0.14 -0.08,0.48 -0.6,0.48 -0.45,0 -0.53,-0.22 -0.62,-0.56 -1.1,-2.81 -3.74,-3.34 -4.99,-3.34 -1.64,0 -3.2,0.73 -4.25,2.06 -1.29,1.62 -1.32,3.75 -1.32,5.11 l 0.03,0.91 c 0.39,4.92 3.51,5.71 4.84,5.71 4.28,0 4.42,-4.84 4.47,-5.71 l -9.31,0 -0.03,-0.91 z"
         inkscape:connector-curvature="0"
         style="fill:#000000;stroke-width:0" /></g>  </g>
  <path
     inkscape:connector-curvature="0"
     id="path4532-6"
     d="m 225.46917,186.9947 19.03432,-32.9684"
     style="fill:none;fill-rule:evenodd;stroke:#000000;stroke-width:1px;stroke-linecap:butt;stroke-linejoin:miter;stroke-opacity:1;marker-end:url(#marker4540-0)" />
  <path
     style="fill:none;fill-rule:evenodd;stroke:#000000;stroke-width:1px;stroke-linecap:butt;stroke-linejoin:miter;stroke-opacity:1;marker-end:url(#marker4367-2)"
     d="m 168.90063,200.42973 19.03432,-32.9684"
     id="path4586-3"
     inkscape:connector-curvature="0" />
  <path
     style="fill:none;fill-rule:evenodd;stroke:#000000;stroke-width:1px;stroke-linecap:butt;stroke-linejoin:miter;stroke-opacity:1;marker-end:url(#marker4371-1)"
     d="m 202.84175,249.2201 19.03432,-32.9684"
     id="path4820-3"
     inkscape:connector-curvature="0" />
  <g
     id="g4728"
     transform="matrix(0.29072138,0,0,0.29072124,59.61496,115.84447)">
    <g
       word-spacing="normal"
       letter-spacing="normal"
       font-size-adjust="none"
       font-stretch="normal"
       font-weight="normal"
       font-variant="normal"
       font-style="normal"
       stroke-miterlimit="10.433"
       xml:space="preserve"
       transform="matrix(1.0629921,0,0,-1.0629921,-186.02362,789.27165)"
       id="content"
       style="font-style:normal;font-variant:normal;font-weight:normal;font-stretch:normal;letter-spacing:normal;word-spacing:normal;text-anchor:start;fill:none;fill-opacity:1;fill-rule:evenodd;stroke:#000000;stroke-width:3.43972015;stroke-linecap:butt;stroke-linejoin:miter;stroke-miterlimit:10.43299961;stroke-dasharray:none;stroke-dashoffset:0;stroke-opacity:1"><path
         id="path4731"
         d="m 470.61,422.39 4.83,0 c 3.75,0 4.14,-0.8 4.14,-2.24 0,-0.36 0,-0.95 -0.34,-2.44 -0.11,-0.25 -0.16,-0.45 -0.16,-0.56 0,-0.39 0.3,-0.59 0.6,-0.59 0.5,0 0.5,0.15 0.75,1.05 l 2.75,10.81 c 0.14,0.54 0.14,0.65 0.14,0.79 0,0.1 -0.1,0.55 -0.6,0.55 -0.5,0 -0.54,-0.25 -0.75,-1.05 -1.04,-3.87 -2.18,-4.78 -6.42,-4.78 l -4.53,0 3.19,12.66 c 0.43,1.75 0.5,1.94 2.68,1.94 l 6.58,0 c 6.13,0 7.27,-1.64 7.27,-5.47 0,-1.16 0,-1.35 -0.14,-2.7 -0.11,-0.65 -0.11,-0.74 -0.11,-0.9 0,-0.25 0.15,-0.59 0.61,-0.59 0.54,0 0.59,0.3 0.69,1.25 l 1,8.61 c 0.15,1.34 -0.1,1.34 -1.35,1.34 l -24.4,0 c -1,0 -1.5,0 -1.5,-1 0,-0.54 0.45,-0.54 1.39,-0.54 1.84,0 3.23,0 3.23,-0.89 0,-0.21 0,-0.3 -0.25,-1.21 l -6.56,-26.34 c -0.5,-1.95 -0.61,-2.34 -4.55,-2.34 -0.84,0 -1.39,0 -1.39,-0.96 0,-0.59 0.59,-0.59 0.75,-0.59 1.44,0 5.13,0.16 6.58,0.16 1.64,0 5.78,-0.16 7.42,-0.16 0.45,0 1.05,0 1.05,0.95 0,0.39 -0.3,0.49 -0.3,0.55 -0.16,0.05 -0.25,0.05 -1.39,0.05 -1.11,0 -1.36,0 -2.59,0.09 -1.46,0.16 -1.6,0.36 -1.6,1 0,0.09 0,0.41 0.19,1.14 z"
         inkscape:connector-curvature="0"
         style="fill:#000000;stroke-width:0" /><path
         id="path4733"
         d="m 501.11,412.67 -0.06,-0.03 -0.06,-0.03 -0.05,-0.03 -0.06,-0.03 -0.05,-0.03 -0.05,-0.04 -0.04,-0.04 -0.05,-0.03 -0.04,-0.04 -0.05,-0.04 -0.04,-0.05 -0.04,-0.04 -0.03,-0.04 -0.04,-0.05 -0.03,-0.05 -0.03,-0.05 -0.03,-0.04 -0.03,-0.06 -0.03,-0.05 -0.02,-0.05 -0.02,-0.05 -0.02,-0.06 -0.02,-0.06 -0.02,-0.05 -0.01,-0.06 -0.02,-0.06 -0.01,-0.06 -0.01,-0.06 0,-0.06 -0.01,-0.07 0,-0.06 0,-0.06 c 0,-0.96 0.65,-1.64 1.64,-1.64 0.93,0 1.67,0.59 1.67,1.7 0,3.11 -4.84,3.11 -5.83,3.11 -5.22,0 -8.45,-4.02 -8.45,-8.02 0,-4.39 3.72,-7.87 8.28,-7.87 5.2,0 6.42,4.11 6.42,4.53 0,0.41 -0.45,0.41 -0.59,0.41 -0.46,0 -0.49,-0.1 -0.67,-0.6 -0.77,-2.15 -2.61,-3.23 -4.74,-3.23 -2.41,0 -5.53,1.78 -5.53,6.79 0,4.43 2.16,6.86 5.39,6.86 0.45,0 2.13,0 3.38,-0.51 z"
         inkscape:connector-curvature="0"
         style="fill:#000000;stroke-width:0" /><path
         id="path4735"
         d="m 517.9,413.75 0,-1.25 c 2.32,0 2.6,-0.25 2.6,-1.96 l 0,-5.97 c 0,-3.06 -1.98,-5.18 -4.62,-5.18 -3.17,0 -3.31,1.5 -3.31,3.28 l 0,11.45 -5.38,-0.37 0,-1.25 c 2.63,0 2.63,-0.11 2.63,-3.22 l 0,-5.22 c 0,-2.41 0,-5.64 5.81,-5.64 0.77,0 3.31,0 4.98,2.92 l 0.04,0 0,-2.92 5.23,0.34 0,1.25 c -2.35,0 -2.63,0.25 -2.63,1.95 l 0,12.16 z"
         inkscape:connector-curvature="0"
         style="fill:#000000;stroke-width:0" /><path
         id="path4737"
         d="m 534.21,406.7 0,0.28 0.02,0.28 0.02,0.28 0.03,0.28 0.03,0.28 0.05,0.29 0.05,0.28 0.07,0.28 0.07,0.27 0.08,0.28 0.09,0.27 0.1,0.26 0.1,0.26 0.12,0.25 0.13,0.25 0.13,0.24 0.15,0.23 0.16,0.22 0.16,0.21 0.18,0.19 0.18,0.19 0.2,0.18 0.21,0.16 0.22,0.15 0.22,0.13 0.24,0.12 0.25,0.1 0.26,0.09 0.27,0.06 0.28,0.05 0.3,0.03 0.3,0.01 c -0.31,-0.25 -0.59,-0.7 -0.59,-1.25 0,-1.15 0.91,-1.61 1.56,-1.61 0.85,0 1.61,0.57 1.61,1.61 0,1.19 -1.12,2.22 -2.76,2.22 -1.74,0 -3.66,-1.08 -4.71,-3.72 l -0.03,0 0,3.72 -4.98,-0.37 0,-1.25 c 2.34,0 2.62,-0.25 2.62,-1.96 l 0,-9.03 c 0,-1.5 -0.36,-1.5 -2.62,-1.5 l 0,-1.25 c 0.17,0 2.54,0.14 3.97,0.14 1.5,0 3.04,-0.08 4.53,-0.14 l 0,1.25 -0.69,0 c -2.58,0 -2.58,0.39 -2.58,1.58 z"
         inkscape:connector-curvature="0"
         style="fill:#000000;stroke-width:0" /><path
         id="path4739"
         d="m 549.81,406.7 0,0.28 0.02,0.28 0.02,0.28 0.02,0.28 0.04,0.28 0.05,0.29 0.05,0.28 0.06,0.28 0.07,0.27 0.09,0.28 0.08,0.27 0.1,0.26 0.11,0.26 0.12,0.25 0.13,0.25 0.13,0.24 0.15,0.23 0.15,0.22 0.17,0.21 0.18,0.19 0.18,0.19 0.2,0.18 0.21,0.16 0.21,0.15 0.23,0.13 0.24,0.12 0.25,0.1 0.26,0.09 0.27,0.06 0.28,0.05 0.3,0.03 0.3,0.01 c -0.31,-0.25 -0.59,-0.7 -0.59,-1.25 0,-1.15 0.9,-1.61 1.56,-1.61 0.84,0 1.61,0.57 1.61,1.61 0,1.19 -1.13,2.22 -2.77,2.22 -1.73,0 -3.65,-1.08 -4.7,-3.72 l -0.03,0 0,3.72 -4.99,-0.37 0,-1.25 c 2.35,0 2.63,-0.25 2.63,-1.96 l 0,-9.03 c 0,-1.5 -0.36,-1.5 -2.63,-1.5 l 0,-1.25 c 0.18,0 2.55,0.14 3.97,0.14 1.5,0 3.05,-0.08 4.53,-0.14 l 0,1.25 -0.68,0 c -2.58,0 -2.58,0.39 -2.58,1.58 z"
         inkscape:connector-curvature="0"
         style="fill:#000000;stroke-width:0" /><path
         id="path4741"
         d="m 573.8,406.7 0.06,0 0.07,0 0.06,0 0.06,0 0.06,0 0.05,0 0.05,0.01 0.05,0 0.05,0.01 0.04,0 0.04,0.01 0.04,0.01 0.04,0.01 0.03,0.01 0.03,0.02 0.03,0.02 0.03,0.02 0.03,0.02 0.02,0.02 0.02,0.03 0.02,0.03 0.02,0.03 0.01,0.02 0.01,0.02 0,0.02 0.01,0.02 0.01,0.02 0,0.02 0.01,0.02 0,0.03 0.01,0.02 0,0.03 0.01,0.02 0,0.03 0,0.03 0,0.03 0.01,0.03 0,0.03 0,0.04 0,0.03 0,0.03 0,0.04 c 0,3.06 -1.72,6.83 -6.9,6.83 -4.57,0 -8.05,-3.63 -8.05,-7.92 0,-4.43 3.87,-7.97 8.5,-7.97 4.7,0 6.45,3.76 6.45,4.53 0,0.14 -0.08,0.48 -0.59,0.48 -0.46,0 -0.53,-0.22 -0.63,-0.56 -1.09,-2.81 -3.73,-3.34 -4.98,-3.34 -1.64,0 -3.2,0.73 -4.25,2.06 -1.3,1.62 -1.33,3.75 -1.33,5.11 l 0.03,0.91 c 0.39,4.92 3.52,5.71 4.85,5.71 4.28,0 4.42,-4.84 4.46,-5.71 l -9.31,0 -0.03,-0.91 z"
         inkscape:connector-curvature="0"
         style="fill:#000000;stroke-width:0" /><path
         id="path4743"
         d="m 594.16,409.32 0,0.28 -0.01,0.28 -0.03,0.26 -0.03,0.26 -0.04,0.25 -0.05,0.24 -0.06,0.24 -0.07,0.22 -0.08,0.22 -0.08,0.21 -0.1,0.2 -0.11,0.19 -0.12,0.19 -0.13,0.17 -0.14,0.17 -0.15,0.16 -0.17,0.15 -0.17,0.14 -0.19,0.13 -0.19,0.12 -0.21,0.12 -0.22,0.1 -0.23,0.09 -0.24,0.09 -0.26,0.07 -0.27,0.07 -0.28,0.05 -0.29,0.05 -0.3,0.03 -0.32,0.03 -0.33,0.02 -0.34,0 c -2.86,0 -4.71,-1.56 -5.69,-3.37 l -0.03,0 0,3.37 -5.13,-0.37 0,-1.25 c 2.35,0 2.63,-0.25 2.63,-1.96 l 0,-9.03 c 0,-1.5 -0.36,-1.5 -2.63,-1.5 l 0,-1.25 c 0.08,0 2.52,0.14 3.99,0.14 1.28,0 3.68,-0.11 4,-0.14 l 0,1.25 c -2.27,0 -2.61,0 -2.61,1.5 l 0,6.28 c 0,3.66 2.89,5.36 5.18,5.36 2.44,0 2.75,-1.92 2.75,-3.69 l 0,-7.95 c 0,-1.5 -0.34,-1.5 -2.61,-1.5 l 0,-1.25 c 0.08,0 2.52,0.14 3.97,0.14 1.3,0 3.71,-0.11 4.02,-0.14 l 0,1.25 c -2.27,0 -2.63,0 -2.63,1.5 z"
         inkscape:connector-curvature="0"
         style="fill:#000000;stroke-width:0" /><path
         id="path4745"
         d="m 604.1,412.53 5.44,0 0,1.25 -5.44,0 0,6.4 -1.18,0 c -0.03,-3.12 -1.45,-6.57 -4.8,-6.68 l 0,-0.97 3.23,0 0,-9.41 c 0,-3.91 2.93,-4.7 4.88,-4.7 2.34,0 3.94,1.98 3.94,4.73 l 0,1.92 -1.19,0 0,-1.89 c 0,-2.36 -1.11,-3.65 -2.47,-3.65 -2.41,0 -2.41,2.92 -2.41,3.56 z"
         inkscape:connector-curvature="0"
         style="fill:#000000;stroke-width:0" /></g>  </g>
</svg>
